<svg width="233" height="402" viewBox="0 0 233 402" fill="none" xmlns="http://www.w3.org/2000/svg">
<path d="M0 20C0 8.9543 8.95431 0 20 0H213C224.046 0 233 8.95431 233 20V402H0V20Z" fill="#4A4A4A"/>
<path d="M57.2852 62.3711V68.4688H52.8008V77H45.1719V68.4688H29.4766V61.6602L44.0508 37.5977H52.8008V62.3711H57.2852ZM35.2461 62.3711H45.1719V45.2539L35.2461 62.3711ZM74.5938 77.9844C69.5443 77.9844 65.9987 76.2161 63.957 72.6797C61.9336 69.1432 60.9219 64.1029 60.9219 57.5586C60.9219 51.0143 61.9336 45.9648 63.957 42.4102C65.9987 38.8555 69.5443 37.0781 74.5938 37.0781C79.6432 37.0781 83.1888 38.8555 85.2305 42.4102C87.2539 45.9648 88.2656 51.0143 88.2656 57.5586C88.2656 64.1029 87.2448 69.1432 85.2031 72.6797C83.1797 76.2161 79.6432 77.9844 74.5938 77.9844ZM79.1602 68.0039C79.8711 65.5977 80.2266 62.1159 80.2266 57.5586C80.2266 52.7826 79.862 49.2461 79.1328 46.9492C78.4219 44.6523 76.9089 43.5039 74.5938 43.5039C72.2786 43.5039 70.7474 44.6523 70 46.9492C69.2526 49.2461 68.8789 52.7826 68.8789 57.5586C68.8789 62.1159 69.2526 65.6068 70 68.0312C70.7474 70.4375 72.2786 71.6406 74.5938 71.6406C76.9089 71.6406 78.431 70.4284 79.1602 68.0039ZM118.207 67.6211C118.207 64.7956 119.201 62.3893 121.188 60.4023C123.174 58.4336 125.572 57.4492 128.379 57.4492C131.186 57.4492 133.583 58.4427 135.57 60.4297C137.557 62.4167 138.551 64.8138 138.551 67.6211C138.551 70.4284 137.557 72.8255 135.57 74.8125C133.583 76.7995 131.186 77.793 128.379 77.793C125.572 77.793 123.174 76.7995 121.188 74.8125C119.201 72.8255 118.207 70.4284 118.207 67.6211ZM94.6094 54.9062C92.6224 52.9193 91.6289 50.5221 91.6289 47.7148C91.6289 44.9076 92.6224 42.5104 94.6094 40.5234C96.5964 38.5365 98.9935 37.543 101.801 37.543C104.608 37.543 107.005 38.5365 108.992 40.5234C110.979 42.5104 111.973 44.9076 111.973 47.7148C111.973 50.5221 110.979 52.9193 108.992 54.9062C107.023 56.8932 104.626 57.8867 101.801 57.8867C98.9935 57.8867 96.5964 56.8932 94.6094 54.9062ZM106.094 78.0391H101.855L124.031 37.3516H128.188L106.094 78.0391ZM125.316 70.6836C126.155 71.5404 127.176 71.9688 128.379 71.9688C129.582 71.9688 130.603 71.5495 131.441 70.7109C132.298 69.8542 132.727 68.8242 132.727 67.6211C132.727 66.418 132.298 65.3971 131.441 64.5586C130.603 63.7018 129.582 63.2734 128.379 63.2734C127.176 63.2734 126.146 63.7018 125.289 64.5586C124.451 65.3971 124.031 66.418 124.031 67.6211C124.031 68.8242 124.46 69.8451 125.316 70.6836ZM98.7383 50.7773C99.5768 51.6341 100.598 52.0625 101.801 52.0625C103.004 52.0625 104.025 51.6432 104.863 50.8047C105.72 49.9479 106.148 48.918 106.148 47.7148C106.148 46.5117 105.72 45.4909 104.863 44.6523C104.025 43.7956 103.004 43.3672 101.801 43.3672C100.598 43.3672 99.5677 43.7956 98.7109 44.6523C97.8724 45.4909 97.4531 46.5117 97.4531 47.7148C97.4531 48.918 97.8815 49.9388 98.7383 50.7773Z" fill="#E0E0E0"/>
<path d="M34.1094 96.4844H31.625V101H29.2734V89.4844H34.9219C35.7292 89.5 36.349 89.599 36.7812 89.7812C37.2188 89.9635 37.5885 90.2318 37.8906 90.5859C38.1406 90.8776 38.3385 91.2005 38.4844 91.5547C38.6302 91.9089 38.7031 92.3125 38.7031 92.7656C38.7031 93.3125 38.5651 93.8516 38.2891 94.3828C38.013 94.9089 37.5573 95.2812 36.9219 95.5C37.4531 95.7135 37.8281 96.0182 38.0469 96.4141C38.2708 96.8047 38.3828 97.4036 38.3828 98.2109V98.9844C38.3828 99.5104 38.4036 99.8672 38.4453 100.055C38.5078 100.352 38.6536 100.57 38.8828 100.711V101H36.2344C36.1615 100.745 36.1094 100.539 36.0781 100.383C36.0156 100.06 35.9818 99.7292 35.9766 99.3906L35.9609 98.3203C35.9505 97.5859 35.8151 97.0964 35.5547 96.8516C35.2995 96.6068 34.8177 96.4844 34.1094 96.4844ZM35.5703 94.3906C36.0495 94.1719 36.2891 93.7396 36.2891 93.0938C36.2891 92.3958 36.0573 91.9271 35.5938 91.6875C35.3333 91.5521 34.9427 91.4844 34.4219 91.4844H31.625V94.5781H34.3516C34.8932 94.5781 35.2995 94.5156 35.5703 94.3906ZM47.8906 98.5C47.8333 99.0052 47.5703 99.5182 47.1016 100.039C46.3724 100.867 45.3516 101.281 44.0391 101.281C42.9557 101.281 42 100.932 41.1719 100.234C40.3438 99.5365 39.9297 98.401 39.9297 96.8281C39.9297 95.3542 40.3021 94.224 41.0469 93.4375C41.7969 92.651 42.7682 92.2578 43.9609 92.2578C44.6693 92.2578 45.3073 92.3906 45.875 92.6562C46.4427 92.9219 46.9115 93.3411 47.2812 93.9141C47.6146 94.4193 47.8307 95.0052 47.9297 95.6719C47.987 96.0625 48.0104 96.625 48 97.3594H42.1719C42.2031 98.2135 42.4714 98.8125 42.9766 99.1562C43.2839 99.3698 43.6536 99.4766 44.0859 99.4766C44.5443 99.4766 44.9167 99.3464 45.2031 99.0859C45.3594 98.9453 45.4974 98.75 45.6172 98.5H47.8906ZM45.6875 95.8906C45.651 95.3021 45.4714 94.8568 45.1484 94.5547C44.8307 94.2474 44.4349 94.0938 43.9609 94.0938C43.4453 94.0938 43.0443 94.2552 42.7578 94.5781C42.4766 94.901 42.2995 95.3385 42.2266 95.8906H45.6875ZM57.2578 89.5V101H55.0938V99.8203C54.776 100.326 54.4141 100.693 54.0078 100.922C53.6016 101.151 53.0964 101.266 52.4922 101.266C51.4974 101.266 50.6589 100.865 49.9766 100.062C49.2995 99.2552 48.9609 98.2214 48.9609 96.9609C48.9609 95.5078 49.2943 94.3646 49.9609 93.5312C50.6328 92.6979 51.5286 92.2812 52.6484 92.2812C53.1641 92.2812 53.6224 92.3958 54.0234 92.625C54.4245 92.849 54.75 93.1615 55 93.5625V89.5H57.2578ZM51.2578 96.7969C51.2578 97.5833 51.4141 98.2109 51.7266 98.6797C52.0339 99.1536 52.5026 99.3906 53.1328 99.3906C53.763 99.3906 54.2422 99.1562 54.5703 98.6875C54.8984 98.2188 55.0625 97.612 55.0625 96.8672C55.0625 95.8255 54.7995 95.0807 54.2734 94.6328C53.9505 94.362 53.5755 94.2266 53.1484 94.2266C52.4974 94.2266 52.0182 94.474 51.7109 94.9688C51.4089 95.4583 51.2578 96.0677 51.2578 96.7969ZM64.75 99.7969C64.7292 99.8229 64.6771 99.901 64.5938 100.031C64.5104 100.161 64.4115 100.276 64.2969 100.375C63.9479 100.688 63.6094 100.901 63.2812 101.016C62.9583 101.13 62.5781 101.188 62.1406 101.188C60.8802 101.188 60.0312 100.734 59.5938 99.8281C59.349 99.3281 59.2266 98.5911 59.2266 97.6172V92.4844H61.5078V97.6172C61.5078 98.1016 61.5651 98.4661 61.6797 98.7109C61.8828 99.1432 62.2812 99.3594 62.875 99.3594C63.6354 99.3594 64.1562 99.0521 64.4375 98.4375C64.5833 98.1042 64.6562 97.6641 64.6562 97.1172V92.4844H66.9141V101H64.75V99.7969ZM76.4375 95.5391H74.1562C74.1146 95.2214 74.0078 94.9349 73.8359 94.6797C73.5859 94.3359 73.1979 94.1641 72.6719 94.1641C71.9219 94.1641 71.4089 94.5365 71.1328 95.2812C70.987 95.6771 70.9141 96.2031 70.9141 96.8594C70.9141 97.4844 70.987 97.987 71.1328 98.3672C71.3984 99.0755 71.8984 99.4297 72.6328 99.4297C73.1536 99.4297 73.5234 99.2891 73.7422 99.0078C73.9609 98.7266 74.0938 98.362 74.1406 97.9141H76.4141C76.362 98.5911 76.1172 99.2318 75.6797 99.8359C74.9818 100.81 73.9479 101.297 72.5781 101.297C71.2083 101.297 70.2005 100.891 69.5547 100.078C68.9089 99.2656 68.5859 98.2109 68.5859 96.9141C68.5859 95.4505 68.9427 94.3125 69.6562 93.5C70.3698 92.6875 71.3542 92.2812 72.6094 92.2812C73.6771 92.2812 74.5495 92.5208 75.2266 93C75.9089 93.4792 76.3125 94.3255 76.4375 95.5391ZM81.875 99.4141V101.078L80.8203 101.117C79.7682 101.154 79.0495 100.971 78.6641 100.57C78.4141 100.315 78.2891 99.9219 78.2891 99.3906V94.1484H77.1016V92.5625H78.2891V90.1875H80.4922V92.5625H81.875V94.1484H80.4922V98.6484C80.4922 98.9974 80.5365 99.2161 80.625 99.3047C80.7135 99.388 80.9844 99.4297 81.4375 99.4297C81.5052 99.4297 81.5755 99.4297 81.6484 99.4297C81.7266 99.4245 81.8021 99.4193 81.875 99.4141ZM85.5938 92.4844V101H83.3359V92.4844H85.5938ZM85.5938 89.4141V91.4688H83.3359V89.4141H85.5938ZM94.8594 93.5625C95.5781 94.4635 95.9375 95.5286 95.9375 96.7578C95.9375 98.0078 95.5781 99.0781 94.8594 99.9688C94.1406 100.854 93.0495 101.297 91.5859 101.297C90.1224 101.297 89.0312 100.854 88.3125 99.9688C87.5938 99.0781 87.2344 98.0078 87.2344 96.7578C87.2344 95.5286 87.5938 94.4635 88.3125 93.5625C89.0312 92.6615 90.1224 92.2109 91.5859 92.2109C93.0495 92.2109 94.1406 92.6615 94.8594 93.5625ZM91.5781 94.0938C90.9271 94.0938 90.4245 94.3255 90.0703 94.7891C89.7214 95.2474 89.5469 95.9036 89.5469 96.7578C89.5469 97.612 89.7214 98.2708 90.0703 98.7344C90.4245 99.1979 90.9271 99.4297 91.5781 99.4297C92.2292 99.4297 92.7292 99.1979 93.0781 98.7344C93.4271 98.2708 93.6016 97.612 93.6016 96.7578C93.6016 95.9036 93.4271 95.2474 93.0781 94.7891C92.7292 94.3255 92.2292 94.0938 91.5781 94.0938ZM101.547 94.1328C100.792 94.1328 100.273 94.4531 99.9922 95.0938C99.8464 95.4323 99.7734 95.8646 99.7734 96.3906V101H97.5547V92.5H99.7031V93.7422C99.9896 93.3047 100.26 92.9896 100.516 92.7969C100.974 92.4531 101.555 92.2812 102.258 92.2812C103.138 92.2812 103.857 92.513 104.414 92.9766C104.977 93.4349 105.258 94.1979 105.258 95.2656V101H102.977V95.8203C102.977 95.3724 102.917 95.0286 102.797 94.7891C102.578 94.3516 102.161 94.1328 101.547 94.1328ZM114.062 92.4844V101H111.805V92.4844H114.062ZM114.062 89.4141V91.4688H111.805V89.4141H114.062ZM120.234 94.1328C119.479 94.1328 118.961 94.4531 118.68 95.0938C118.534 95.4323 118.461 95.8646 118.461 96.3906V101H116.242V92.5H118.391V93.7422C118.677 93.3047 118.948 92.9896 119.203 92.7969C119.661 92.4531 120.242 92.2812 120.945 92.2812C121.826 92.2812 122.544 92.513 123.102 92.9766C123.664 93.4349 123.945 94.1979 123.945 95.2656V101H121.664V95.8203C121.664 95.3724 121.604 95.0286 121.484 94.7891C121.266 94.3516 120.849 94.1328 120.234 94.1328ZM134.82 99.3359C135.388 99.3359 135.849 99.2734 136.203 99.1484C136.875 98.9089 137.211 98.4635 137.211 97.8125C137.211 97.4323 137.044 97.138 136.711 96.9297C136.378 96.7266 135.854 96.5469 135.141 96.3906L133.922 96.1172C132.724 95.8464 131.896 95.5521 131.438 95.2344C130.661 94.7031 130.273 93.8724 130.273 92.7422C130.273 91.7109 130.648 90.8542 131.398 90.1719C132.148 89.4896 133.25 89.1484 134.703 89.1484C135.917 89.1484 136.951 89.4714 137.805 90.1172C138.664 90.7578 139.115 91.6901 139.156 92.9141H136.844C136.802 92.2214 136.5 91.7292 135.938 91.4375C135.562 91.2448 135.096 91.1484 134.539 91.1484C133.919 91.1484 133.424 91.2734 133.055 91.5234C132.685 91.7734 132.5 92.1224 132.5 92.5703C132.5 92.9818 132.682 93.2891 133.047 93.4922C133.281 93.6276 133.781 93.7865 134.547 93.9688L136.531 94.4453C137.401 94.6536 138.057 94.9323 138.5 95.2812C139.188 95.8229 139.531 96.6068 139.531 97.6328C139.531 98.6849 139.128 99.5599 138.32 100.258C137.518 100.951 136.383 101.297 134.914 101.297C133.414 101.297 132.234 100.956 131.375 100.273C130.516 99.5859 130.086 98.6432 130.086 97.4453H132.383C132.456 97.9714 132.599 98.3646 132.812 98.625C133.203 99.099 133.872 99.3359 134.82 99.3359ZM148.422 98.5C148.365 99.0052 148.102 99.5182 147.633 100.039C146.904 100.867 145.883 101.281 144.57 101.281C143.487 101.281 142.531 100.932 141.703 100.234C140.875 99.5365 140.461 98.401 140.461 96.8281C140.461 95.3542 140.833 94.224 141.578 93.4375C142.328 92.651 143.299 92.2578 144.492 92.2578C145.201 92.2578 145.839 92.3906 146.406 92.6562C146.974 92.9219 147.443 93.3411 147.812 93.9141C148.146 94.4193 148.362 95.0052 148.461 95.6719C148.518 96.0625 148.542 96.625 148.531 97.3594H142.703C142.734 98.2135 143.003 98.8125 143.508 99.1562C143.815 99.3698 144.185 99.4766 144.617 99.4766C145.076 99.4766 145.448 99.3464 145.734 99.0859C145.891 98.9453 146.029 98.75 146.148 98.5H148.422ZM146.219 95.8906C146.182 95.3021 146.003 94.8568 145.68 94.5547C145.362 94.2474 144.966 94.0938 144.492 94.0938C143.977 94.0938 143.576 94.2552 143.289 94.5781C143.008 94.901 142.831 95.3385 142.758 95.8906H146.219ZM153.938 99.4141V101.078L152.883 101.117C151.831 101.154 151.112 100.971 150.727 100.57C150.477 100.315 150.352 99.9219 150.352 99.3906V94.1484H149.164V92.5625H150.352V90.1875H152.555V92.5625H153.938V94.1484H152.555V98.6484C152.555 98.9974 152.599 99.2161 152.688 99.3047C152.776 99.388 153.047 99.4297 153.5 99.4297C153.568 99.4297 153.638 99.4297 153.711 99.4297C153.789 99.4245 153.865 99.4193 153.938 99.4141ZM160.828 99.7969C160.807 99.8229 160.755 99.901 160.672 100.031C160.589 100.161 160.49 100.276 160.375 100.375C160.026 100.688 159.688 100.901 159.359 101.016C159.036 101.13 158.656 101.188 158.219 101.188C156.958 101.188 156.109 100.734 155.672 99.8281C155.427 99.3281 155.305 98.5911 155.305 97.6172V92.4844H157.586V97.6172C157.586 98.1016 157.643 98.4661 157.758 98.7109C157.961 99.1432 158.359 99.3594 158.953 99.3594C159.714 99.3594 160.234 99.0521 160.516 98.4375C160.661 98.1042 160.734 97.6641 160.734 97.1172V92.4844H162.992V101H160.828V99.7969ZM172.281 93.3984C172.969 94.1328 173.312 95.2109 173.312 96.6328C173.312 98.1328 172.974 99.276 172.297 100.062C171.625 100.849 170.758 101.242 169.695 101.242C169.018 101.242 168.456 101.073 168.008 100.734C167.763 100.547 167.523 100.273 167.289 99.9141V104.352H165.086V92.4844H167.219V93.7422C167.458 93.3724 167.714 93.0807 167.984 92.8672C168.479 92.487 169.068 92.2969 169.75 92.2969C170.745 92.2969 171.589 92.6641 172.281 93.3984ZM171.016 96.7422C171.016 96.0859 170.865 95.5052 170.562 95C170.266 94.4948 169.781 94.2422 169.109 94.2422C168.302 94.2422 167.747 94.625 167.445 95.3906C167.289 95.7969 167.211 96.3125 167.211 96.9375C167.211 97.9271 167.474 98.6224 168 99.0234C168.312 99.2578 168.682 99.375 169.109 99.375C169.729 99.375 170.201 99.1354 170.523 98.6562C170.852 98.1771 171.016 97.5391 171.016 96.7422ZM186.75 95.5391H184.469C184.427 95.2214 184.32 94.9349 184.148 94.6797C183.898 94.3359 183.51 94.1641 182.984 94.1641C182.234 94.1641 181.721 94.5365 181.445 95.2812C181.299 95.6771 181.227 96.2031 181.227 96.8594C181.227 97.4844 181.299 97.987 181.445 98.3672C181.711 99.0755 182.211 99.4297 182.945 99.4297C183.466 99.4297 183.836 99.2891 184.055 99.0078C184.273 98.7266 184.406 98.362 184.453 97.9141H186.727C186.674 98.5911 186.43 99.2318 185.992 99.8359C185.294 100.81 184.26 101.297 182.891 101.297C181.521 101.297 180.513 100.891 179.867 100.078C179.221 99.2656 178.898 98.2109 178.898 96.9141C178.898 95.4505 179.255 94.3125 179.969 93.5C180.682 92.6875 181.667 92.2812 182.922 92.2812C183.99 92.2812 184.862 92.5208 185.539 93C186.221 93.4792 186.625 94.3255 186.75 95.5391ZM195.391 93.5625C196.109 94.4635 196.469 95.5286 196.469 96.7578C196.469 98.0078 196.109 99.0781 195.391 99.9688C194.672 100.854 193.581 101.297 192.117 101.297C190.654 101.297 189.562 100.854 188.844 99.9688C188.125 99.0781 187.766 98.0078 187.766 96.7578C187.766 95.5286 188.125 94.4635 188.844 93.5625C189.562 92.6615 190.654 92.2109 192.117 92.2109C193.581 92.2109 194.672 92.6615 195.391 93.5625ZM192.109 94.0938C191.458 94.0938 190.956 94.3255 190.602 94.7891C190.253 95.2474 190.078 95.9036 190.078 96.7578C190.078 97.612 190.253 98.2708 190.602 98.7344C190.956 99.1979 191.458 99.4297 192.109 99.4297C192.76 99.4297 193.26 99.1979 193.609 98.7344C193.958 98.2708 194.133 97.612 194.133 96.7578C194.133 95.9036 193.958 95.2474 193.609 94.7891C193.26 94.3255 192.76 94.0938 192.109 94.0938ZM203.938 92.875C204.604 93.3021 204.987 94.0365 205.086 95.0781H202.859C202.828 94.7917 202.747 94.5651 202.617 94.3984C202.372 94.0964 201.956 93.9453 201.367 93.9453C200.883 93.9453 200.536 94.0208 200.328 94.1719C200.125 94.3229 200.023 94.5 200.023 94.7031C200.023 94.9583 200.133 95.1432 200.352 95.2578C200.57 95.3776 201.344 95.5833 202.672 95.875C203.557 96.0833 204.221 96.3984 204.664 96.8203C205.102 97.2474 205.32 97.7812 205.32 98.4219C205.32 99.2656 205.005 99.9557 204.375 100.492C203.75 101.023 202.781 101.289 201.469 101.289C200.13 101.289 199.141 101.008 198.5 100.445C197.865 99.8776 197.547 99.1562 197.547 98.2812H199.805C199.852 98.6771 199.953 98.9583 200.109 99.125C200.385 99.4219 200.896 99.5703 201.641 99.5703C202.078 99.5703 202.424 99.5052 202.68 99.375C202.94 99.2448 203.07 99.0495 203.07 98.7891C203.07 98.5391 202.966 98.349 202.758 98.2188C202.549 98.0885 201.776 97.8646 200.438 97.5469C199.474 97.3073 198.794 97.0078 198.398 96.6484C198.003 96.2943 197.805 95.7839 197.805 95.1172C197.805 94.3307 198.112 93.6562 198.727 93.0938C199.346 92.526 200.216 92.2422 201.336 92.2422C202.398 92.2422 203.266 92.4531 203.938 92.875ZM210.875 99.4141V101.078L209.82 101.117C208.768 101.154 208.049 100.971 207.664 100.57C207.414 100.315 207.289 99.9219 207.289 99.3906V94.1484H206.102V92.5625H207.289V90.1875H209.492V92.5625H210.875V94.1484H209.492V98.6484C209.492 98.9974 209.536 99.2161 209.625 99.3047C209.714 99.388 209.984 99.4297 210.438 99.4297C210.505 99.4297 210.576 99.4297 210.648 99.4297C210.727 99.4245 210.802 99.4193 210.875 99.4141Z" fill="#E0E0E0"/>
<path d="M29.4824 126.393L31.1055 133.395L33.0508 126.393H34.3164L36.2617 133.395L37.8848 126.393H39.1621L36.9004 135H35.6758L33.6895 127.863L31.6914 135H30.4668L28.2168 126.393H29.4824ZM40.1055 128.754H41.1777V135H40.1055V128.754ZM40.1055 126.393H41.1777V127.588H40.1055V126.393ZM42.9883 126.973H44.0547V128.725H45.0566V129.586H44.0547V133.682C44.0547 133.9 44.1289 134.047 44.2773 134.121C44.3594 134.164 44.4961 134.186 44.6875 134.186C44.7383 134.186 44.793 134.186 44.8516 134.186C44.9102 134.182 44.9785 134.176 45.0566 134.168V135C44.9355 135.035 44.8086 135.061 44.6758 135.076C44.5469 135.092 44.4062 135.1 44.2539 135.1C43.7617 135.1 43.4277 134.975 43.252 134.725C43.0762 134.471 42.9883 134.143 42.9883 133.74V129.586H42.1387V128.725H42.9883V126.973ZM46.1172 126.363H47.1719V129.574C47.4219 129.258 47.6465 129.035 47.8457 128.906C48.1855 128.684 48.6094 128.572 49.1172 128.572C50.0273 128.572 50.6445 128.891 50.9688 129.527C51.1445 129.875 51.2324 130.357 51.2324 130.975V135H50.1484V131.045C50.1484 130.584 50.0898 130.246 49.9727 130.031C49.7812 129.688 49.4219 129.516 48.8945 129.516C48.457 129.516 48.0605 129.666 47.7051 129.967C47.3496 130.268 47.1719 130.836 47.1719 131.672V135H46.1172V126.363ZM56.0547 126.363H57.0801V129.486C57.3105 129.186 57.5859 128.957 57.9062 128.801C58.2266 128.641 58.5742 128.561 58.9492 128.561C59.7305 128.561 60.3633 128.83 60.8477 129.369C61.3359 129.904 61.5801 130.695 61.5801 131.742C61.5801 132.734 61.3398 133.559 60.8594 134.215C60.3789 134.871 59.7129 135.199 58.8613 135.199C58.3848 135.199 57.9824 135.084 57.6543 134.854C57.459 134.717 57.25 134.498 57.0273 134.197V135H56.0547V126.363ZM58.7969 134.268C59.3672 134.268 59.793 134.041 60.0742 133.588C60.3594 133.135 60.502 132.537 60.502 131.795C60.502 131.135 60.3594 130.588 60.0742 130.154C59.793 129.721 59.377 129.504 58.8262 129.504C58.3457 129.504 57.9238 129.682 57.5605 130.037C57.2012 130.393 57.0215 130.979 57.0215 131.795C57.0215 132.385 57.0957 132.863 57.2441 133.23C57.5215 133.922 58.0391 134.268 58.7969 134.268ZM65.4297 128.584C65.875 128.584 66.3066 128.689 66.7246 128.9C67.1426 129.107 67.4609 129.377 67.6797 129.709C67.8906 130.025 68.0312 130.395 68.1016 130.816C68.1641 131.105 68.1953 131.566 68.1953 132.199H63.5957C63.6152 132.836 63.7656 133.348 64.0469 133.734C64.3281 134.117 64.7637 134.309 65.3535 134.309C65.9043 134.309 66.3438 134.127 66.6719 133.764C66.8594 133.553 66.9922 133.309 67.0703 133.031H68.1074C68.0801 133.262 67.9883 133.52 67.832 133.805C67.6797 134.086 67.5078 134.316 67.3164 134.496C66.9961 134.809 66.5996 135.02 66.127 135.129C65.873 135.191 65.5859 135.223 65.2656 135.223C64.4844 135.223 63.8223 134.939 63.2793 134.373C62.7363 133.803 62.4648 133.006 62.4648 131.982C62.4648 130.975 62.7383 130.156 63.2852 129.527C63.832 128.898 64.5469 128.584 65.4297 128.584ZM67.1113 131.361C67.0684 130.904 66.9688 130.539 66.8125 130.266C66.5234 129.758 66.041 129.504 65.3652 129.504C64.8809 129.504 64.4746 129.68 64.1465 130.031C63.8184 130.379 63.6445 130.822 63.625 131.361H67.1113ZM70.123 133.031C70.1543 133.383 70.2422 133.652 70.3867 133.84C70.6523 134.18 71.1133 134.35 71.7695 134.35C72.1602 134.35 72.5039 134.266 72.8008 134.098C73.0977 133.926 73.2461 133.662 73.2461 133.307C73.2461 133.037 73.127 132.832 72.8887 132.691C72.7363 132.605 72.4355 132.506 71.9863 132.393L71.1484 132.182C70.6133 132.049 70.2188 131.9 69.9648 131.736C69.5117 131.451 69.2852 131.057 69.2852 130.553C69.2852 129.959 69.498 129.479 69.9238 129.111C70.3535 128.744 70.9297 128.561 71.6523 128.561C72.5977 128.561 73.2793 128.838 73.6973 129.393C73.959 129.744 74.0859 130.123 74.0781 130.529H73.082C73.0625 130.291 72.9785 130.074 72.8301 129.879C72.5879 129.602 72.168 129.463 71.5703 129.463C71.1719 129.463 70.8691 129.539 70.6621 129.691C70.459 129.844 70.3574 130.045 70.3574 130.295C70.3574 130.568 70.4922 130.787 70.7617 130.951C70.918 131.049 71.1484 131.135 71.4531 131.209L72.1504 131.379C72.9082 131.562 73.416 131.74 73.6738 131.912C74.084 132.182 74.2891 132.605 74.2891 133.184C74.2891 133.742 74.0762 134.225 73.6504 134.631C73.2285 135.037 72.584 135.24 71.7168 135.24C70.7832 135.24 70.1211 135.029 69.7305 134.607C69.3438 134.182 69.1367 133.656 69.1094 133.031H70.123ZM75.707 126.973H76.7734V128.725H77.7754V129.586H76.7734V133.682C76.7734 133.9 76.8477 134.047 76.9961 134.121C77.0781 134.164 77.2148 134.186 77.4062 134.186C77.457 134.186 77.5117 134.186 77.5703 134.186C77.6289 134.182 77.6973 134.176 77.7754 134.168V135C77.6543 135.035 77.5273 135.061 77.3945 135.076C77.2656 135.092 77.125 135.1 76.9727 135.1C76.4805 135.1 76.1465 134.975 75.9707 134.725C75.7949 134.471 75.707 134.143 75.707 133.74V129.586H74.8574V128.725H75.707V126.973ZM82.8027 133.031C82.834 133.383 82.9219 133.652 83.0664 133.84C83.332 134.18 83.793 134.35 84.4492 134.35C84.8398 134.35 85.1836 134.266 85.4805 134.098C85.7773 133.926 85.9258 133.662 85.9258 133.307C85.9258 133.037 85.8066 132.832 85.5684 132.691C85.416 132.605 85.1152 132.506 84.666 132.393L83.8281 132.182C83.293 132.049 82.8984 131.9 82.6445 131.736C82.1914 131.451 81.9648 131.057 81.9648 130.553C81.9648 129.959 82.1777 129.479 82.6035 129.111C83.0332 128.744 83.6094 128.561 84.332 128.561C85.2773 128.561 85.959 128.838 86.377 129.393C86.6387 129.744 86.7656 130.123 86.7578 130.529H85.7617C85.7422 130.291 85.6582 130.074 85.5098 129.879C85.2676 129.602 84.8477 129.463 84.25 129.463C83.8516 129.463 83.5488 129.539 83.3418 129.691C83.1387 129.844 83.0371 130.045 83.0371 130.295C83.0371 130.568 83.1719 130.787 83.4414 130.951C83.5977 131.049 83.8281 131.135 84.1328 131.209L84.8301 131.379C85.5879 131.562 86.0957 131.74 86.3535 131.912C86.7637 132.182 86.9688 132.605 86.9688 133.184C86.9688 133.742 86.7559 134.225 86.3301 134.631C85.9082 135.037 85.2637 135.24 84.3965 135.24C83.4629 135.24 82.8008 135.029 82.4102 134.607C82.0234 134.182 81.8164 133.656 81.7891 133.031H82.8027ZM90.7891 128.584C91.2344 128.584 91.666 128.689 92.084 128.9C92.502 129.107 92.8203 129.377 93.0391 129.709C93.25 130.025 93.3906 130.395 93.4609 130.816C93.5234 131.105 93.5547 131.566 93.5547 132.199H88.9551C88.9746 132.836 89.125 133.348 89.4062 133.734C89.6875 134.117 90.123 134.309 90.7129 134.309C91.2637 134.309 91.7031 134.127 92.0312 133.764C92.2188 133.553 92.3516 133.309 92.4297 133.031H93.4668C93.4395 133.262 93.3477 133.52 93.1914 133.805C93.0391 134.086 92.8672 134.316 92.6758 134.496C92.3555 134.809 91.959 135.02 91.4863 135.129C91.2324 135.191 90.9453 135.223 90.625 135.223C89.8438 135.223 89.1816 134.939 88.6387 134.373C88.0957 133.803 87.8242 133.006 87.8242 131.982C87.8242 130.975 88.0977 130.156 88.6445 129.527C89.1914 128.898 89.9062 128.584 90.7891 128.584ZM92.4707 131.361C92.4277 130.904 92.3281 130.539 92.1719 130.266C91.8828 129.758 91.4004 129.504 90.7246 129.504C90.2402 129.504 89.834 129.68 89.5059 130.031C89.1777 130.379 89.0039 130.822 88.9844 131.361H92.4707ZM94.8848 128.725H95.8867V129.809C95.9688 129.598 96.1699 129.342 96.4902 129.041C96.8105 128.736 97.1797 128.584 97.5977 128.584C97.6172 128.584 97.6504 128.586 97.6973 128.59C97.7441 128.594 97.8242 128.602 97.9375 128.613V129.727C97.875 129.715 97.8164 129.707 97.7617 129.703C97.7109 129.699 97.6543 129.697 97.5918 129.697C97.0605 129.697 96.6523 129.869 96.3672 130.213C96.082 130.553 95.9395 130.945 95.9395 131.391V135H94.8848V128.725ZM99.3672 128.725L101.043 133.834L102.795 128.725H103.949L101.582 135H100.457L98.1426 128.725H99.3672ZM104.852 128.754H105.924V135H104.852V128.754ZM104.852 126.393H105.924V127.588H104.852V126.393ZM109.943 128.543C110.65 128.543 111.225 128.715 111.666 129.059C112.111 129.402 112.379 129.994 112.469 130.834H111.443C111.381 130.447 111.238 130.127 111.016 129.873C110.793 129.615 110.436 129.486 109.943 129.486C109.271 129.486 108.791 129.814 108.502 130.471C108.314 130.896 108.221 131.422 108.221 132.047C108.221 132.676 108.354 133.205 108.619 133.635C108.885 134.064 109.303 134.279 109.873 134.279C110.311 134.279 110.656 134.146 110.91 133.881C111.168 133.611 111.346 133.244 111.443 132.779H112.469C112.352 133.611 112.059 134.221 111.59 134.607C111.121 134.99 110.521 135.182 109.791 135.182C108.971 135.182 108.316 134.883 107.828 134.285C107.34 133.684 107.096 132.934 107.096 132.035C107.096 130.934 107.363 130.076 107.898 129.463C108.434 128.85 109.115 128.543 109.943 128.543ZM116.137 128.584C116.582 128.584 117.014 128.689 117.432 128.9C117.85 129.107 118.168 129.377 118.387 129.709C118.598 130.025 118.738 130.395 118.809 130.816C118.871 131.105 118.902 131.566 118.902 132.199H114.303C114.322 132.836 114.473 133.348 114.754 133.734C115.035 134.117 115.471 134.309 116.061 134.309C116.611 134.309 117.051 134.127 117.379 133.764C117.566 133.553 117.699 133.309 117.777 133.031H118.814C118.787 133.262 118.695 133.52 118.539 133.805C118.387 134.086 118.215 134.316 118.023 134.496C117.703 134.809 117.307 135.02 116.834 135.129C116.58 135.191 116.293 135.223 115.973 135.223C115.191 135.223 114.529 134.939 113.986 134.373C113.443 133.803 113.172 133.006 113.172 131.982C113.172 130.975 113.445 130.156 113.992 129.527C114.539 128.898 115.254 128.584 116.137 128.584ZM117.818 131.361C117.775 130.904 117.676 130.539 117.52 130.266C117.23 129.758 116.748 129.504 116.072 129.504C115.588 129.504 115.182 129.68 114.854 130.031C114.525 130.379 114.352 130.822 114.332 131.361H117.818ZM126.191 134.291C126.684 134.291 127.092 134.086 127.416 133.676C127.744 133.262 127.908 132.645 127.908 131.824C127.908 131.324 127.836 130.895 127.691 130.535C127.418 129.844 126.918 129.498 126.191 129.498C125.461 129.498 124.961 129.863 124.691 130.594C124.547 130.984 124.475 131.48 124.475 132.082C124.475 132.566 124.547 132.979 124.691 133.318C124.965 133.967 125.465 134.291 126.191 134.291ZM123.461 128.754H124.486V129.586C124.697 129.301 124.928 129.08 125.178 128.924C125.533 128.689 125.951 128.572 126.432 128.572C127.143 128.572 127.746 128.846 128.242 129.393C128.738 129.936 128.986 130.713 128.986 131.725C128.986 133.092 128.629 134.068 127.914 134.654C127.461 135.025 126.934 135.211 126.332 135.211C125.859 135.211 125.463 135.107 125.143 134.9C124.955 134.783 124.746 134.582 124.516 134.297V137.502H123.461V128.754ZM130.252 126.393H131.307V135H130.252V126.393ZM133.703 133.33C133.703 133.635 133.814 133.875 134.037 134.051C134.26 134.227 134.523 134.314 134.828 134.314C135.199 134.314 135.559 134.229 135.906 134.057C136.492 133.771 136.785 133.305 136.785 132.656V131.807C136.656 131.889 136.49 131.957 136.287 132.012C136.084 132.066 135.885 132.105 135.689 132.129L135.051 132.211C134.668 132.262 134.381 132.342 134.189 132.451C133.865 132.635 133.703 132.928 133.703 133.33ZM136.258 131.197C136.5 131.166 136.662 131.064 136.744 130.893C136.791 130.799 136.814 130.664 136.814 130.488C136.814 130.129 136.686 129.869 136.428 129.709C136.174 129.545 135.809 129.463 135.332 129.463C134.781 129.463 134.391 129.611 134.16 129.908C134.031 130.072 133.947 130.316 133.908 130.641H132.924C132.943 129.867 133.193 129.33 133.674 129.029C134.158 128.725 134.719 128.572 135.355 128.572C136.094 128.572 136.693 128.713 137.154 128.994C137.611 129.275 137.84 129.713 137.84 130.307V133.922C137.84 134.031 137.861 134.119 137.904 134.186C137.951 134.252 138.047 134.285 138.191 134.285C138.238 134.285 138.291 134.283 138.35 134.279C138.408 134.271 138.471 134.262 138.537 134.25V135.029C138.373 135.076 138.248 135.105 138.162 135.117C138.076 135.129 137.959 135.135 137.811 135.135C137.447 135.135 137.184 135.006 137.02 134.748C136.934 134.611 136.873 134.418 136.838 134.168C136.623 134.449 136.314 134.693 135.912 134.9C135.51 135.107 135.066 135.211 134.582 135.211C134 135.211 133.523 135.035 133.152 134.684C132.785 134.328 132.602 133.885 132.602 133.354C132.602 132.771 132.783 132.32 133.146 132C133.51 131.68 133.986 131.482 134.576 131.408L136.258 131.197ZM139.574 128.725H140.576V129.615C140.873 129.248 141.188 128.984 141.52 128.824C141.852 128.664 142.221 128.584 142.627 128.584C143.518 128.584 144.119 128.895 144.432 129.516C144.604 129.855 144.689 130.342 144.689 130.975V135H143.617V131.045C143.617 130.662 143.561 130.354 143.447 130.119C143.26 129.729 142.92 129.533 142.428 129.533C142.178 129.533 141.973 129.559 141.812 129.609C141.523 129.695 141.27 129.867 141.051 130.125C140.875 130.332 140.76 130.547 140.705 130.77C140.654 130.988 140.629 131.303 140.629 131.713V135H139.574V128.725ZM150.303 126.393L151.926 133.395L153.871 126.393H155.137L157.082 133.395L158.705 126.393H159.982L157.721 135H156.496L154.51 127.863L152.512 135H151.287L149.037 126.393H150.303ZM160.926 128.754H161.998V135H160.926V128.754ZM160.926 126.393H161.998V127.588H160.926V126.393ZM163.809 126.973H164.875V128.725H165.877V129.586H164.875V133.682C164.875 133.9 164.949 134.047 165.098 134.121C165.18 134.164 165.316 134.186 165.508 134.186C165.559 134.186 165.613 134.186 165.672 134.186C165.73 134.182 165.799 134.176 165.877 134.168V135C165.756 135.035 165.629 135.061 165.496 135.076C165.367 135.092 165.227 135.1 165.074 135.1C164.582 135.1 164.248 134.975 164.072 134.725C163.896 134.471 163.809 134.143 163.809 133.74V129.586H162.959V128.725H163.809V126.973ZM166.938 126.363H167.992V129.574C168.242 129.258 168.467 129.035 168.666 128.906C169.006 128.684 169.43 128.572 169.938 128.572C170.848 128.572 171.465 128.891 171.789 129.527C171.965 129.875 172.053 130.357 172.053 130.975V135H170.969V131.045C170.969 130.584 170.91 130.246 170.793 130.031C170.602 129.688 170.242 129.516 169.715 129.516C169.277 129.516 168.881 129.666 168.525 129.967C168.17 130.268 167.992 130.836 167.992 131.672V135H166.938V126.363ZM176.875 126.363H177.9V129.486C178.131 129.186 178.406 128.957 178.727 128.801C179.047 128.641 179.395 128.561 179.77 128.561C180.551 128.561 181.184 128.83 181.668 129.369C182.156 129.904 182.4 130.695 182.4 131.742C182.4 132.734 182.16 133.559 181.68 134.215C181.199 134.871 180.533 135.199 179.682 135.199C179.205 135.199 178.803 135.084 178.475 134.854C178.279 134.717 178.07 134.498 177.848 134.197V135H176.875V126.363ZM179.617 134.268C180.188 134.268 180.613 134.041 180.895 133.588C181.18 133.135 181.322 132.537 181.322 131.795C181.322 131.135 181.18 130.588 180.895 130.154C180.613 129.721 180.197 129.504 179.646 129.504C179.166 129.504 178.744 129.682 178.381 130.037C178.021 130.393 177.842 130.979 177.842 131.795C177.842 132.385 177.916 132.863 178.064 133.23C178.342 133.922 178.859 134.268 179.617 134.268ZM186.25 128.584C186.695 128.584 187.127 128.689 187.545 128.9C187.963 129.107 188.281 129.377 188.5 129.709C188.711 130.025 188.852 130.395 188.922 130.816C188.984 131.105 189.016 131.566 189.016 132.199H184.416C184.436 132.836 184.586 133.348 184.867 133.734C185.148 134.117 185.584 134.309 186.174 134.309C186.725 134.309 187.164 134.127 187.492 133.764C187.68 133.553 187.812 133.309 187.891 133.031H188.928C188.9 133.262 188.809 133.52 188.652 133.805C188.5 134.086 188.328 134.316 188.137 134.496C187.816 134.809 187.42 135.02 186.947 135.129C186.693 135.191 186.406 135.223 186.086 135.223C185.305 135.223 184.643 134.939 184.1 134.373C183.557 133.803 183.285 133.006 183.285 131.982C183.285 130.975 183.559 130.156 184.105 129.527C184.652 128.898 185.367 128.584 186.25 128.584ZM187.932 131.361C187.889 130.904 187.789 130.539 187.633 130.266C187.344 129.758 186.861 129.504 186.186 129.504C185.701 129.504 185.295 129.68 184.967 130.031C184.639 130.379 184.465 130.822 184.445 131.361H187.932ZM190.943 133.031C190.975 133.383 191.062 133.652 191.207 133.84C191.473 134.18 191.934 134.35 192.59 134.35C192.98 134.35 193.324 134.266 193.621 134.098C193.918 133.926 194.066 133.662 194.066 133.307C194.066 133.037 193.947 132.832 193.709 132.691C193.557 132.605 193.256 132.506 192.807 132.393L191.969 132.182C191.434 132.049 191.039 131.9 190.785 131.736C190.332 131.451 190.105 131.057 190.105 130.553C190.105 129.959 190.318 129.479 190.744 129.111C191.174 128.744 191.75 128.561 192.473 128.561C193.418 128.561 194.1 128.838 194.518 129.393C194.779 129.744 194.906 130.123 194.898 130.529H193.902C193.883 130.291 193.799 130.074 193.65 129.879C193.408 129.602 192.988 129.463 192.391 129.463C191.992 129.463 191.689 129.539 191.482 129.691C191.279 129.844 191.178 130.045 191.178 130.295C191.178 130.568 191.312 130.787 191.582 130.951C191.738 131.049 191.969 131.135 192.273 131.209L192.971 131.379C193.729 131.562 194.236 131.74 194.494 131.912C194.904 132.182 195.109 132.605 195.109 133.184C195.109 133.742 194.896 134.225 194.471 134.631C194.049 135.037 193.404 135.24 192.537 135.24C191.604 135.24 190.941 135.029 190.551 134.607C190.164 134.182 189.957 133.656 189.93 133.031H190.943ZM196.527 126.973H197.594V128.725H198.596V129.586H197.594V133.682C197.594 133.9 197.668 134.047 197.816 134.121C197.898 134.164 198.035 134.186 198.227 134.186C198.277 134.186 198.332 134.186 198.391 134.186C198.449 134.182 198.518 134.176 198.596 134.168V135C198.475 135.035 198.348 135.061 198.215 135.076C198.086 135.092 197.945 135.1 197.793 135.1C197.301 135.1 196.967 134.975 196.791 134.725C196.615 134.471 196.527 134.143 196.527 133.74V129.586H195.678V128.725H196.527V126.973ZM29.4004 150.031C29.4316 150.383 29.5195 150.652 29.6641 150.84C29.9297 151.18 30.3906 151.35 31.0469 151.35C31.4375 151.35 31.7812 151.266 32.0781 151.098C32.375 150.926 32.5234 150.662 32.5234 150.307C32.5234 150.037 32.4043 149.832 32.166 149.691C32.0137 149.605 31.7129 149.506 31.2637 149.393L30.4258 149.182C29.8906 149.049 29.4961 148.9 29.2422 148.736C28.7891 148.451 28.5625 148.057 28.5625 147.553C28.5625 146.959 28.7754 146.479 29.2012 146.111C29.6309 145.744 30.207 145.561 30.9297 145.561C31.875 145.561 32.5566 145.838 32.9746 146.393C33.2363 146.744 33.3633 147.123 33.3555 147.529H32.3594C32.3398 147.291 32.2559 147.074 32.1074 146.879C31.8652 146.602 31.4453 146.463 30.8477 146.463C30.4492 146.463 30.1465 146.539 29.9395 146.691C29.7363 146.844 29.6348 147.045 29.6348 147.295C29.6348 147.568 29.7695 147.787 30.0391 147.951C30.1953 148.049 30.4258 148.135 30.7305 148.209L31.4277 148.379C32.1855 148.562 32.6934 148.74 32.9512 148.912C33.3613 149.182 33.5664 149.605 33.5664 150.184C33.5664 150.742 33.3535 151.225 32.9277 151.631C32.5059 152.037 31.8613 152.24 30.9941 152.24C30.0605 152.24 29.3984 152.029 29.0078 151.607C28.6211 151.182 28.4141 150.656 28.3867 150.031H29.4004ZM37.3867 145.584C37.832 145.584 38.2637 145.689 38.6816 145.9C39.0996 146.107 39.418 146.377 39.6367 146.709C39.8477 147.025 39.9883 147.395 40.0586 147.816C40.1211 148.105 40.1523 148.566 40.1523 149.199H35.5527C35.5723 149.836 35.7227 150.348 36.0039 150.734C36.2852 151.117 36.7207 151.309 37.3105 151.309C37.8613 151.309 38.3008 151.127 38.6289 150.764C38.8164 150.553 38.9492 150.309 39.0273 150.031H40.0645C40.0371 150.262 39.9453 150.52 39.7891 150.805C39.6367 151.086 39.4648 151.316 39.2734 151.496C38.9531 151.809 38.5566 152.02 38.084 152.129C37.8301 152.191 37.543 152.223 37.2227 152.223C36.4414 152.223 35.7793 151.939 35.2363 151.373C34.6934 150.803 34.4219 150.006 34.4219 148.982C34.4219 147.975 34.6953 147.156 35.2422 146.527C35.7891 145.898 36.5039 145.584 37.3867 145.584ZM39.0684 148.361C39.0254 147.904 38.9258 147.539 38.7695 147.266C38.4805 146.758 37.998 146.504 37.3223 146.504C36.8379 146.504 36.4316 146.68 36.1035 147.031C35.7754 147.379 35.6016 147.822 35.582 148.361H39.0684ZM41.4824 145.725H42.4844V146.809C42.5664 146.598 42.7676 146.342 43.0879 146.041C43.4082 145.736 43.7773 145.584 44.1953 145.584C44.2148 145.584 44.248 145.586 44.2949 145.59C44.3418 145.594 44.4219 145.602 44.5352 145.613V146.727C44.4727 146.715 44.4141 146.707 44.3594 146.703C44.3086 146.699 44.252 146.697 44.1895 146.697C43.6582 146.697 43.25 146.869 42.9648 147.213C42.6797 147.553 42.5371 147.945 42.5371 148.391V152H41.4824V145.725ZM45.9648 145.725L47.6406 150.834L49.3926 145.725H50.5469L48.1797 152H47.0547L44.7402 145.725H45.9648ZM51.4492 145.754H52.5215V152H51.4492V145.754ZM51.4492 143.393H52.5215V144.588H51.4492V143.393ZM56.541 145.543C57.248 145.543 57.8223 145.715 58.2637 146.059C58.709 146.402 58.9766 146.994 59.0664 147.834H58.041C57.9785 147.447 57.8359 147.127 57.6133 146.873C57.3906 146.615 57.0332 146.486 56.541 146.486C55.8691 146.486 55.3887 146.814 55.0996 147.471C54.9121 147.896 54.8184 148.422 54.8184 149.047C54.8184 149.676 54.9512 150.205 55.2168 150.635C55.4824 151.064 55.9004 151.279 56.4707 151.279C56.9082 151.279 57.2539 151.146 57.5078 150.881C57.7656 150.611 57.9434 150.244 58.041 149.779H59.0664C58.9492 150.611 58.6562 151.221 58.1875 151.607C57.7188 151.99 57.1191 152.182 56.3887 152.182C55.5684 152.182 54.9141 151.883 54.4258 151.285C53.9375 150.684 53.6934 149.934 53.6934 149.035C53.6934 147.934 53.9609 147.076 54.4961 146.463C55.0312 145.85 55.7129 145.543 56.541 145.543ZM62.7344 145.584C63.1797 145.584 63.6113 145.689 64.0293 145.9C64.4473 146.107 64.7656 146.377 64.9844 146.709C65.1953 147.025 65.3359 147.395 65.4062 147.816C65.4688 148.105 65.5 148.566 65.5 149.199H60.9004C60.9199 149.836 61.0703 150.348 61.3516 150.734C61.6328 151.117 62.0684 151.309 62.6582 151.309C63.209 151.309 63.6484 151.127 63.9766 150.764C64.1641 150.553 64.2969 150.309 64.375 150.031H65.4121C65.3848 150.262 65.293 150.52 65.1367 150.805C64.9844 151.086 64.8125 151.316 64.6211 151.496C64.3008 151.809 63.9043 152.02 63.4316 152.129C63.1777 152.191 62.8906 152.223 62.5703 152.223C61.7891 152.223 61.127 151.939 60.584 151.373C60.041 150.803 59.7695 150.006 59.7695 148.982C59.7695 147.975 60.043 147.156 60.5898 146.527C61.1367 145.898 61.8516 145.584 62.7344 145.584ZM64.416 148.361C64.373 147.904 64.2734 147.539 64.1172 147.266C63.8281 146.758 63.3457 146.504 62.6699 146.504C62.1855 146.504 61.7793 146.68 61.4512 147.031C61.123 147.379 60.9492 147.822 60.9297 148.361H64.416ZM72.7891 151.291C73.2812 151.291 73.6895 151.086 74.0137 150.676C74.3418 150.262 74.5059 149.645 74.5059 148.824C74.5059 148.324 74.4336 147.895 74.2891 147.535C74.0156 146.844 73.5156 146.498 72.7891 146.498C72.0586 146.498 71.5586 146.863 71.2891 147.594C71.1445 147.984 71.0723 148.48 71.0723 149.082C71.0723 149.566 71.1445 149.979 71.2891 150.318C71.5625 150.967 72.0625 151.291 72.7891 151.291ZM70.0586 145.754H71.084V146.586C71.2949 146.301 71.5254 146.08 71.7754 145.924C72.1309 145.689 72.5488 145.572 73.0293 145.572C73.7402 145.572 74.3438 145.846 74.8398 146.393C75.3359 146.936 75.584 147.713 75.584 148.725C75.584 150.092 75.2266 151.068 74.5117 151.654C74.0586 152.025 73.5312 152.211 72.9297 152.211C72.457 152.211 72.0605 152.107 71.7402 151.9C71.5527 151.783 71.3438 151.582 71.1133 151.297V154.502H70.0586V145.754ZM76.8496 143.393H77.9043V152H76.8496V143.393ZM80.3008 150.33C80.3008 150.635 80.4121 150.875 80.6348 151.051C80.8574 151.227 81.1211 151.314 81.4258 151.314C81.7969 151.314 82.1562 151.229 82.5039 151.057C83.0898 150.771 83.3828 150.305 83.3828 149.656V148.807C83.2539 148.889 83.0879 148.957 82.8848 149.012C82.6816 149.066 82.4824 149.105 82.2871 149.129L81.6484 149.211C81.2656 149.262 80.9785 149.342 80.7871 149.451C80.4629 149.635 80.3008 149.928 80.3008 150.33ZM82.8555 148.197C83.0977 148.166 83.2598 148.064 83.3418 147.893C83.3887 147.799 83.4121 147.664 83.4121 147.488C83.4121 147.129 83.2832 146.869 83.0254 146.709C82.7715 146.545 82.4062 146.463 81.9297 146.463C81.3789 146.463 80.9883 146.611 80.7578 146.908C80.6289 147.072 80.5449 147.316 80.5059 147.641H79.5215C79.541 146.867 79.791 146.33 80.2715 146.029C80.7559 145.725 81.3164 145.572 81.9531 145.572C82.6914 145.572 83.291 145.713 83.752 145.994C84.209 146.275 84.4375 146.713 84.4375 147.307V150.922C84.4375 151.031 84.459 151.119 84.502 151.186C84.5488 151.252 84.6445 151.285 84.7891 151.285C84.8359 151.285 84.8887 151.283 84.9473 151.279C85.0059 151.271 85.0684 151.262 85.1348 151.25V152.029C84.9707 152.076 84.8457 152.105 84.7598 152.117C84.6738 152.129 84.5566 152.135 84.4082 152.135C84.0449 152.135 83.7812 152.006 83.6172 151.748C83.5312 151.611 83.4707 151.418 83.4355 151.168C83.2207 151.449 82.9121 151.693 82.5098 151.9C82.1074 152.107 81.6641 152.211 81.1797 152.211C80.5977 152.211 80.1211 152.035 79.75 151.684C79.3828 151.328 79.1992 150.885 79.1992 150.354C79.1992 149.771 79.3809 149.32 79.7441 149C80.1074 148.68 80.584 148.482 81.1738 148.408L82.8555 148.197ZM86.1719 145.725H87.1738V146.615C87.4707 146.248 87.7852 145.984 88.1172 145.824C88.4492 145.664 88.8184 145.584 89.2246 145.584C90.1152 145.584 90.7168 145.895 91.0293 146.516C91.2012 146.855 91.2871 147.342 91.2871 147.975V152H90.2148V148.045C90.2148 147.662 90.1582 147.354 90.0449 147.119C89.8574 146.729 89.5176 146.533 89.0254 146.533C88.7754 146.533 88.5703 146.559 88.4102 146.609C88.1211 146.695 87.8672 146.867 87.6484 147.125C87.4727 147.332 87.3574 147.547 87.3027 147.77C87.252 147.988 87.2266 148.303 87.2266 148.713V152H86.1719V145.725ZM93.5605 143.393L95.1836 150.395L97.1289 143.393H98.3945L100.34 150.395L101.963 143.393H103.24L100.979 152H99.7539L97.7676 144.863L95.7695 152H94.5449L92.2949 143.393H93.5605ZM104.184 145.754H105.256V152H104.184V145.754ZM104.184 143.393H105.256V144.588H104.184V143.393ZM107.066 143.973H108.133V145.725H109.135V146.586H108.133V150.682C108.133 150.9 108.207 151.047 108.355 151.121C108.438 151.164 108.574 151.186 108.766 151.186C108.816 151.186 108.871 151.186 108.93 151.186C108.988 151.182 109.057 151.176 109.135 151.168V152C109.014 152.035 108.887 152.061 108.754 152.076C108.625 152.092 108.484 152.1 108.332 152.1C107.84 152.1 107.506 151.975 107.33 151.725C107.154 151.471 107.066 151.143 107.066 150.74V146.586H106.217V145.725H107.066V143.973ZM110.195 143.363H111.25V146.574C111.5 146.258 111.725 146.035 111.924 145.906C112.264 145.684 112.688 145.572 113.195 145.572C114.105 145.572 114.723 145.891 115.047 146.527C115.223 146.875 115.311 147.357 115.311 147.975V152H114.227V148.045C114.227 147.584 114.168 147.246 114.051 147.031C113.859 146.688 113.5 146.516 112.973 146.516C112.535 146.516 112.139 146.666 111.783 146.967C111.428 147.268 111.25 147.836 111.25 148.672V152H110.195V143.363ZM120.133 143.363H121.158V146.486C121.389 146.186 121.664 145.957 121.984 145.801C122.305 145.641 122.652 145.561 123.027 145.561C123.809 145.561 124.441 145.83 124.926 146.369C125.414 146.904 125.658 147.695 125.658 148.742C125.658 149.734 125.418 150.559 124.938 151.215C124.457 151.871 123.791 152.199 122.939 152.199C122.463 152.199 122.061 152.084 121.732 151.854C121.537 151.717 121.328 151.498 121.105 151.197V152H120.133V143.363ZM122.875 151.268C123.445 151.268 123.871 151.041 124.152 150.588C124.438 150.135 124.58 149.537 124.58 148.795C124.58 148.135 124.438 147.588 124.152 147.154C123.871 146.721 123.455 146.504 122.904 146.504C122.424 146.504 122.002 146.682 121.639 147.037C121.279 147.393 121.1 147.979 121.1 148.795C121.1 149.385 121.174 149.863 121.322 150.23C121.6 150.922 122.117 151.268 122.875 151.268ZM129.508 145.584C129.953 145.584 130.385 145.689 130.803 145.9C131.221 146.107 131.539 146.377 131.758 146.709C131.969 147.025 132.109 147.395 132.18 147.816C132.242 148.105 132.273 148.566 132.273 149.199H127.674C127.693 149.836 127.844 150.348 128.125 150.734C128.406 151.117 128.842 151.309 129.432 151.309C129.982 151.309 130.422 151.127 130.75 150.764C130.938 150.553 131.07 150.309 131.148 150.031H132.186C132.158 150.262 132.066 150.52 131.91 150.805C131.758 151.086 131.586 151.316 131.395 151.496C131.074 151.809 130.678 152.02 130.205 152.129C129.951 152.191 129.664 152.223 129.344 152.223C128.562 152.223 127.9 151.939 127.357 151.373C126.814 150.803 126.543 150.006 126.543 148.982C126.543 147.975 126.816 147.156 127.363 146.527C127.91 145.898 128.625 145.584 129.508 145.584ZM131.189 148.361C131.146 147.904 131.047 147.539 130.891 147.266C130.602 146.758 130.119 146.504 129.443 146.504C128.959 146.504 128.553 146.68 128.225 147.031C127.896 147.379 127.723 147.822 127.703 148.361H131.189ZM134.201 150.031C134.232 150.383 134.32 150.652 134.465 150.84C134.73 151.18 135.191 151.35 135.848 151.35C136.238 151.35 136.582 151.266 136.879 151.098C137.176 150.926 137.324 150.662 137.324 150.307C137.324 150.037 137.205 149.832 136.967 149.691C136.814 149.605 136.514 149.506 136.064 149.393L135.227 149.182C134.691 149.049 134.297 148.9 134.043 148.736C133.59 148.451 133.363 148.057 133.363 147.553C133.363 146.959 133.576 146.479 134.002 146.111C134.432 145.744 135.008 145.561 135.73 145.561C136.676 145.561 137.357 145.838 137.775 146.393C138.037 146.744 138.164 147.123 138.156 147.529H137.16C137.141 147.291 137.057 147.074 136.908 146.879C136.666 146.602 136.246 146.463 135.648 146.463C135.25 146.463 134.947 146.539 134.74 146.691C134.537 146.844 134.436 147.045 134.436 147.295C134.436 147.568 134.57 147.787 134.84 147.951C134.996 148.049 135.227 148.135 135.531 148.209L136.229 148.379C136.986 148.562 137.494 148.74 137.752 148.912C138.162 149.182 138.367 149.605 138.367 150.184C138.367 150.742 138.154 151.225 137.729 151.631C137.307 152.037 136.662 152.24 135.795 152.24C134.861 152.24 134.199 152.029 133.809 151.607C133.422 151.182 133.215 150.656 133.188 150.031H134.201ZM139.785 143.973H140.852V145.725H141.854V146.586H140.852V150.682C140.852 150.9 140.926 151.047 141.074 151.121C141.156 151.164 141.293 151.186 141.484 151.186C141.535 151.186 141.59 151.186 141.648 151.186C141.707 151.182 141.775 151.176 141.854 151.168V152C141.732 152.035 141.605 152.061 141.473 152.076C141.344 152.092 141.203 152.1 141.051 152.1C140.559 152.1 140.225 151.975 140.049 151.725C139.873 151.471 139.785 151.143 139.785 150.74V146.586H138.936V145.725H139.785V143.973ZM146.881 150.031C146.912 150.383 147 150.652 147.145 150.84C147.41 151.18 147.871 151.35 148.527 151.35C148.918 151.35 149.262 151.266 149.559 151.098C149.855 150.926 150.004 150.662 150.004 150.307C150.004 150.037 149.885 149.832 149.646 149.691C149.494 149.605 149.193 149.506 148.744 149.393L147.906 149.182C147.371 149.049 146.977 148.9 146.723 148.736C146.27 148.451 146.043 148.057 146.043 147.553C146.043 146.959 146.256 146.479 146.682 146.111C147.111 145.744 147.688 145.561 148.41 145.561C149.355 145.561 150.037 145.838 150.455 146.393C150.717 146.744 150.844 147.123 150.836 147.529H149.84C149.82 147.291 149.736 147.074 149.588 146.879C149.346 146.602 148.926 146.463 148.328 146.463C147.93 146.463 147.627 146.539 147.42 146.691C147.217 146.844 147.115 147.045 147.115 147.295C147.115 147.568 147.25 147.787 147.52 147.951C147.676 148.049 147.906 148.135 148.211 148.209L148.908 148.379C149.666 148.562 150.174 148.74 150.432 148.912C150.842 149.182 151.047 149.605 151.047 150.184C151.047 150.742 150.834 151.225 150.408 151.631C149.986 152.037 149.342 152.24 148.475 152.24C147.541 152.24 146.879 152.029 146.488 151.607C146.102 151.182 145.895 150.656 145.867 150.031H146.881ZM154.867 145.584C155.312 145.584 155.744 145.689 156.162 145.9C156.58 146.107 156.898 146.377 157.117 146.709C157.328 147.025 157.469 147.395 157.539 147.816C157.602 148.105 157.633 148.566 157.633 149.199H153.033C153.053 149.836 153.203 150.348 153.484 150.734C153.766 151.117 154.201 151.309 154.791 151.309C155.342 151.309 155.781 151.127 156.109 150.764C156.297 150.553 156.43 150.309 156.508 150.031H157.545C157.518 150.262 157.426 150.52 157.27 150.805C157.117 151.086 156.945 151.316 156.754 151.496C156.434 151.809 156.037 152.02 155.564 152.129C155.311 152.191 155.023 152.223 154.703 152.223C153.922 152.223 153.26 151.939 152.717 151.373C152.174 150.803 151.902 150.006 151.902 148.982C151.902 147.975 152.176 147.156 152.723 146.527C153.27 145.898 153.984 145.584 154.867 145.584ZM156.549 148.361C156.506 147.904 156.406 147.539 156.25 147.266C155.961 146.758 155.479 146.504 154.803 146.504C154.318 146.504 153.912 146.68 153.584 147.031C153.256 147.379 153.082 147.822 153.062 148.361H156.549ZM158.963 145.725H159.965V146.809C160.047 146.598 160.248 146.342 160.568 146.041C160.889 145.736 161.258 145.584 161.676 145.584C161.695 145.584 161.729 145.586 161.775 145.59C161.822 145.594 161.902 145.602 162.016 145.613V146.727C161.953 146.715 161.895 146.707 161.84 146.703C161.789 146.699 161.732 146.697 161.67 146.697C161.139 146.697 160.73 146.869 160.445 147.213C160.16 147.553 160.018 147.945 160.018 148.391V152H158.963V145.725ZM163.445 145.725L165.121 150.834L166.873 145.725H168.027L165.66 152H164.535L162.221 145.725H163.445ZM168.93 145.754H170.002V152H168.93V145.754ZM168.93 143.393H170.002V144.588H168.93V143.393ZM174.021 145.543C174.729 145.543 175.303 145.715 175.744 146.059C176.189 146.402 176.457 146.994 176.547 147.834H175.521C175.459 147.447 175.316 147.127 175.094 146.873C174.871 146.615 174.514 146.486 174.021 146.486C173.35 146.486 172.869 146.814 172.58 147.471C172.393 147.896 172.299 148.422 172.299 149.047C172.299 149.676 172.432 150.205 172.697 150.635C172.963 151.064 173.381 151.279 173.951 151.279C174.389 151.279 174.734 151.146 174.988 150.881C175.246 150.611 175.424 150.244 175.521 149.779H176.547C176.43 150.611 176.137 151.221 175.668 151.607C175.199 151.99 174.6 152.182 173.869 152.182C173.049 152.182 172.395 151.883 171.906 151.285C171.418 150.684 171.174 149.934 171.174 149.035C171.174 147.934 171.441 147.076 171.977 146.463C172.512 145.85 173.193 145.543 174.021 145.543ZM180.215 145.584C180.66 145.584 181.092 145.689 181.51 145.9C181.928 146.107 182.246 146.377 182.465 146.709C182.676 147.025 182.816 147.395 182.887 147.816C182.949 148.105 182.98 148.566 182.98 149.199H178.381C178.4 149.836 178.551 150.348 178.832 150.734C179.113 151.117 179.549 151.309 180.139 151.309C180.689 151.309 181.129 151.127 181.457 150.764C181.645 150.553 181.777 150.309 181.855 150.031H182.893C182.865 150.262 182.773 150.52 182.617 150.805C182.465 151.086 182.293 151.316 182.102 151.496C181.781 151.809 181.385 152.02 180.912 152.129C180.658 152.191 180.371 152.223 180.051 152.223C179.27 152.223 178.607 151.939 178.064 151.373C177.521 150.803 177.25 150.006 177.25 148.982C177.25 147.975 177.523 147.156 178.07 146.527C178.617 145.898 179.332 145.584 180.215 145.584ZM181.896 148.361C181.854 147.904 181.754 147.539 181.598 147.266C181.309 146.758 180.826 146.504 180.15 146.504C179.666 146.504 179.26 146.68 178.932 147.031C178.604 147.379 178.43 147.822 178.41 148.361H181.896Z" fill="#E0E0E0"/>
<path d="M37 352C37 352 83.4694 276.587 91.9847 268.293C100.5 260 119.5 307.5 127.061 303.972C134.622 300.443 192 207 192 207" stroke="#E0E0E0" stroke-width="3" stroke-linecap="round"/>
<g filter="url(#filter0_d_2001_476)">
<circle cx="191.624" cy="206.624" r="8.62366" fill="#E0E0E0"/>
</g>
<circle cx="191.624" cy="206.624" r="7.5457" fill="#676766"/>
<defs>
<filter id="filter0_d_2001_476" x="175" y="190" width="33.2473" height="33.2473" filterUnits="userSpaceOnUse" color-interpolation-filters="sRGB">
<feFlood flood-opacity="0" result="BackgroundImageFix"/>
<feColorMatrix in="SourceAlpha" type="matrix" values="0 0 0 0 0 0 0 0 0 0 0 0 0 0 0 0 0 0 127 0" result="hardAlpha"/>
<feMorphology radius="4" operator="dilate" in="SourceAlpha" result="effect1_dropShadow_2001_476"/>
<feOffset/>
<feGaussianBlur stdDeviation="2"/>
<feComposite in2="hardAlpha" operator="out"/>
<feColorMatrix type="matrix" values="0 0 0 0 0.403922 0 0 0 0 0.403922 0 0 0 0 0.4 0 0 0 0.1 0"/>
<feBlend mode="normal" in2="BackgroundImageFix" result="effect1_dropShadow_2001_476"/>
<feBlend mode="normal" in="SourceGraphic" in2="effect1_dropShadow_2001_476" result="shape"/>
</filter>
</defs>
</svg>
