<svg width="277" height="322" viewBox="0 0 277 322" fill="none" xmlns="http://www.w3.org/2000/svg">
<g filter="url(#filter0_d_2001_523)">
<path d="M22 38C22 26.9543 30.9543 18 42 18H235C246.046 18 255 26.9543 255 38V296H22V38Z" fill="white"/>
</g>
<path d="M51.3457 51.0488H49.1719V55H47.1143V44.9238H52.0566C52.763 44.9375 53.3053 45.0241 53.6836 45.1836C54.0664 45.3431 54.39 45.5778 54.6543 45.8877C54.873 46.1429 55.0462 46.4255 55.1738 46.7354C55.3014 47.0452 55.3652 47.3984 55.3652 47.7949C55.3652 48.2734 55.2445 48.7451 55.0029 49.21C54.7614 49.6702 54.3626 49.9961 53.8066 50.1875C54.2715 50.3743 54.5996 50.641 54.791 50.9873C54.987 51.3291 55.085 51.8532 55.085 52.5596V53.2363C55.085 53.6966 55.1032 54.0088 55.1396 54.1729C55.1943 54.4326 55.3219 54.624 55.5225 54.7471V55H53.2051C53.1413 54.7767 53.0957 54.5967 53.0684 54.46C53.0137 54.1774 52.984 53.888 52.9795 53.5918L52.9658 52.6553C52.9567 52.0127 52.8382 51.5843 52.6104 51.3701C52.387 51.1559 51.9655 51.0488 51.3457 51.0488ZM52.624 49.2168C53.0433 49.0254 53.2529 48.6471 53.2529 48.082C53.2529 47.4714 53.0501 47.0612 52.6445 46.8516C52.4167 46.7331 52.0749 46.6738 51.6191 46.6738H49.1719V49.3809H51.5576C52.0316 49.3809 52.387 49.3262 52.624 49.2168ZM63.4043 52.8125C63.3542 53.2546 63.124 53.7035 62.7139 54.1592C62.0758 54.8838 61.1826 55.2461 60.0342 55.2461C59.0863 55.2461 58.25 54.9408 57.5254 54.3301C56.8008 53.7194 56.4385 52.7259 56.4385 51.3496C56.4385 50.0599 56.7643 49.071 57.416 48.3828C58.0723 47.6947 58.9222 47.3506 59.9658 47.3506C60.5856 47.3506 61.1439 47.4668 61.6406 47.6992C62.1374 47.9316 62.5475 48.2985 62.8711 48.7998C63.1628 49.2419 63.3519 49.7546 63.4385 50.3379C63.4886 50.6797 63.5091 51.1719 63.5 51.8145H58.4004C58.4277 52.5618 58.6624 53.0859 59.1045 53.3867C59.3734 53.5736 59.6969 53.667 60.0752 53.667C60.4762 53.667 60.8021 53.5531 61.0527 53.3252C61.1895 53.2021 61.3102 53.0312 61.415 52.8125H63.4043ZM61.4766 50.5293C61.4447 50.0143 61.2874 49.6247 61.0049 49.3604C60.7269 49.0915 60.3805 48.957 59.9658 48.957C59.5146 48.957 59.1637 49.0983 58.9131 49.3809C58.667 49.6634 58.512 50.0462 58.4482 50.5293H61.4766ZM69.9531 47.8906C70.5365 48.2643 70.8714 48.9069 70.958 49.8184H69.0098C68.9824 49.5677 68.9118 49.3695 68.7979 49.2236C68.5837 48.9593 68.2191 48.8271 67.7041 48.8271C67.2803 48.8271 66.9772 48.8932 66.7949 49.0254C66.6172 49.1576 66.5283 49.3125 66.5283 49.4902C66.5283 49.7135 66.624 49.8753 66.8154 49.9756C67.0068 50.0804 67.6836 50.2604 68.8457 50.5156C69.6204 50.6979 70.2015 50.9736 70.5889 51.3428C70.9717 51.7165 71.1631 52.1836 71.1631 52.7441C71.1631 53.4824 70.8874 54.0863 70.3359 54.5557C69.7891 55.0205 68.9414 55.2529 67.793 55.2529C66.6217 55.2529 65.7559 55.0068 65.1953 54.5146C64.6393 54.0179 64.3613 53.3867 64.3613 52.6211H66.3369C66.3779 52.9674 66.4668 53.2135 66.6035 53.3594C66.8451 53.6191 67.2917 53.749 67.9434 53.749C68.3262 53.749 68.6292 53.6921 68.8525 53.5781C69.0804 53.4642 69.1943 53.2933 69.1943 53.0654C69.1943 52.8467 69.1032 52.6803 68.9209 52.5664C68.7386 52.4525 68.0618 52.2565 66.8906 51.9785C66.0475 51.7689 65.4528 51.5068 65.1064 51.1924C64.7601 50.8825 64.5869 50.4359 64.5869 49.8525C64.5869 49.1644 64.8558 48.5742 65.3936 48.082C65.9359 47.5853 66.6969 47.3369 67.6768 47.3369C68.6064 47.3369 69.3652 47.5215 69.9531 47.8906ZM78.8262 48.4922C79.4551 49.2806 79.7695 50.2126 79.7695 51.2881C79.7695 52.3818 79.4551 53.3184 78.8262 54.0977C78.1973 54.8724 77.2425 55.2598 75.9619 55.2598C74.6813 55.2598 73.7266 54.8724 73.0977 54.0977C72.4688 53.3184 72.1543 52.3818 72.1543 51.2881C72.1543 50.2126 72.4688 49.2806 73.0977 48.4922C73.7266 47.7038 74.6813 47.3096 75.9619 47.3096C77.2425 47.3096 78.1973 47.7038 78.8262 48.4922ZM75.9551 48.957C75.3854 48.957 74.9456 49.1598 74.6357 49.5654C74.3304 49.9665 74.1777 50.5407 74.1777 51.2881C74.1777 52.0355 74.3304 52.612 74.6357 53.0176C74.9456 53.4232 75.3854 53.626 75.9551 53.626C76.5247 53.626 76.9622 53.4232 77.2676 53.0176C77.5729 52.612 77.7256 52.0355 77.7256 51.2881C77.7256 50.5407 77.5729 49.9665 77.2676 49.5654C76.9622 49.1598 76.5247 48.957 75.9551 48.957ZM81.2119 44.9238H83.1602V55H81.2119V44.9238ZM84.3359 47.5488H86.5234L88.0752 53.0449L89.6611 47.5488H91.7529L89.0664 55H87.0088L84.3359 47.5488ZM99.2383 52.8125C99.1882 53.2546 98.958 53.7035 98.5479 54.1592C97.9098 54.8838 97.0166 55.2461 95.8682 55.2461C94.9202 55.2461 94.084 54.9408 93.3594 54.3301C92.6348 53.7194 92.2725 52.7259 92.2725 51.3496C92.2725 50.0599 92.5983 49.071 93.25 48.3828C93.9062 47.6947 94.7562 47.3506 95.7998 47.3506C96.4196 47.3506 96.9779 47.4668 97.4746 47.6992C97.9714 47.9316 98.3815 48.2985 98.7051 48.7998C98.9967 49.2419 99.1859 49.7546 99.2725 50.3379C99.3226 50.6797 99.3431 51.1719 99.334 51.8145H94.2344C94.2617 52.5618 94.4964 53.0859 94.9385 53.3867C95.2074 53.5736 95.5309 53.667 95.9092 53.667C96.3102 53.667 96.6361 53.5531 96.8867 53.3252C97.0234 53.2021 97.1442 53.0312 97.249 52.8125H99.2383ZM97.3105 50.5293C97.2786 50.0143 97.1214 49.6247 96.8389 49.3604C96.5609 49.0915 96.2145 48.957 95.7998 48.957C95.3486 48.957 94.9977 49.0983 94.7471 49.3809C94.501 49.6634 94.346 50.0462 94.2822 50.5293H97.3105ZM107.578 53.0449L109.116 47.5488H111.188L108.631 54.877C108.139 56.2897 107.749 57.1647 107.462 57.502C107.175 57.8438 106.601 58.0146 105.739 58.0146C105.566 58.0146 105.427 58.0124 105.322 58.0078C105.217 58.0078 105.06 58.001 104.851 57.9873V56.4287L105.097 56.4424C105.288 56.4515 105.47 56.4447 105.644 56.4219C105.817 56.3991 105.963 56.3467 106.081 56.2646C106.195 56.1872 106.3 56.0254 106.396 55.7793C106.496 55.5332 106.537 55.3828 106.519 55.3281L103.784 47.5488H105.951L107.578 53.0449ZM118.557 48.4922C119.186 49.2806 119.5 50.2126 119.5 51.2881C119.5 52.3818 119.186 53.3184 118.557 54.0977C117.928 54.8724 116.973 55.2598 115.692 55.2598C114.412 55.2598 113.457 54.8724 112.828 54.0977C112.199 53.3184 111.885 52.3818 111.885 51.2881C111.885 50.2126 112.199 49.2806 112.828 48.4922C113.457 47.7038 114.412 47.3096 115.692 47.3096C116.973 47.3096 117.928 47.7038 118.557 48.4922ZM115.686 48.957C115.116 48.957 114.676 49.1598 114.366 49.5654C114.061 49.9665 113.908 50.5407 113.908 51.2881C113.908 52.0355 114.061 52.612 114.366 53.0176C114.676 53.4232 115.116 53.626 115.686 53.626C116.255 53.626 116.693 53.4232 116.998 53.0176C117.303 52.612 117.456 52.0355 117.456 51.2881C117.456 50.5407 117.303 49.9665 116.998 49.5654C116.693 49.1598 116.255 48.957 115.686 48.957ZM125.68 53.9473C125.661 53.9701 125.616 54.0384 125.543 54.1523C125.47 54.2663 125.383 54.3665 125.283 54.4531C124.978 54.7266 124.682 54.9134 124.395 55.0137C124.112 55.1139 123.779 55.1641 123.396 55.1641C122.294 55.1641 121.551 54.7676 121.168 53.9746C120.954 53.5371 120.847 52.8923 120.847 52.04V47.5488H122.843V52.04C122.843 52.4639 122.893 52.7829 122.993 52.9971C123.171 53.3753 123.52 53.5645 124.039 53.5645C124.704 53.5645 125.16 53.2956 125.406 52.7578C125.534 52.4661 125.598 52.0811 125.598 51.6025V47.5488H127.573V55H125.68V53.9473ZM133.206 49.3467C132.422 49.3467 131.896 49.6019 131.627 50.1123C131.477 50.3994 131.401 50.8415 131.401 51.4385V55H129.439V47.5488H131.299V48.8477C131.6 48.3509 131.862 48.0114 132.085 47.8291C132.45 47.5238 132.924 47.3711 133.507 47.3711C133.543 47.3711 133.573 47.3734 133.596 47.3779C133.623 47.3779 133.68 47.3802 133.767 47.3848V49.3809C133.644 49.3672 133.534 49.3581 133.438 49.3535C133.343 49.349 133.265 49.3467 133.206 49.3467ZM142.305 44.8623V46.4482C142.195 46.4346 142.011 46.4255 141.751 46.4209C141.496 46.4118 141.318 46.4688 141.218 46.5918C141.122 46.7103 141.074 46.8424 141.074 46.9883V47.6172H142.353V48.9912H141.074V55H139.133V48.9912H138.046V47.6172H139.112V47.1387C139.112 46.3411 139.247 45.792 139.516 45.4912C139.798 45.0446 140.479 44.8213 141.56 44.8213C141.683 44.8213 141.794 44.8258 141.895 44.835C141.995 44.8395 142.132 44.8486 142.305 44.8623ZM143.754 48.3555C144.269 47.6992 145.153 47.3711 146.406 47.3711C147.222 47.3711 147.947 47.5329 148.58 47.8564C149.214 48.18 149.53 48.7907 149.53 49.6885V53.1064C149.53 53.3434 149.535 53.6305 149.544 53.9678C149.558 54.223 149.596 54.3962 149.66 54.4873C149.724 54.5785 149.82 54.6536 149.947 54.7129V55H147.828C147.769 54.8496 147.728 54.7083 147.705 54.5762C147.682 54.444 147.664 54.2936 147.65 54.125C147.382 54.4167 147.072 54.665 146.721 54.8701C146.301 55.1117 145.827 55.2324 145.299 55.2324C144.624 55.2324 144.066 55.041 143.624 54.6582C143.187 54.2708 142.968 53.724 142.968 53.0176C142.968 52.1016 143.321 51.4385 144.027 51.0283C144.415 50.805 144.984 50.6455 145.736 50.5498L146.399 50.4678C146.759 50.4222 147.017 50.3652 147.172 50.2969C147.45 50.1784 147.589 49.9938 147.589 49.7432C147.589 49.4378 147.482 49.2282 147.268 49.1143C147.058 48.9958 146.748 48.9365 146.338 48.9365C145.878 48.9365 145.552 49.0505 145.36 49.2783C145.224 49.4469 145.132 49.6748 145.087 49.9619H143.207C143.248 49.3102 143.43 48.7747 143.754 48.3555ZM145.203 53.5918C145.385 53.7422 145.609 53.8174 145.873 53.8174C146.292 53.8174 146.677 53.6943 147.028 53.4482C147.384 53.2021 147.568 52.7533 147.582 52.1016V51.377C147.459 51.4544 147.334 51.5182 147.206 51.5684C147.083 51.6139 146.912 51.6572 146.693 51.6982L146.256 51.7803C145.846 51.8532 145.552 51.9421 145.374 52.0469C145.073 52.2246 144.923 52.5003 144.923 52.874C144.923 53.2067 145.016 53.446 145.203 53.5918ZM156.4 47.8906C156.984 48.2643 157.319 48.9069 157.405 49.8184H155.457C155.43 49.5677 155.359 49.3695 155.245 49.2236C155.031 48.9593 154.666 48.8271 154.151 48.8271C153.728 48.8271 153.424 48.8932 153.242 49.0254C153.064 49.1576 152.976 49.3125 152.976 49.4902C152.976 49.7135 153.071 49.8753 153.263 49.9756C153.454 50.0804 154.131 50.2604 155.293 50.5156C156.068 50.6979 156.649 50.9736 157.036 51.3428C157.419 51.7165 157.61 52.1836 157.61 52.7441C157.61 53.4824 157.335 54.0863 156.783 54.5557C156.236 55.0205 155.389 55.2529 154.24 55.2529C153.069 55.2529 152.203 55.0068 151.643 54.5146C151.087 54.0179 150.809 53.3867 150.809 52.6211H152.784C152.825 52.9674 152.914 53.2135 153.051 53.3594C153.292 53.6191 153.739 53.749 154.391 53.749C154.773 53.749 155.076 53.6921 155.3 53.5781C155.528 53.4642 155.642 53.2933 155.642 53.0654C155.642 52.8467 155.55 52.6803 155.368 52.5664C155.186 52.4525 154.509 52.2565 153.338 51.9785C152.495 51.7689 151.9 51.5068 151.554 51.1924C151.207 50.8825 151.034 50.4359 151.034 49.8525C151.034 49.1644 151.303 48.5742 151.841 48.082C152.383 47.5853 153.144 47.3369 154.124 47.3369C155.054 47.3369 155.812 47.5215 156.4 47.8906ZM162.471 53.6123V55.0684L161.548 55.1025C160.627 55.1344 159.998 54.9749 159.661 54.624C159.442 54.4007 159.333 54.0566 159.333 53.5918V49.0049H158.294V47.6172H159.333V45.5391H161.261V47.6172H162.471V49.0049H161.261V52.9424C161.261 53.2477 161.299 53.4391 161.377 53.5166C161.454 53.5895 161.691 53.626 162.088 53.626C162.147 53.626 162.209 53.626 162.272 53.626C162.341 53.6214 162.407 53.6169 162.471 53.6123ZM170.1 52.8125C170.049 53.2546 169.819 53.7035 169.409 54.1592C168.771 54.8838 167.878 55.2461 166.729 55.2461C165.782 55.2461 164.945 54.9408 164.221 54.3301C163.496 53.7194 163.134 52.7259 163.134 51.3496C163.134 50.0599 163.46 49.071 164.111 48.3828C164.768 47.6947 165.618 47.3506 166.661 47.3506C167.281 47.3506 167.839 47.4668 168.336 47.6992C168.833 47.9316 169.243 48.2985 169.566 48.7998C169.858 49.2419 170.047 49.7546 170.134 50.3379C170.184 50.6797 170.204 51.1719 170.195 51.8145H165.096C165.123 52.5618 165.358 53.0859 165.8 53.3867C166.069 53.5736 166.392 53.667 166.771 53.667C167.172 53.667 167.497 53.5531 167.748 53.3252C167.885 53.2021 168.006 53.0312 168.11 52.8125H170.1ZM168.172 50.5293C168.14 50.0143 167.983 49.6247 167.7 49.3604C167.422 49.0915 167.076 48.957 166.661 48.957C166.21 48.957 165.859 49.0983 165.608 49.3809C165.362 49.6634 165.207 50.0462 165.144 50.5293H168.172ZM175.261 49.3467C174.477 49.3467 173.951 49.6019 173.682 50.1123C173.531 50.3994 173.456 50.8415 173.456 51.4385V55H171.494V47.5488H173.354V48.8477C173.654 48.3509 173.916 48.0114 174.14 47.8291C174.504 47.5238 174.978 47.3711 175.562 47.3711C175.598 47.3711 175.628 47.3734 175.65 47.3779C175.678 47.3779 175.735 47.3802 175.821 47.3848V49.3809C175.698 49.3672 175.589 49.3581 175.493 49.3535C175.397 49.349 175.32 49.3467 175.261 49.3467ZM50.3203 70.6123V72.0684L49.3975 72.1025C48.4769 72.1344 47.848 71.9749 47.5107 71.624C47.292 71.4007 47.1826 71.0566 47.1826 70.5918V66.0049H46.1436V64.6172H47.1826V62.5391H49.1104V64.6172H50.3203V66.0049H49.1104V69.9424C49.1104 70.2477 49.1491 70.4391 49.2266 70.5166C49.304 70.5895 49.541 70.626 49.9375 70.626C49.9967 70.626 50.0583 70.626 50.1221 70.626C50.1904 70.6214 50.2565 70.6169 50.3203 70.6123ZM58.3047 67.625V72H56.3154V67.4678C56.3154 67.0667 56.2471 66.7432 56.1104 66.4971C55.9326 66.1507 55.5954 65.9775 55.0986 65.9775C54.5837 65.9775 54.1917 66.1507 53.9229 66.4971C53.6585 66.8389 53.5264 67.3288 53.5264 67.9668V72H51.585V61.958H53.5264V65.5195C53.8089 65.0866 54.1348 64.7858 54.5039 64.6172C54.8776 64.444 55.2695 64.3574 55.6797 64.3574C56.14 64.3574 56.557 64.4372 56.9307 64.5967C57.3089 64.7562 57.6188 65 57.8604 65.3281C58.0654 65.6061 58.1908 65.8932 58.2363 66.1895C58.2819 66.4811 58.3047 66.9596 58.3047 67.625ZM63.876 66.3467C63.0921 66.3467 62.5658 66.6019 62.2969 67.1123C62.1465 67.3994 62.0713 67.8415 62.0713 68.4385V72H60.1094V64.5488H61.9688V65.8477C62.2695 65.3509 62.5316 65.0114 62.7549 64.8291C63.1195 64.5238 63.5934 64.3711 64.1768 64.3711C64.2132 64.3711 64.2428 64.3734 64.2656 64.3779C64.293 64.3779 64.3499 64.3802 64.4365 64.3848V66.3809C64.3135 66.3672 64.2041 66.3581 64.1084 66.3535C64.0127 66.349 63.9352 66.3467 63.876 66.3467ZM71.7988 65.4922C72.4277 66.2806 72.7422 67.2126 72.7422 68.2881C72.7422 69.3818 72.4277 70.3184 71.7988 71.0977C71.1699 71.8724 70.2152 72.2598 68.9346 72.2598C67.654 72.2598 66.6992 71.8724 66.0703 71.0977C65.4414 70.3184 65.127 69.3818 65.127 68.2881C65.127 67.2126 65.4414 66.2806 66.0703 65.4922C66.6992 64.7038 67.654 64.3096 68.9346 64.3096C70.2152 64.3096 71.1699 64.7038 71.7988 65.4922ZM68.9277 65.957C68.3581 65.957 67.9183 66.1598 67.6084 66.5654C67.3031 66.9665 67.1504 67.5407 67.1504 68.2881C67.1504 69.0355 67.3031 69.612 67.6084 70.0176C67.9183 70.4232 68.3581 70.626 68.9277 70.626C69.4974 70.626 69.9349 70.4232 70.2402 70.0176C70.5456 69.612 70.6982 69.0355 70.6982 68.2881C70.6982 67.5407 70.5456 66.9665 70.2402 66.5654C69.9349 66.1598 69.4974 65.957 68.9277 65.957ZM78.9219 70.9473C78.9036 70.9701 78.8581 71.0384 78.7852 71.1523C78.7122 71.2663 78.6257 71.3665 78.5254 71.4531C78.2201 71.7266 77.9238 71.9134 77.6367 72.0137C77.3542 72.1139 77.0215 72.1641 76.6387 72.1641C75.5358 72.1641 74.793 71.7676 74.4102 70.9746C74.196 70.5371 74.0889 69.8923 74.0889 69.04V64.5488H76.085V69.04C76.085 69.4639 76.1351 69.7829 76.2354 69.9971C76.4131 70.3753 76.7617 70.5645 77.2812 70.5645C77.9466 70.5645 78.4023 70.2956 78.6484 69.7578C78.776 69.4661 78.8398 69.0811 78.8398 68.6025V64.5488H80.8154V72H78.9219V70.9473ZM84.8076 73.3057C85.0173 73.4834 85.3704 73.5723 85.8672 73.5723C86.569 73.5723 87.0384 73.3376 87.2754 72.8682C87.4303 72.5674 87.5078 72.0615 87.5078 71.3506V70.8721C87.321 71.1911 87.1204 71.4303 86.9062 71.5898C86.5189 71.8861 86.0153 72.0342 85.3955 72.0342C84.4385 72.0342 83.6729 71.6992 83.0986 71.0293C82.529 70.3548 82.2441 69.4434 82.2441 68.2949C82.2441 67.1875 82.5199 66.2578 83.0713 65.5059C83.6227 64.7493 84.4043 64.3711 85.416 64.3711C85.7897 64.3711 86.1156 64.4281 86.3936 64.542C86.8675 64.738 87.2503 65.098 87.542 65.6221V64.5488H89.4355V71.6172C89.4355 72.5788 89.2738 73.3034 88.9502 73.791C88.3942 74.6296 87.3278 75.0488 85.751 75.0488C84.7985 75.0488 84.0215 74.862 83.4199 74.4883C82.8184 74.1146 82.4857 73.5563 82.4219 72.8135H84.541C84.5957 73.0413 84.6846 73.2054 84.8076 73.3057ZM84.4795 69.457C84.7438 70.0859 85.2178 70.4004 85.9014 70.4004C86.3571 70.4004 86.7422 70.2295 87.0566 69.8877C87.3711 69.5413 87.5283 68.9922 87.5283 68.2402C87.5283 67.5339 87.3779 66.9961 87.0771 66.627C86.7809 66.2578 86.3822 66.0732 85.8809 66.0732C85.1973 66.0732 84.7256 66.3945 84.4658 67.0371C84.3291 67.3789 84.2607 67.8005 84.2607 68.3018C84.2607 68.7347 84.3337 69.1198 84.4795 69.457ZM97.9941 67.625V72H96.0049V67.4678C96.0049 67.0667 95.9365 66.7432 95.7998 66.4971C95.6221 66.1507 95.2848 65.9775 94.7881 65.9775C94.2731 65.9775 93.8812 66.1507 93.6123 66.4971C93.348 66.8389 93.2158 67.3288 93.2158 67.9668V72H91.2744V61.958H93.2158V65.5195C93.4984 65.0866 93.8242 64.7858 94.1934 64.6172C94.5671 64.444 94.959 64.3574 95.3691 64.3574C95.8294 64.3574 96.2464 64.4372 96.6201 64.5967C96.9984 64.7562 97.3083 65 97.5498 65.3281C97.7549 65.6061 97.8802 65.8932 97.9258 66.1895C97.9714 66.4811 97.9941 66.9596 97.9941 67.625ZM109.93 65.4922C110.559 66.2806 110.873 67.2126 110.873 68.2881C110.873 69.3818 110.559 70.3184 109.93 71.0977C109.301 71.8724 108.346 72.2598 107.065 72.2598C105.785 72.2598 104.83 71.8724 104.201 71.0977C103.572 70.3184 103.258 69.3818 103.258 68.2881C103.258 67.2126 103.572 66.2806 104.201 65.4922C104.83 64.7038 105.785 64.3096 107.065 64.3096C108.346 64.3096 109.301 64.7038 109.93 65.4922ZM107.059 65.957C106.489 65.957 106.049 66.1598 105.739 66.5654C105.434 66.9665 105.281 67.5407 105.281 68.2881C105.281 69.0355 105.434 69.612 105.739 70.0176C106.049 70.4232 106.489 70.626 107.059 70.626C107.628 70.626 108.066 70.4232 108.371 70.0176C108.676 69.612 108.829 69.0355 108.829 68.2881C108.829 67.5407 108.676 66.9665 108.371 66.5654C108.066 66.1598 107.628 65.957 107.059 65.957ZM117.053 70.9473C117.035 70.9701 116.989 71.0384 116.916 71.1523C116.843 71.2663 116.757 71.3665 116.656 71.4531C116.351 71.7266 116.055 71.9134 115.768 72.0137C115.485 72.1139 115.152 72.1641 114.77 72.1641C113.667 72.1641 112.924 71.7676 112.541 70.9746C112.327 70.5371 112.22 69.8923 112.22 69.04V64.5488H114.216V69.04C114.216 69.4639 114.266 69.7829 114.366 69.9971C114.544 70.3753 114.893 70.5645 115.412 70.5645C116.077 70.5645 116.533 70.2956 116.779 69.7578C116.907 69.4661 116.971 69.0811 116.971 68.6025V64.5488H118.946V72H117.053V70.9473ZM124.579 66.3467C123.795 66.3467 123.269 66.6019 123 67.1123C122.85 67.3994 122.774 67.8415 122.774 68.4385V72H120.812V64.5488H122.672V65.8477C122.973 65.3509 123.235 65.0114 123.458 64.8291C123.823 64.5238 124.297 64.3711 124.88 64.3711C124.916 64.3711 124.946 64.3734 124.969 64.3779C124.996 64.3779 125.053 64.3802 125.14 64.3848V66.3809C125.017 66.3672 124.907 66.3581 124.812 66.3535C124.716 66.349 124.638 66.3467 124.579 66.3467ZM135.318 64.8906C135.902 65.2643 136.237 65.9069 136.323 66.8184H134.375C134.348 66.5677 134.277 66.3695 134.163 66.2236C133.949 65.9593 133.584 65.8271 133.069 65.8271C132.646 65.8271 132.342 65.8932 132.16 66.0254C131.982 66.1576 131.894 66.3125 131.894 66.4902C131.894 66.7135 131.989 66.8753 132.181 66.9756C132.372 67.0804 133.049 67.2604 134.211 67.5156C134.986 67.6979 135.567 67.9736 135.954 68.3428C136.337 68.7165 136.528 69.1836 136.528 69.7441C136.528 70.4824 136.253 71.0863 135.701 71.5557C135.154 72.0205 134.307 72.2529 133.158 72.2529C131.987 72.2529 131.121 72.0068 130.561 71.5146C130.005 71.0179 129.727 70.3867 129.727 69.6211H131.702C131.743 69.9674 131.832 70.2135 131.969 70.3594C132.21 70.6191 132.657 70.749 133.309 70.749C133.691 70.749 133.994 70.6921 134.218 70.5781C134.446 70.4642 134.56 70.2933 134.56 70.0654C134.56 69.8467 134.468 69.6803 134.286 69.5664C134.104 69.4525 133.427 69.2565 132.256 68.9785C131.413 68.7689 130.818 68.5068 130.472 68.1924C130.125 67.8825 129.952 67.4359 129.952 66.8525C129.952 66.1644 130.221 65.5742 130.759 65.082C131.301 64.5853 132.062 64.3369 133.042 64.3369C133.972 64.3369 134.73 64.5215 135.318 64.8906ZM142.756 70.9473C142.738 70.9701 142.692 71.0384 142.619 71.1523C142.546 71.2663 142.46 71.3665 142.359 71.4531C142.054 71.7266 141.758 71.9134 141.471 72.0137C141.188 72.1139 140.855 72.1641 140.473 72.1641C139.37 72.1641 138.627 71.7676 138.244 70.9746C138.03 70.5371 137.923 69.8923 137.923 69.04V64.5488H139.919V69.04C139.919 69.4639 139.969 69.7829 140.069 69.9971C140.247 70.3753 140.596 70.5645 141.115 70.5645C141.781 70.5645 142.236 70.2956 142.482 69.7578C142.61 69.4661 142.674 69.0811 142.674 68.6025V64.5488H144.649V72H142.756V70.9473ZM152.777 65.3486C153.379 65.9912 153.68 66.9346 153.68 68.1787C153.68 69.4912 153.383 70.4915 152.791 71.1797C152.203 71.8678 151.444 72.2119 150.515 72.2119C149.922 72.2119 149.43 72.0638 149.038 71.7676C148.824 71.6035 148.614 71.3643 148.409 71.0498V74.9326H146.481V64.5488H148.348V65.6494C148.557 65.3258 148.781 65.0706 149.018 64.8838C149.451 64.5511 149.965 64.3848 150.562 64.3848C151.433 64.3848 152.171 64.7061 152.777 65.3486ZM151.67 68.2744C151.67 67.7002 151.538 67.1921 151.273 66.75C151.014 66.3079 150.59 66.0869 150.002 66.0869C149.296 66.0869 148.81 66.4219 148.546 67.0918C148.409 67.4473 148.341 67.8984 148.341 68.4453C148.341 69.3112 148.571 69.9196 149.031 70.2705C149.305 70.4756 149.628 70.5781 150.002 70.5781C150.544 70.5781 150.957 70.3685 151.239 69.9492C151.526 69.5299 151.67 68.9717 151.67 68.2744ZM161.336 65.3486C161.938 65.9912 162.238 66.9346 162.238 68.1787C162.238 69.4912 161.942 70.4915 161.35 71.1797C160.762 71.8678 160.003 72.2119 159.073 72.2119C158.481 72.2119 157.989 72.0638 157.597 71.7676C157.382 71.6035 157.173 71.3643 156.968 71.0498V74.9326H155.04V64.5488H156.906V65.6494C157.116 65.3258 157.339 65.0706 157.576 64.8838C158.009 64.5511 158.524 64.3848 159.121 64.3848C159.992 64.3848 160.73 64.7061 161.336 65.3486ZM160.229 68.2744C160.229 67.7002 160.096 67.1921 159.832 66.75C159.572 66.3079 159.148 66.0869 158.561 66.0869C157.854 66.0869 157.369 66.4219 157.104 67.0918C156.968 67.4473 156.899 67.8984 156.899 68.4453C156.899 69.3112 157.13 69.9196 157.59 70.2705C157.863 70.4756 158.187 70.5781 158.561 70.5781C159.103 70.5781 159.515 70.3685 159.798 69.9492C160.085 69.5299 160.229 68.9717 160.229 68.2744ZM169.867 65.4922C170.496 66.2806 170.811 67.2126 170.811 68.2881C170.811 69.3818 170.496 70.3184 169.867 71.0977C169.238 71.8724 168.284 72.2598 167.003 72.2598C165.722 72.2598 164.768 71.8724 164.139 71.0977C163.51 70.3184 163.195 69.3818 163.195 68.2881C163.195 67.2126 163.51 66.2806 164.139 65.4922C164.768 64.7038 165.722 64.3096 167.003 64.3096C168.284 64.3096 169.238 64.7038 169.867 65.4922ZM166.996 65.957C166.426 65.957 165.987 66.1598 165.677 66.5654C165.371 66.9665 165.219 67.5407 165.219 68.2881C165.219 69.0355 165.371 69.612 165.677 70.0176C165.987 70.4232 166.426 70.626 166.996 70.626C167.566 70.626 168.003 70.4232 168.309 70.0176C168.614 69.612 168.767 69.0355 168.767 68.2881C168.767 67.5407 168.614 66.9665 168.309 66.5654C168.003 66.1598 167.566 65.957 166.996 65.957ZM175.958 66.3467C175.174 66.3467 174.648 66.6019 174.379 67.1123C174.229 67.3994 174.153 67.8415 174.153 68.4385V72H172.191V64.5488H174.051V65.8477C174.352 65.3509 174.614 65.0114 174.837 64.8291C175.201 64.5238 175.675 64.3711 176.259 64.3711C176.295 64.3711 176.325 64.3734 176.348 64.3779C176.375 64.3779 176.432 64.3802 176.519 64.3848V66.3809C176.396 66.3672 176.286 66.3581 176.19 66.3535C176.095 66.349 176.017 66.3467 175.958 66.3467ZM181.078 70.6123V72.0684L180.155 72.1025C179.235 72.1344 178.606 71.9749 178.269 71.624C178.05 71.4007 177.94 71.0566 177.94 70.5918V66.0049H176.901V64.6172H177.94V62.5391H179.868V64.6172H181.078V66.0049H179.868V69.9424C179.868 70.2477 179.907 70.4391 179.984 70.5166C180.062 70.5895 180.299 70.626 180.695 70.626C180.755 70.626 180.816 70.626 180.88 70.626C180.948 70.6214 181.014 70.6169 181.078 70.6123ZM186.506 65.3555C187.021 64.6992 187.905 64.3711 189.158 64.3711C189.974 64.3711 190.699 64.5329 191.332 64.8564C191.965 65.18 192.282 65.7907 192.282 66.6885V70.1064C192.282 70.3434 192.287 70.6305 192.296 70.9678C192.31 71.223 192.348 71.3962 192.412 71.4873C192.476 71.5785 192.572 71.6536 192.699 71.7129V72H190.58C190.521 71.8496 190.48 71.7083 190.457 71.5762C190.434 71.444 190.416 71.2936 190.402 71.125C190.133 71.4167 189.824 71.665 189.473 71.8701C189.053 72.1117 188.579 72.2324 188.051 72.2324C187.376 72.2324 186.818 72.041 186.376 71.6582C185.938 71.2708 185.72 70.724 185.72 70.0176C185.72 69.1016 186.073 68.4385 186.779 68.0283C187.167 67.805 187.736 67.6455 188.488 67.5498L189.151 67.4678C189.511 67.4222 189.769 67.3652 189.924 67.2969C190.202 67.1784 190.341 66.9938 190.341 66.7432C190.341 66.4378 190.234 66.2282 190.02 66.1143C189.81 65.9958 189.5 65.9365 189.09 65.9365C188.63 65.9365 188.304 66.0505 188.112 66.2783C187.976 66.4469 187.884 66.6748 187.839 66.9619H185.959C186 66.3102 186.182 65.7747 186.506 65.3555ZM187.955 70.5918C188.137 70.7422 188.361 70.8174 188.625 70.8174C189.044 70.8174 189.429 70.6943 189.78 70.4482C190.136 70.2021 190.32 69.7533 190.334 69.1016V68.377C190.211 68.4544 190.086 68.5182 189.958 68.5684C189.835 68.6139 189.664 68.6572 189.445 68.6982L189.008 68.7803C188.598 68.8532 188.304 68.9421 188.126 69.0469C187.825 69.2246 187.675 69.5003 187.675 69.874C187.675 70.2067 187.768 70.446 187.955 70.5918ZM200.26 65.3486C200.861 65.9912 201.162 66.9346 201.162 68.1787C201.162 69.4912 200.866 70.4915 200.273 71.1797C199.686 71.8678 198.927 72.2119 197.997 72.2119C197.405 72.2119 196.912 72.0638 196.521 71.7676C196.306 71.6035 196.097 71.3643 195.892 71.0498V74.9326H193.964V64.5488H195.83V65.6494C196.04 65.3258 196.263 65.0706 196.5 64.8838C196.933 64.5511 197.448 64.3848 198.045 64.3848C198.915 64.3848 199.654 64.7061 200.26 65.3486ZM199.152 68.2744C199.152 67.7002 199.02 67.1921 198.756 66.75C198.496 66.3079 198.072 66.0869 197.484 66.0869C196.778 66.0869 196.293 66.4219 196.028 67.0918C195.892 67.4473 195.823 67.8984 195.823 68.4453C195.823 69.3112 196.053 69.9196 196.514 70.2705C196.787 70.4756 197.111 70.5781 197.484 70.5781C198.027 70.5781 198.439 70.3685 198.722 69.9492C199.009 69.5299 199.152 68.9717 199.152 68.2744ZM208.818 65.3486C209.42 65.9912 209.721 66.9346 209.721 68.1787C209.721 69.4912 209.424 70.4915 208.832 71.1797C208.244 71.8678 207.485 72.2119 206.556 72.2119C205.963 72.2119 205.471 72.0638 205.079 71.7676C204.865 71.6035 204.655 71.3643 204.45 71.0498V74.9326H202.522V64.5488H204.389V65.6494C204.598 65.3258 204.822 65.0706 205.059 64.8838C205.492 64.5511 206.007 64.3848 206.604 64.3848C207.474 64.3848 208.212 64.7061 208.818 65.3486ZM207.711 68.2744C207.711 67.7002 207.579 67.1921 207.314 66.75C207.055 66.3079 206.631 66.0869 206.043 66.0869C205.337 66.0869 204.851 66.4219 204.587 67.0918C204.45 67.4473 204.382 67.8984 204.382 68.4453C204.382 69.3112 204.612 69.9196 205.072 70.2705C205.346 70.4756 205.669 70.5781 206.043 70.5781C206.585 70.5781 206.998 70.3685 207.28 69.9492C207.567 69.5299 207.711 68.9717 207.711 68.2744Z" fill="#3C3C3C"/>
<rect x="46" y="87" width="31" height="34" rx="4" fill="white" fill-opacity="0.5"/>
<path d="M51.3763 92.3319C51.0941 92.6141 51 93.0845 51 93.6489V114.439C51 115.004 51.1881 115.474 51.4704 115.756L51.5644 115.85L63.2296 104.185V103.997L51.3763 92.3319Z" fill="url(#paint0_linear_2001_523)"/>
<path d="M66.9925 108.136L63.1355 104.279V103.997L66.9925 100.14L67.0866 100.234L71.6962 102.868C73.0133 103.621 73.0133 104.844 71.6962 105.596L66.9925 108.136Z" fill="url(#paint1_linear_2001_523)"/>
<path d="M67.0866 108.042L63.1355 104.091L51.3762 115.85C51.8466 116.321 52.5051 116.321 53.3518 115.945L67.0866 108.042Z" fill="url(#paint2_linear_2001_523)"/>
<path d="M67.0866 100.14L53.3518 92.332C52.5051 91.8616 51.8466 91.9557 51.3762 92.426L63.1355 104.091L67.0866 100.14Z" fill="url(#paint3_linear_2001_523)"/>
<path opacity="0.2" d="M66.9925 107.948L53.3518 115.662C52.5992 116.133 51.9407 116.039 51.4703 115.662L51.3762 115.756L51.4703 115.85C51.9407 116.227 52.5992 116.321 53.3518 115.85L66.9925 107.948Z" fill="black"/>
<path opacity="0.12" d="M51.3763 115.662C51.0941 115.38 51 114.91 51 114.345V114.439C51 115.004 51.1881 115.474 51.4704 115.756V115.662H51.3763ZM71.6963 105.314L66.9926 107.948L67.0867 108.042L71.6963 105.408C72.3548 105.032 72.637 104.562 72.637 104.091C72.637 104.562 72.2607 104.938 71.6963 105.314Z" fill="black"/>
<path opacity="0.25" d="M53.3519 92.426L71.6963 102.868C72.2607 103.244 72.637 103.621 72.637 104.091C72.637 103.621 72.3548 103.15 71.6963 102.774L53.3519 92.3319C52.0348 91.5793 51 92.1438 51 93.6489V93.743C51 92.3319 52.0348 91.6734 53.3519 92.426Z" fill="white"/>
<rect x="83" y="87" width="31" height="34" rx="4" fill="white" fill-opacity="0.5"/>
<path d="M98.5 116.312C105.024 116.312 110.312 111.024 110.312 104.5C110.312 97.9761 105.024 92.6875 98.5 92.6875C91.9761 92.6875 86.6875 97.9761 86.6875 104.5C86.6875 111.024 91.9761 116.312 98.5 116.312Z" fill="url(#paint4_linear_2001_523)"/>
<path d="M100.564 98.3018C100.82 97.8562 100.667 97.287 100.224 97.0305C99.7801 96.774 99.2135 96.9274 98.9582 97.373L98.5129 98.1503L98.0676 97.373C97.8123 96.9274 97.2457 96.774 96.8021 97.0305C96.3586 97.287 96.2059 97.8562 96.4612 98.3018L97.4436 100.017L94.3363 105.441H91.8329C91.3211 105.441 90.9062 105.858 90.9062 106.372C90.9062 106.886 91.3211 107.303 91.8329 107.303H100.552C100.629 107.101 100.709 106.755 100.624 106.436C100.495 105.958 100.019 105.441 99.2207 105.441H96.4747L100.564 98.3018Z" fill="white"/>
<path d="M94.8183 108.332C94.6601 108.156 94.3059 107.874 93.9953 107.781C93.5217 107.64 93.1626 107.728 92.9814 107.806L92.2912 109.011C92.0359 109.456 92.1885 110.025 92.6321 110.282C93.0756 110.538 93.6422 110.385 93.8975 109.939L94.8183 108.332Z" fill="white"/>
<path d="M103.756 107.303H105.167C105.679 107.303 106.094 106.886 106.094 106.372C106.094 105.858 105.679 105.441 105.167 105.441H102.689L99.8984 100.569C99.6911 100.767 99.2936 101.273 99.2336 101.846C99.1564 102.583 99.2721 103.204 99.6197 103.811C100.788 105.855 101.958 107.897 103.128 109.94C103.384 110.385 103.95 110.539 104.394 110.282C104.837 110.026 104.99 109.456 104.735 109.011L103.756 107.303Z" fill="white"/>
<path d="M147.236 276H102.738C96.2651 276 91 270.751 91 264.297V148.44C91 141.986 96.2651 136.737 102.738 136.737H147.236C153.709 136.737 158.974 141.986 158.974 148.44V264.297C158.974 270.751 153.709 276 147.236 276Z" fill="#4A4A4A"/>
<path d="M146.937 272.684H102.208C97.4 272.684 93.4868 268.812 93.4868 264.055V148.682C93.4868 143.924 97.4 140.053 102.208 140.053H146.937C151.745 140.053 155.658 143.924 155.658 148.682V264.055C155.658 268.812 151.745 272.684 146.937 272.684Z" fill="white"/>
<path d="M131.019 147.513H118.126C116.423 147.513 115.04 146.212 115.04 144.612C115.04 143.011 116.423 141.71 118.126 141.71H131.019C132.721 141.71 134.105 143.011 134.105 144.612C134.105 146.212 132.721 147.513 131.019 147.513Z" fill="#4A4A4A"/>
<path d="M143.576 183.158H107.227C106.507 183.158 105.921 182.413 105.921 181.5C105.921 180.587 106.507 179.842 107.227 179.842H143.576C144.296 179.842 144.882 180.587 144.882 181.5C144.882 182.413 144.296 183.158 143.576 183.158Z" fill="#4A4A4A"/>
<path d="M143.576 190.618H107.227C106.507 190.618 105.921 189.873 105.921 188.961C105.921 188.048 106.507 187.303 107.227 187.303H143.576C144.296 187.303 144.882 188.048 144.882 188.961C144.882 189.873 144.296 190.618 143.576 190.618Z" fill="#4A4A4A"/>
<path d="M133.606 198.079H107.249C106.517 198.079 105.921 197.148 105.921 196.007C105.921 194.865 106.517 193.934 107.249 193.934H133.606C134.339 193.934 134.934 194.865 134.934 196.007C134.934 197.148 134.339 198.079 133.606 198.079Z" fill="#4A4A4A"/>
<path d="M205.262 256.105H160.763C154.29 256.105 149.025 250.856 149.025 244.403V128.545C149.025 122.092 154.29 116.842 160.763 116.842H205.262C211.734 116.842 216.999 122.092 216.999 128.545V244.403C216.999 250.856 211.734 256.105 205.262 256.105Z" fill="#4A4A4A"/>
<path d="M204.962 252.79H160.234C155.425 252.79 151.512 248.918 151.512 244.16V128.787C151.512 124.03 155.425 120.158 160.234 120.158H204.962C209.77 120.158 213.683 124.03 213.683 128.787V244.16C213.683 248.918 209.77 252.79 204.962 252.79Z" fill="white"/>
<path d="M189.045 127.618H176.151C174.449 127.618 173.065 126.317 173.065 124.717C173.065 123.117 174.449 121.816 176.151 121.816H189.045C190.747 121.816 192.131 123.117 192.131 124.717C192.131 126.317 190.747 127.618 189.045 127.618Z" fill="#4A4A4A"/>
<path d="M201.601 163.263H165.253C164.533 163.263 163.947 162.518 163.947 161.605C163.947 160.692 164.533 159.947 165.253 159.947H201.601C202.321 159.947 202.907 160.692 202.907 161.605C202.907 162.518 202.321 163.263 201.601 163.263Z" fill="#4A4A4A"/>
<path d="M201.601 170.724H165.253C164.533 170.724 163.947 169.979 163.947 169.066C163.947 168.153 164.533 167.408 165.253 167.408H201.601C202.321 167.408 202.907 168.153 202.907 169.066C202.907 169.979 202.321 170.724 201.601 170.724Z" fill="#4A4A4A"/>
<path d="M191.632 178.184H165.274C164.542 178.184 163.947 177.253 163.947 176.112C163.947 174.971 164.542 174.04 165.274 174.04H191.632C192.364 174.04 192.96 174.971 192.96 176.112C192.96 177.253 192.364 178.184 191.632 178.184Z" fill="#4A4A4A"/>
<defs>
<filter id="filter0_d_2001_523" x="0" y="0" width="277" height="322" filterUnits="userSpaceOnUse" color-interpolation-filters="sRGB">
<feFlood flood-opacity="0" result="BackgroundImageFix"/>
<feColorMatrix in="SourceAlpha" type="matrix" values="0 0 0 0 0 0 0 0 0 0 0 0 0 0 0 0 0 0 127 0" result="hardAlpha"/>
<feMorphology radius="7" operator="dilate" in="SourceAlpha" result="effect1_dropShadow_2001_523"/>
<feOffset dy="4"/>
<feGaussianBlur stdDeviation="7.5"/>
<feComposite in2="hardAlpha" operator="out"/>
<feColorMatrix type="matrix" values="0 0 0 0 0.865104 0 0 0 0 0.865104 0 0 0 0 0.865104 0 0 0 0.25 0"/>
<feBlend mode="normal" in2="BackgroundImageFix" result="effect1_dropShadow_2001_523"/>
<feBlend mode="normal" in="SourceGraphic" in2="effect1_dropShadow_2001_523" result="shape"/>
</filter>
<linearGradient id="paint0_linear_2001_523" x1="62.1007" y1="93.4702" x2="46.3123" y2="109.258" gradientUnits="userSpaceOnUse">
<stop stop-color="#00A0FF"/>
<stop offset="0.007" stop-color="#00A1FF"/>
<stop offset="0.26" stop-color="#00BEFF"/>
<stop offset="0.512" stop-color="#00D2FF"/>
<stop offset="0.76" stop-color="#00DFFF"/>
<stop offset="1" stop-color="#00E3FF"/>
</linearGradient>
<linearGradient id="paint1_linear_2001_523" x1="73.4216" y1="104.092" x2="50.6585" y2="104.092" gradientUnits="userSpaceOnUse">
<stop stop-color="#FFE000"/>
<stop offset="0.409" stop-color="#FFBD00"/>
<stop offset="0.775" stop-color="#FFA500"/>
<stop offset="1" stop-color="#FF9C00"/>
</linearGradient>
<linearGradient id="paint2_linear_2001_523" x1="64.9483" y1="106.251" x2="43.5389" y2="127.661" gradientUnits="userSpaceOnUse">
<stop stop-color="#FF3A44"/>
<stop offset="1" stop-color="#C31162"/>
</linearGradient>
<linearGradient id="paint3_linear_2001_523" x1="48.4571" y1="85.442" x2="58.0179" y2="95.0027" gradientUnits="userSpaceOnUse">
<stop stop-color="#32A071"/>
<stop offset="0.069" stop-color="#2DA771"/>
<stop offset="0.476" stop-color="#15CF74"/>
<stop offset="0.801" stop-color="#06E775"/>
<stop offset="1" stop-color="#00F076"/>
</linearGradient>
<linearGradient id="paint4_linear_2001_523" x1="98.5" y1="92.6875" x2="98.5" y2="116.312" gradientUnits="userSpaceOnUse">
<stop stop-color="#2AC9FA"/>
<stop offset="1" stop-color="#1F65EB"/>
</linearGradient>
</defs>
</svg>
