<svg width="241" height="247" viewBox="0 0 241 247" fill="none" xmlns="http://www.w3.org/2000/svg">
<g filter="url(#filter0_d_2001_558)">
<path d="M4 20C4 8.9543 12.9543 0 24 0H217C228.046 0 237 8.95431 237 20V219C237 230.046 228.046 239 217 239H24C12.9543 239 4 230.046 4 219V20Z" fill="white"/>
</g>
<path d="M28.3267 22.0123H26V53H56.9812V50.6727H28.6888C28.4883 50.6727 28.3267 50.5111 28.3267 50.3127V22.0123ZM39.7222 47.3151H44.3669V34.6359H39.7222V47.3151ZM47.1638 47.3151H51.8086V37.7727H47.1638V47.3151ZM36.1708 27.8054H37.1539C37.3522 27.8054 37.5138 27.967 37.5138 28.1654V43.0283H39.0002V34.2737C39.0002 34.0754 39.1618 33.9138 39.3601 33.9138H44.7268C44.9251 33.9138 45.0867 34.0754 45.0867 34.2737V43.0283H46.444V37.4134C46.444 37.215 46.6056 37.0534 46.8039 37.0534H52.1706C52.369 37.0534 52.5305 37.215 52.5305 37.4134V43.0291H55.7609C56.4418 43.0291 57 42.4707 57 41.7875V29.6133H51.9853C50.9056 29.6133 50.025 28.7317 50.025 27.6524V22H37.4106C36.7298 22 36.1715 22.5606 36.1715 23.2416V27.8054H36.1708ZM46.6958 25.4766C45.267 24.0474 42.9504 24.0474 41.5216 25.4766C40.0929 26.9043 40.0929 29.2208 41.5216 30.6507C42.9504 32.0799 45.267 32.0799 46.6958 30.6507C48.1231 29.2208 48.1231 26.9036 46.6958 25.4766ZM44.108 23.6831C46.5263 23.6831 48.4873 25.644 48.4873 28.0636C48.4873 30.4833 46.527 32.4442 44.108 32.4442C41.6897 32.4442 39.7287 30.4833 39.7287 28.0636C39.7287 25.644 41.689 23.6831 44.108 23.6831ZM42.3676 28.0896C42.0633 27.7296 42.6107 27.2636 42.9179 27.6257L43.6846 28.534L45.3117 26.8084C45.637 26.4628 46.1599 26.9555 45.8375 27.3011L43.9031 29.3478C43.7495 29.4769 43.5231 29.4582 43.3961 29.3045L42.3676 28.0896ZM36.2552 42.7261C34.6072 41.0776 31.9372 41.0776 30.2899 42.7261C28.644 44.3745 28.644 47.0453 30.2899 48.693C31.9379 50.3394 34.6079 50.3394 36.2552 48.693C37.9025 47.0453 37.9025 44.3745 36.2552 42.7261ZM33.2722 40.7688C34.6519 40.7688 35.8953 41.333 36.7925 42.2456V28.5275H32.1499V40.898C32.5098 40.8143 32.8856 40.7688 33.2722 40.7688ZM32.9123 42.6402C32.9123 42.1641 33.6342 42.1641 33.6342 42.6402V43.0918C34.2783 43.2246 34.8279 43.7281 34.8279 44.3983C34.8279 44.8731 34.1059 44.8731 34.1059 44.3983C34.1059 43.8421 33.1755 43.5535 32.6563 43.9814C32.1615 44.3861 32.5639 45.0224 33.2715 45.0246C35.032 45.0289 35.8845 46.8613 34.6252 47.898C34.3576 48.1166 34.0136 48.2746 33.6335 48.3359V48.7796C33.6335 49.2543 32.9116 49.2543 32.9116 48.7796V48.3359C32.067 48.1989 31.3213 47.5633 31.3213 46.6939C31.3213 46.2192 32.0432 46.2192 32.0432 46.6939C32.0432 47.5409 33.4006 47.9738 34.1694 47.3425C34.9094 46.7329 34.3367 45.7453 33.2722 45.7431C31.8679 45.7409 31.1885 44.2584 32.199 43.428C32.3952 43.2664 32.6404 43.1481 32.9123 43.0926V42.6402ZM56.5442 28.8933L50.7462 22.5642V27.6524C50.7462 28.3335 51.3044 28.894 51.9853 28.894H56.5442V28.8933Z" fill="#4A4A4A"/>
<path opacity="0.6" d="M4 106H117V239H4V106Z" fill="#4A4A4A"/>
<path d="M20.0254 140.393H25.9961V141.447H21.1914V144.061H25.416V145.086H21.1914V149H20.0254V140.393ZM27.918 147.33C27.918 147.635 28.0293 147.875 28.252 148.051C28.4746 148.227 28.7383 148.314 29.043 148.314C29.4141 148.314 29.7734 148.229 30.1211 148.057C30.707 147.771 31 147.305 31 146.656V145.807C30.8711 145.889 30.7051 145.957 30.502 146.012C30.2988 146.066 30.0996 146.105 29.9043 146.129L29.2656 146.211C28.8828 146.262 28.5957 146.342 28.4043 146.451C28.0801 146.635 27.918 146.928 27.918 147.33ZM30.4727 145.197C30.7148 145.166 30.877 145.064 30.959 144.893C31.0059 144.799 31.0293 144.664 31.0293 144.488C31.0293 144.129 30.9004 143.869 30.6426 143.709C30.3887 143.545 30.0234 143.463 29.5469 143.463C28.9961 143.463 28.6055 143.611 28.375 143.908C28.2461 144.072 28.1621 144.316 28.123 144.641H27.1387C27.1582 143.867 27.4082 143.33 27.8887 143.029C28.373 142.725 28.9336 142.572 29.5703 142.572C30.3086 142.572 30.9082 142.713 31.3691 142.994C31.8262 143.275 32.0547 143.713 32.0547 144.307V147.922C32.0547 148.031 32.0762 148.119 32.1191 148.186C32.166 148.252 32.2617 148.285 32.4062 148.285C32.4531 148.285 32.5059 148.283 32.5645 148.279C32.623 148.271 32.6855 148.262 32.752 148.25V149.029C32.5879 149.076 32.4629 149.105 32.377 149.117C32.291 149.129 32.1738 149.135 32.0254 149.135C31.6621 149.135 31.3984 149.006 31.2344 148.748C31.1484 148.611 31.0879 148.418 31.0527 148.168C30.8379 148.449 30.5293 148.693 30.127 148.9C29.7246 149.107 29.2812 149.211 28.7969 149.211C28.2148 149.211 27.7383 149.035 27.3672 148.684C27 148.328 26.8164 147.885 26.8164 147.354C26.8164 146.771 26.998 146.32 27.3613 146C27.7246 145.68 28.2012 145.482 28.791 145.408L30.4727 145.197ZM34.416 147.031C34.4473 147.383 34.5352 147.652 34.6797 147.84C34.9453 148.18 35.4062 148.35 36.0625 148.35C36.4531 148.35 36.7969 148.266 37.0938 148.098C37.3906 147.926 37.5391 147.662 37.5391 147.307C37.5391 147.037 37.4199 146.832 37.1816 146.691C37.0293 146.605 36.7285 146.506 36.2793 146.393L35.4414 146.182C34.9062 146.049 34.5117 145.9 34.2578 145.736C33.8047 145.451 33.5781 145.057 33.5781 144.553C33.5781 143.959 33.791 143.479 34.2168 143.111C34.6465 142.744 35.2227 142.561 35.9453 142.561C36.8906 142.561 37.5723 142.838 37.9902 143.393C38.252 143.744 38.3789 144.123 38.3711 144.529H37.375C37.3555 144.291 37.2715 144.074 37.123 143.879C36.8809 143.602 36.4609 143.463 35.8633 143.463C35.4648 143.463 35.1621 143.539 34.9551 143.691C34.752 143.844 34.6504 144.045 34.6504 144.295C34.6504 144.568 34.7852 144.787 35.0547 144.951C35.2109 145.049 35.4414 145.135 35.7461 145.209L36.4434 145.379C37.2012 145.562 37.709 145.74 37.9668 145.912C38.377 146.182 38.582 146.605 38.582 147.184C38.582 147.742 38.3691 148.225 37.9434 148.631C37.5215 149.037 36.877 149.24 36.0098 149.24C35.0762 149.24 34.4141 149.029 34.0234 148.607C33.6367 148.182 33.4297 147.656 33.4023 147.031H34.416ZM40 140.973H41.0664V142.725H42.0684V143.586H41.0664V147.682C41.0664 147.9 41.1406 148.047 41.2891 148.121C41.3711 148.164 41.5078 148.186 41.6992 148.186C41.75 148.186 41.8047 148.186 41.8633 148.186C41.9219 148.182 41.9902 148.176 42.0684 148.168V149C41.9473 149.035 41.8203 149.061 41.6875 149.076C41.5586 149.092 41.418 149.1 41.2656 149.1C40.7734 149.1 40.4395 148.975 40.2637 148.725C40.0879 148.471 40 148.143 40 147.74V143.586H39.1504V142.725H40V140.973ZM45.7422 142.584C46.1875 142.584 46.6191 142.689 47.0371 142.9C47.4551 143.107 47.7734 143.377 47.9922 143.709C48.2031 144.025 48.3438 144.395 48.4141 144.816C48.4766 145.105 48.5078 145.566 48.5078 146.199H43.9082C43.9277 146.836 44.0781 147.348 44.3594 147.734C44.6406 148.117 45.0762 148.309 45.666 148.309C46.2168 148.309 46.6562 148.127 46.9844 147.764C47.1719 147.553 47.3047 147.309 47.3828 147.031H48.4199C48.3926 147.262 48.3008 147.52 48.1445 147.805C47.9922 148.086 47.8203 148.316 47.6289 148.496C47.3086 148.809 46.9121 149.02 46.4395 149.129C46.1855 149.191 45.8984 149.223 45.5781 149.223C44.7969 149.223 44.1348 148.939 43.5918 148.373C43.0488 147.803 42.7773 147.006 42.7773 145.982C42.7773 144.975 43.0508 144.156 43.5977 143.527C44.1445 142.898 44.8594 142.584 45.7422 142.584ZM47.4238 145.361C47.3809 144.904 47.2812 144.539 47.125 144.266C46.8359 143.758 46.3535 143.504 45.6777 143.504C45.1934 143.504 44.7871 143.68 44.459 144.031C44.1309 144.379 43.957 144.822 43.9375 145.361H47.4238ZM49.8379 142.725H50.8398V143.809C50.9219 143.598 51.123 143.342 51.4434 143.041C51.7637 142.736 52.1328 142.584 52.5508 142.584C52.5703 142.584 52.6035 142.586 52.6504 142.59C52.6973 142.594 52.7773 142.602 52.8906 142.613V143.727C52.8281 143.715 52.7695 143.707 52.7148 143.703C52.6641 143.699 52.6074 143.697 52.5449 143.697C52.0137 143.697 51.6055 143.869 51.3203 144.213C51.0352 144.553 50.8926 144.945 50.8926 145.391V149H49.8379V142.725ZM19.8027 155.725H20.8047V156.809C20.8867 156.598 21.0879 156.342 21.4082 156.041C21.7285 155.736 22.0977 155.584 22.5156 155.584C22.5352 155.584 22.5684 155.586 22.6152 155.59C22.6621 155.594 22.7422 155.602 22.8555 155.613V156.727C22.793 156.715 22.7344 156.707 22.6797 156.703C22.6289 156.699 22.5723 156.697 22.5098 156.697C21.9785 156.697 21.5703 156.869 21.2852 157.213C21 157.553 20.8574 157.945 20.8574 158.391V162H19.8027V155.725ZM26.3828 155.584C26.8281 155.584 27.2598 155.689 27.6777 155.9C28.0957 156.107 28.4141 156.377 28.6328 156.709C28.8438 157.025 28.9844 157.395 29.0547 157.816C29.1172 158.105 29.1484 158.566 29.1484 159.199H24.5488C24.5684 159.836 24.7188 160.348 25 160.734C25.2812 161.117 25.7168 161.309 26.3066 161.309C26.8574 161.309 27.2969 161.127 27.625 160.764C27.8125 160.553 27.9453 160.309 28.0234 160.031H29.0605C29.0332 160.262 28.9414 160.52 28.7852 160.805C28.6328 161.086 28.4609 161.316 28.2695 161.496C27.9492 161.809 27.5527 162.02 27.0801 162.129C26.8262 162.191 26.5391 162.223 26.2188 162.223C25.4375 162.223 24.7754 161.939 24.2324 161.373C23.6895 160.803 23.418 160.006 23.418 158.982C23.418 157.975 23.6914 157.156 24.2383 156.527C24.7852 155.898 25.5 155.584 26.3828 155.584ZM28.0645 158.361C28.0215 157.904 27.9219 157.539 27.7656 157.266C27.4766 156.758 26.9941 156.504 26.3184 156.504C25.834 156.504 25.4277 156.68 25.0996 157.031C24.7715 157.379 24.5977 157.822 24.5781 158.361H28.0645ZM31.0762 160.031C31.1074 160.383 31.1953 160.652 31.3398 160.84C31.6055 161.18 32.0664 161.35 32.7227 161.35C33.1133 161.35 33.457 161.266 33.7539 161.098C34.0508 160.926 34.1992 160.662 34.1992 160.307C34.1992 160.037 34.0801 159.832 33.8418 159.691C33.6895 159.605 33.3887 159.506 32.9395 159.393L32.1016 159.182C31.5664 159.049 31.1719 158.9 30.918 158.736C30.4648 158.451 30.2383 158.057 30.2383 157.553C30.2383 156.959 30.4512 156.479 30.877 156.111C31.3066 155.744 31.8828 155.561 32.6055 155.561C33.5508 155.561 34.2324 155.838 34.6504 156.393C34.9121 156.744 35.0391 157.123 35.0312 157.529H34.0352C34.0156 157.291 33.9316 157.074 33.7832 156.879C33.541 156.602 33.1211 156.463 32.5234 156.463C32.125 156.463 31.8223 156.539 31.6152 156.691C31.4121 156.844 31.3105 157.045 31.3105 157.295C31.3105 157.568 31.4453 157.787 31.7148 157.951C31.8711 158.049 32.1016 158.135 32.4062 158.209L33.1035 158.379C33.8613 158.562 34.3691 158.74 34.627 158.912C35.0371 159.182 35.2422 159.605 35.2422 160.184C35.2422 160.742 35.0293 161.225 34.6035 161.631C34.1816 162.037 33.5371 162.24 32.6699 162.24C31.7363 162.24 31.0742 162.029 30.6836 161.607C30.2969 161.182 30.0898 160.656 30.0625 160.031H31.0762ZM38.9395 161.32C39.6387 161.32 40.1172 161.057 40.375 160.529C40.6367 159.998 40.7676 159.408 40.7676 158.76C40.7676 158.174 40.6738 157.697 40.4863 157.33C40.1895 156.752 39.6777 156.463 38.9512 156.463C38.3066 156.463 37.8379 156.709 37.5449 157.201C37.252 157.693 37.1055 158.287 37.1055 158.982C37.1055 159.65 37.252 160.207 37.5449 160.652C37.8379 161.098 38.3027 161.32 38.9395 161.32ZM38.9805 155.543C39.7891 155.543 40.4727 155.812 41.0312 156.352C41.5898 156.891 41.8691 157.684 41.8691 158.73C41.8691 159.742 41.623 160.578 41.1309 161.238C40.6387 161.898 39.875 162.229 38.8398 162.229C37.9766 162.229 37.291 161.938 36.7832 161.355C36.2754 160.77 36.0215 159.984 36.0215 159C36.0215 157.945 36.2891 157.105 36.8242 156.48C37.3594 155.855 38.0781 155.543 38.9805 155.543ZM43.1582 153.393H44.2129V162H43.1582V153.393ZM46.8555 155.725V159.891C46.8555 160.211 46.9062 160.473 47.0078 160.676C47.1953 161.051 47.5449 161.238 48.0566 161.238C48.791 161.238 49.291 160.91 49.5566 160.254C49.7012 159.902 49.7734 159.42 49.7734 158.807V155.725H50.8281V162H49.832L49.8438 161.074C49.707 161.312 49.5371 161.514 49.334 161.678C48.9316 162.006 48.4434 162.17 47.8691 162.17C46.9746 162.17 46.3652 161.871 46.041 161.273C45.8652 160.953 45.7773 160.525 45.7773 159.99V155.725H46.8555ZM52.6914 153.973H53.7578V155.725H54.7598V156.586H53.7578V160.682C53.7578 160.9 53.832 161.047 53.9805 161.121C54.0625 161.164 54.1992 161.186 54.3906 161.186C54.4414 161.186 54.4961 161.186 54.5547 161.186C54.6133 161.182 54.6816 161.176 54.7598 161.168V162C54.6387 162.035 54.5117 162.061 54.3789 162.076C54.25 162.092 54.1094 162.1 53.957 162.1C53.4648 162.1 53.1309 161.975 52.9551 161.725C52.7793 161.471 52.6914 161.143 52.6914 160.74V156.586H51.8418V155.725H52.6914V153.973ZM55.8203 155.754H56.8926V162H55.8203V155.754ZM55.8203 153.393H56.8926V154.588H55.8203V153.393ZM60.9824 161.32C61.6816 161.32 62.1602 161.057 62.418 160.529C62.6797 159.998 62.8105 159.408 62.8105 158.76C62.8105 158.174 62.7168 157.697 62.5293 157.33C62.2324 156.752 61.7207 156.463 60.9941 156.463C60.3496 156.463 59.8809 156.709 59.5879 157.201C59.2949 157.693 59.1484 158.287 59.1484 158.982C59.1484 159.65 59.2949 160.207 59.5879 160.652C59.8809 161.098 60.3457 161.32 60.9824 161.32ZM61.0234 155.543C61.832 155.543 62.5156 155.812 63.0742 156.352C63.6328 156.891 63.9121 157.684 63.9121 158.73C63.9121 159.742 63.666 160.578 63.1738 161.238C62.6816 161.898 61.918 162.229 60.8828 162.229C60.0195 162.229 59.334 161.938 58.8262 161.355C58.3184 160.77 58.0645 159.984 58.0645 159C58.0645 157.945 58.332 157.105 58.8672 156.48C59.4023 155.855 60.1211 155.543 61.0234 155.543ZM65.1719 155.725H66.1738V156.615C66.4707 156.248 66.7852 155.984 67.1172 155.824C67.4492 155.664 67.8184 155.584 68.2246 155.584C69.1152 155.584 69.7168 155.895 70.0293 156.516C70.2012 156.855 70.2871 157.342 70.2871 157.975V162H69.2148V158.045C69.2148 157.662 69.1582 157.354 69.0449 157.119C68.8574 156.729 68.5176 156.533 68.0254 156.533C67.7754 156.533 67.5703 156.559 67.4102 156.609C67.1211 156.695 66.8672 156.867 66.6484 157.125C66.4727 157.332 66.3574 157.547 66.3027 157.77C66.252 157.988 66.2266 158.303 66.2266 158.713V162H65.1719V155.725ZM75.4023 153.973H76.4688V155.725H77.4707V156.586H76.4688V160.682C76.4688 160.9 76.543 161.047 76.6914 161.121C76.7734 161.164 76.9102 161.186 77.1016 161.186C77.1523 161.186 77.207 161.186 77.2656 161.186C77.3242 161.182 77.3926 161.176 77.4707 161.168V162C77.3496 162.035 77.2227 162.061 77.0898 162.076C76.9609 162.092 76.8203 162.1 76.668 162.1C76.1758 162.1 75.8418 161.975 75.666 161.725C75.4902 161.471 75.4023 161.143 75.4023 160.74V156.586H74.5527V155.725H75.4023V153.973ZM78.5312 155.754H79.6035V162H78.5312V155.754ZM78.5312 153.393H79.6035V154.588H78.5312V153.393ZM81.2031 155.725H82.2461V156.615C82.4961 156.307 82.7227 156.082 82.9258 155.941C83.2734 155.703 83.668 155.584 84.1094 155.584C84.6094 155.584 85.0117 155.707 85.3164 155.953C85.4883 156.094 85.6445 156.301 85.7852 156.574C86.0195 156.238 86.2949 155.99 86.6113 155.83C86.9277 155.666 87.2832 155.584 87.6777 155.584C88.5215 155.584 89.0957 155.889 89.4004 156.498C89.5645 156.826 89.6465 157.268 89.6465 157.822V162H88.5508V157.641C88.5508 157.223 88.4453 156.936 88.2344 156.779C88.0273 156.623 87.7734 156.545 87.4727 156.545C87.0586 156.545 86.7012 156.684 86.4004 156.961C86.1035 157.238 85.9551 157.701 85.9551 158.35V162H84.8828V157.904C84.8828 157.479 84.832 157.168 84.7305 156.973C84.5703 156.68 84.2715 156.533 83.834 156.533C83.4355 156.533 83.0723 156.688 82.7441 156.996C82.4199 157.305 82.2578 157.863 82.2578 158.672V162H81.2031V155.725ZM93.8125 155.584C94.2578 155.584 94.6895 155.689 95.1074 155.9C95.5254 156.107 95.8438 156.377 96.0625 156.709C96.2734 157.025 96.4141 157.395 96.4844 157.816C96.5469 158.105 96.5781 158.566 96.5781 159.199H91.9785C91.998 159.836 92.1484 160.348 92.4297 160.734C92.7109 161.117 93.1465 161.309 93.7363 161.309C94.2871 161.309 94.7266 161.127 95.0547 160.764C95.2422 160.553 95.375 160.309 95.4531 160.031H96.4902C96.4629 160.262 96.3711 160.52 96.2148 160.805C96.0625 161.086 95.8906 161.316 95.6992 161.496C95.3789 161.809 94.9824 162.02 94.5098 162.129C94.2559 162.191 93.9688 162.223 93.6484 162.223C92.8672 162.223 92.2051 161.939 91.6621 161.373C91.1191 160.803 90.8477 160.006 90.8477 158.982C90.8477 157.975 91.1211 157.156 91.668 156.527C92.2148 155.898 92.9297 155.584 93.8125 155.584ZM95.4941 158.361C95.4512 157.904 95.3516 157.539 95.1953 157.266C94.9062 156.758 94.4238 156.504 93.748 156.504C93.2637 156.504 92.8574 156.68 92.5293 157.031C92.2012 157.379 92.0273 157.822 92.0078 158.361H95.4941Z" fill="#3C3C3C"/>
<path d="M24.8281 128.781V132H22.7734V128.781H19.5703V126.742H22.7734V123.539H24.8281V126.742H28.0312V128.781H24.8281ZM31.4062 122.93C31.1562 123.263 31.0365 123.708 31.0469 124.266H28.9688C28.9896 123.703 29.0859 123.169 29.2578 122.664C29.4401 122.221 29.7266 121.812 30.1172 121.438C30.4089 121.172 30.7552 120.969 31.1562 120.828C31.5573 120.688 32.0495 120.617 32.6328 120.617C33.7161 120.617 34.5885 120.898 35.25 121.461C35.9167 122.018 36.25 122.768 36.25 123.711C36.25 124.378 36.0521 124.94 35.6562 125.398C35.4062 125.685 35.1458 125.88 34.875 125.984C35.0781 125.984 35.3698 126.159 35.75 126.508C36.3177 127.034 36.6016 127.753 36.6016 128.664C36.6016 129.622 36.2682 130.466 35.6016 131.195C34.9401 131.919 33.9583 132.281 32.6562 132.281C31.0521 132.281 29.9375 131.758 29.3125 130.711C28.9844 130.154 28.8021 129.424 28.7656 128.523H30.9531C30.9531 128.977 31.026 129.352 31.1719 129.648C31.4427 130.195 31.9349 130.469 32.6484 130.469C33.0859 130.469 33.4661 130.32 33.7891 130.023C34.1172 129.721 34.2812 129.289 34.2812 128.727C34.2812 127.982 33.9792 127.484 33.375 127.234C33.0312 127.094 32.4896 127.023 31.75 127.023V125.43C32.474 125.419 32.9792 125.349 33.2656 125.219C33.7604 125 34.0078 124.557 34.0078 123.891C34.0078 123.458 33.8802 123.107 33.625 122.836C33.375 122.565 33.0208 122.43 32.5625 122.43C32.0365 122.43 31.651 122.596 31.4062 122.93ZM41.6562 132.281C40.2135 132.281 39.2005 131.776 38.6172 130.766C38.0391 129.755 37.75 128.315 37.75 126.445C37.75 124.576 38.0391 123.133 38.6172 122.117C39.2005 121.102 40.2135 120.594 41.6562 120.594C43.099 120.594 44.112 121.102 44.6953 122.117C45.2734 123.133 45.5625 124.576 45.5625 126.445C45.5625 128.315 45.2708 129.755 44.6875 130.766C44.1094 131.776 43.099 132.281 41.6562 132.281ZM42.9609 129.43C43.1641 128.742 43.2656 127.747 43.2656 126.445C43.2656 125.081 43.1615 124.07 42.9531 123.414C42.75 122.758 42.3177 122.43 41.6562 122.43C40.9948 122.43 40.5573 122.758 40.3438 123.414C40.1302 124.07 40.0234 125.081 40.0234 126.445C40.0234 127.747 40.1302 128.745 40.3438 129.438C40.5573 130.125 40.9948 130.469 41.6562 130.469C42.3177 130.469 42.7526 130.122 42.9609 129.43ZM58.5703 129.32C58.5703 128.513 58.8542 127.826 59.4219 127.258C59.9896 126.695 60.6745 126.414 61.4766 126.414C62.2786 126.414 62.9635 126.698 63.5312 127.266C64.099 127.833 64.3828 128.518 64.3828 129.32C64.3828 130.122 64.099 130.807 63.5312 131.375C62.9635 131.943 62.2786 132.227 61.4766 132.227C60.6745 132.227 59.9896 131.943 59.4219 131.375C58.8542 130.807 58.5703 130.122 58.5703 129.32ZM51.8281 125.688C51.2604 125.12 50.9766 124.435 50.9766 123.633C50.9766 122.831 51.2604 122.146 51.8281 121.578C52.3958 121.01 53.0807 120.727 53.8828 120.727C54.6849 120.727 55.3698 121.01 55.9375 121.578C56.5052 122.146 56.7891 122.831 56.7891 123.633C56.7891 124.435 56.5052 125.12 55.9375 125.688C55.375 126.255 54.6901 126.539 53.8828 126.539C53.0807 126.539 52.3958 126.255 51.8281 125.688ZM55.1094 132.297H53.8984L60.2344 120.672H61.4219L55.1094 132.297ZM60.6016 130.195C60.8411 130.44 61.1328 130.562 61.4766 130.562C61.8203 130.562 62.112 130.443 62.3516 130.203C62.5964 129.958 62.7188 129.664 62.7188 129.32C62.7188 128.977 62.5964 128.685 62.3516 128.445C62.112 128.201 61.8203 128.078 61.4766 128.078C61.1328 128.078 60.8385 128.201 60.5938 128.445C60.3542 128.685 60.2344 128.977 60.2344 129.32C60.2344 129.664 60.3568 129.956 60.6016 130.195ZM53.0078 124.508C53.2474 124.753 53.5391 124.875 53.8828 124.875C54.2266 124.875 54.5182 124.755 54.7578 124.516C55.0026 124.271 55.125 123.977 55.125 123.633C55.125 123.289 55.0026 122.997 54.7578 122.758C54.5182 122.513 54.2266 122.391 53.8828 122.391C53.5391 122.391 53.2448 122.513 53 122.758C52.7604 122.997 52.6406 123.289 52.6406 123.633C52.6406 123.977 52.763 124.268 53.0078 124.508Z" fill="#3C3C3C"/>
<path opacity="0.2" d="M117 91C117 79.9543 125.954 71 137 71H237V239H117V91Z" fill="#4A4A4A"/>
<path d="M46 195C46 183.954 54.9543 175 66 175H176C187.046 175 196 183.954 196 195V239H46V195Z" fill="#F5F5F5"/>
<path d="M65.916 210.336C66.4629 210.336 66.8945 210.227 67.2109 210.008C67.5312 209.789 67.6914 209.395 67.6914 208.824C67.6914 208.211 67.4688 207.793 67.0234 207.57C66.7852 207.453 66.4668 207.395 66.0684 207.395H63.2207V210.336H65.916ZM62.0547 206.393H66.0391C66.6953 206.393 67.2363 206.488 67.6621 206.68C68.4707 207.047 68.875 207.725 68.875 208.713C68.875 209.229 68.7676 209.65 68.5527 209.979C68.3418 210.307 68.0449 210.57 67.6621 210.77C67.998 210.906 68.25 211.086 68.418 211.309C68.5898 211.531 68.6855 211.893 68.7051 212.393L68.7461 213.547C68.7578 213.875 68.7852 214.119 68.8281 214.279C68.8984 214.553 69.0234 214.729 69.2031 214.807V215H67.7734C67.7344 214.926 67.7031 214.83 67.6797 214.713C67.6562 214.596 67.6367 214.369 67.6211 214.033L67.5508 212.598C67.5234 212.035 67.3145 211.658 66.9238 211.467C66.7012 211.361 66.3516 211.309 65.875 211.309H63.2207V215H62.0547V206.393ZM73.0586 208.584C73.5039 208.584 73.9355 208.689 74.3535 208.9C74.7715 209.107 75.0898 209.377 75.3086 209.709C75.5195 210.025 75.6602 210.395 75.7305 210.816C75.793 211.105 75.8242 211.566 75.8242 212.199H71.2246C71.2441 212.836 71.3945 213.348 71.6758 213.734C71.957 214.117 72.3926 214.309 72.9824 214.309C73.5332 214.309 73.9727 214.127 74.3008 213.764C74.4883 213.553 74.6211 213.309 74.6992 213.031H75.7363C75.709 213.262 75.6172 213.52 75.4609 213.805C75.3086 214.086 75.1367 214.316 74.9453 214.496C74.625 214.809 74.2285 215.02 73.7559 215.129C73.502 215.191 73.2148 215.223 72.8945 215.223C72.1133 215.223 71.4512 214.939 70.9082 214.373C70.3652 213.803 70.0938 213.006 70.0938 211.982C70.0938 210.975 70.3672 210.156 70.9141 209.527C71.4609 208.898 72.1758 208.584 73.0586 208.584ZM74.7402 211.361C74.6973 210.904 74.5977 210.539 74.4414 210.266C74.1523 209.758 73.6699 209.504 72.9941 209.504C72.5098 209.504 72.1035 209.68 71.7754 210.031C71.4473 210.379 71.2734 210.822 71.2539 211.361H74.7402ZM77.3359 206.973H78.4023V208.725H79.4043V209.586H78.4023V213.682C78.4023 213.9 78.4766 214.047 78.625 214.121C78.707 214.164 78.8438 214.186 79.0352 214.186C79.0859 214.186 79.1406 214.186 79.1992 214.186C79.2578 214.182 79.3262 214.176 79.4043 214.168V215C79.2832 215.035 79.1562 215.061 79.0234 215.076C78.8945 215.092 78.7539 215.1 78.6016 215.1C78.1094 215.1 77.7754 214.975 77.5996 214.725C77.4238 214.471 77.3359 214.143 77.3359 213.74V209.586H76.4863V208.725H77.3359V206.973ZM81.5195 208.725V212.891C81.5195 213.211 81.5703 213.473 81.6719 213.676C81.8594 214.051 82.209 214.238 82.7207 214.238C83.4551 214.238 83.9551 213.91 84.2207 213.254C84.3652 212.902 84.4375 212.42 84.4375 211.807V208.725H85.4922V215H84.4961L84.5078 214.074C84.3711 214.312 84.2012 214.514 83.998 214.678C83.5957 215.006 83.1074 215.17 82.5332 215.17C81.6387 215.17 81.0293 214.871 80.7051 214.273C80.5293 213.953 80.4414 213.525 80.4414 212.99V208.725H81.5195ZM87.1738 208.725H88.1758V209.809C88.2578 209.598 88.459 209.342 88.7793 209.041C89.0996 208.736 89.4688 208.584 89.8867 208.584C89.9062 208.584 89.9395 208.586 89.9863 208.59C90.0332 208.594 90.1133 208.602 90.2266 208.613V209.727C90.1641 209.715 90.1055 209.707 90.0508 209.703C90 209.699 89.9434 209.697 89.8809 209.697C89.3496 209.697 88.9414 209.869 88.6562 210.213C88.3711 210.553 88.2285 210.945 88.2285 211.391V215H87.1738V208.725ZM91.1406 208.725H92.1426V209.615C92.4395 209.248 92.7539 208.984 93.0859 208.824C93.418 208.664 93.7871 208.584 94.1934 208.584C95.084 208.584 95.6855 208.895 95.998 209.516C96.1699 209.855 96.2559 210.342 96.2559 210.975V215H95.1836V211.045C95.1836 210.662 95.127 210.354 95.0137 210.119C94.8262 209.729 94.4863 209.533 93.9941 209.533C93.7441 209.533 93.5391 209.559 93.3789 209.609C93.0898 209.695 92.8359 209.867 92.6172 210.125C92.4414 210.332 92.3262 210.547 92.2715 210.77C92.2207 210.988 92.1953 211.303 92.1953 211.713V215H91.1406V208.725ZM97.8203 208.754H98.8926V215H97.8203V208.754ZM97.8203 206.393H98.8926V207.588H97.8203V206.393ZM100.492 208.725H101.494V209.615C101.791 209.248 102.105 208.984 102.438 208.824C102.77 208.664 103.139 208.584 103.545 208.584C104.436 208.584 105.037 208.895 105.35 209.516C105.521 209.855 105.607 210.342 105.607 210.975V215H104.535V211.045C104.535 210.662 104.479 210.354 104.365 210.119C104.178 209.729 103.838 209.533 103.346 209.533C103.096 209.533 102.891 209.559 102.73 209.609C102.441 209.695 102.188 209.867 101.969 210.125C101.793 210.332 101.678 210.547 101.623 210.77C101.572 210.988 101.547 211.303 101.547 211.713V215H100.492V208.725ZM109.387 208.613C109.879 208.613 110.309 208.734 110.676 208.977C110.875 209.113 111.078 209.312 111.285 209.574V208.783H112.258V214.49C112.258 215.287 112.141 215.916 111.906 216.377C111.469 217.229 110.643 217.654 109.428 217.654C108.752 217.654 108.184 217.502 107.723 217.197C107.262 216.896 107.004 216.424 106.949 215.779H108.021C108.072 216.061 108.174 216.277 108.326 216.43C108.564 216.664 108.939 216.781 109.451 216.781C110.26 216.781 110.789 216.496 111.039 215.926C111.188 215.59 111.256 214.99 111.244 214.127C111.033 214.447 110.779 214.686 110.482 214.842C110.186 214.998 109.793 215.076 109.305 215.076C108.625 215.076 108.029 214.836 107.518 214.355C107.01 213.871 106.756 213.072 106.756 211.959C106.756 210.908 107.012 210.088 107.523 209.498C108.039 208.908 108.66 208.613 109.387 208.613ZM111.285 211.836C111.285 211.059 111.125 210.482 110.805 210.107C110.484 209.732 110.076 209.545 109.58 209.545C108.838 209.545 108.33 209.893 108.057 210.588C107.912 210.959 107.84 211.445 107.84 212.047C107.84 212.754 107.982 213.293 108.268 213.664C108.557 214.031 108.943 214.215 109.428 214.215C110.186 214.215 110.719 213.873 111.027 213.189C111.199 212.803 111.285 212.352 111.285 211.836ZM65.541 219.158C66.6309 219.158 67.4766 219.445 68.0781 220.02C68.6797 220.594 69.0137 221.246 69.0801 221.977H67.9434C67.8145 221.422 67.5566 220.982 67.1699 220.658C66.7871 220.334 66.248 220.172 65.5527 220.172C64.7051 220.172 64.0195 220.471 63.4961 221.068C62.9766 221.662 62.7168 222.574 62.7168 223.805C62.7168 224.812 62.9512 225.631 63.4199 226.26C63.8926 226.885 64.5957 227.197 65.5293 227.197C66.3887 227.197 67.043 226.867 67.4922 226.207C67.7305 225.859 67.9082 225.402 68.0254 224.836H69.1621C69.0605 225.742 68.7246 226.502 68.1543 227.115C67.4707 227.854 66.5488 228.223 65.3887 228.223C64.3887 228.223 63.5488 227.92 62.8691 227.314C61.9746 226.514 61.5273 225.277 61.5273 223.605C61.5273 222.336 61.8633 221.295 62.5352 220.482C63.2617 219.6 64.2637 219.158 65.541 219.158ZM71.5 221.725V225.891C71.5 226.211 71.5508 226.473 71.6523 226.676C71.8398 227.051 72.1895 227.238 72.7012 227.238C73.4355 227.238 73.9355 226.91 74.2012 226.254C74.3457 225.902 74.418 225.42 74.418 224.807V221.725H75.4727V228H74.4766L74.4883 227.074C74.3516 227.312 74.1816 227.514 73.9785 227.678C73.5762 228.006 73.0879 228.17 72.5137 228.17C71.6191 228.17 71.0098 227.871 70.6855 227.273C70.5098 226.953 70.4219 226.525 70.4219 225.99V221.725H71.5ZM77.752 226.031C77.7832 226.383 77.8711 226.652 78.0156 226.84C78.2812 227.18 78.7422 227.35 79.3984 227.35C79.7891 227.35 80.1328 227.266 80.4297 227.098C80.7266 226.926 80.875 226.662 80.875 226.307C80.875 226.037 80.7559 225.832 80.5176 225.691C80.3652 225.605 80.0645 225.506 79.6152 225.393L78.7773 225.182C78.2422 225.049 77.8477 224.9 77.5938 224.736C77.1406 224.451 76.9141 224.057 76.9141 223.553C76.9141 222.959 77.127 222.479 77.5527 222.111C77.9824 221.744 78.5586 221.561 79.2812 221.561C80.2266 221.561 80.9082 221.838 81.3262 222.393C81.5879 222.744 81.7148 223.123 81.707 223.529H80.7109C80.6914 223.291 80.6074 223.074 80.459 222.879C80.2168 222.602 79.7969 222.463 79.1992 222.463C78.8008 222.463 78.498 222.539 78.291 222.691C78.0879 222.844 77.9863 223.045 77.9863 223.295C77.9863 223.568 78.1211 223.787 78.3906 223.951C78.5469 224.049 78.7773 224.135 79.082 224.209L79.7793 224.379C80.5371 224.562 81.0449 224.74 81.3027 224.912C81.7129 225.182 81.918 225.605 81.918 226.184C81.918 226.742 81.7051 227.225 81.2793 227.631C80.8574 228.037 80.2129 228.24 79.3457 228.24C78.4121 228.24 77.75 228.029 77.3594 227.607C76.9727 227.182 76.7656 226.656 76.7383 226.031H77.752ZM83.3359 219.973H84.4023V221.725H85.4043V222.586H84.4023V226.682C84.4023 226.9 84.4766 227.047 84.625 227.121C84.707 227.164 84.8438 227.186 85.0352 227.186C85.0859 227.186 85.1406 227.186 85.1992 227.186C85.2578 227.182 85.3262 227.176 85.4043 227.168V228C85.2832 228.035 85.1562 228.061 85.0234 228.076C84.8945 228.092 84.7539 228.1 84.6016 228.1C84.1094 228.1 83.7754 227.975 83.5996 227.725C83.4238 227.471 83.3359 227.143 83.3359 226.74V222.586H82.4863V221.725H83.3359V219.973ZM88.9551 227.32C89.6543 227.32 90.1328 227.057 90.3906 226.529C90.6523 225.998 90.7832 225.408 90.7832 224.76C90.7832 224.174 90.6895 223.697 90.502 223.33C90.2051 222.752 89.6934 222.463 88.9668 222.463C88.3223 222.463 87.8535 222.709 87.5605 223.201C87.2676 223.693 87.1211 224.287 87.1211 224.982C87.1211 225.65 87.2676 226.207 87.5605 226.652C87.8535 227.098 88.3184 227.32 88.9551 227.32ZM88.9961 221.543C89.8047 221.543 90.4883 221.812 91.0469 222.352C91.6055 222.891 91.8848 223.684 91.8848 224.73C91.8848 225.742 91.6387 226.578 91.1465 227.238C90.6543 227.898 89.8906 228.229 88.8555 228.229C87.9922 228.229 87.3066 227.938 86.7988 227.355C86.291 226.77 86.0371 225.984 86.0371 225C86.0371 223.945 86.3047 223.105 86.8398 222.48C87.375 221.855 88.0938 221.543 88.9961 221.543ZM93.1445 221.725H94.1875V222.615C94.4375 222.307 94.6641 222.082 94.8672 221.941C95.2148 221.703 95.6094 221.584 96.0508 221.584C96.5508 221.584 96.9531 221.707 97.2578 221.953C97.4297 222.094 97.5859 222.301 97.7266 222.574C97.9609 222.238 98.2363 221.99 98.5527 221.83C98.8691 221.666 99.2246 221.584 99.6191 221.584C100.463 221.584 101.037 221.889 101.342 222.498C101.506 222.826 101.588 223.268 101.588 223.822V228H100.492V223.641C100.492 223.223 100.387 222.936 100.176 222.779C99.9688 222.623 99.7148 222.545 99.4141 222.545C99 222.545 98.6426 222.684 98.3418 222.961C98.0449 223.238 97.8965 223.701 97.8965 224.35V228H96.8242V223.904C96.8242 223.479 96.7734 223.168 96.6719 222.973C96.5117 222.68 96.2129 222.533 95.7754 222.533C95.377 222.533 95.0137 222.688 94.6855 222.996C94.3613 223.305 94.1992 223.863 94.1992 224.672V228H93.1445V221.725ZM105.754 221.584C106.199 221.584 106.631 221.689 107.049 221.9C107.467 222.107 107.785 222.377 108.004 222.709C108.215 223.025 108.355 223.395 108.426 223.816C108.488 224.105 108.52 224.566 108.52 225.199H103.92C103.939 225.836 104.09 226.348 104.371 226.734C104.652 227.117 105.088 227.309 105.678 227.309C106.229 227.309 106.668 227.127 106.996 226.764C107.184 226.553 107.316 226.309 107.395 226.031H108.432C108.404 226.262 108.312 226.52 108.156 226.805C108.004 227.086 107.832 227.316 107.641 227.496C107.32 227.809 106.924 228.02 106.451 228.129C106.197 228.191 105.91 228.223 105.59 228.223C104.809 228.223 104.146 227.939 103.604 227.373C103.061 226.803 102.789 226.006 102.789 224.982C102.789 223.975 103.062 223.156 103.609 222.527C104.156 221.898 104.871 221.584 105.754 221.584ZM107.436 224.361C107.393 223.904 107.293 223.539 107.137 223.266C106.848 222.758 106.365 222.504 105.689 222.504C105.205 222.504 104.799 222.68 104.471 223.031C104.143 223.379 103.969 223.822 103.949 224.361H107.436ZM109.85 221.725H110.852V222.809C110.934 222.598 111.135 222.342 111.455 222.041C111.775 221.736 112.145 221.584 112.562 221.584C112.582 221.584 112.615 221.586 112.662 221.59C112.709 221.594 112.789 221.602 112.902 221.613V222.727C112.84 222.715 112.781 222.707 112.727 222.703C112.676 222.699 112.619 222.697 112.557 222.697C112.025 222.697 111.617 222.869 111.332 223.213C111.047 223.553 110.904 223.945 110.904 224.391V228H109.85V221.725ZM114.443 226.031C114.475 226.383 114.562 226.652 114.707 226.84C114.973 227.18 115.434 227.35 116.09 227.35C116.48 227.35 116.824 227.266 117.121 227.098C117.418 226.926 117.566 226.662 117.566 226.307C117.566 226.037 117.447 225.832 117.209 225.691C117.057 225.605 116.756 225.506 116.307 225.393L115.469 225.182C114.934 225.049 114.539 224.9 114.285 224.736C113.832 224.451 113.605 224.057 113.605 223.553C113.605 222.959 113.818 222.479 114.244 222.111C114.674 221.744 115.25 221.561 115.973 221.561C116.918 221.561 117.6 221.838 118.018 222.393C118.279 222.744 118.406 223.123 118.398 223.529H117.402C117.383 223.291 117.299 223.074 117.15 222.879C116.908 222.602 116.488 222.463 115.891 222.463C115.492 222.463 115.189 222.539 114.982 222.691C114.779 222.844 114.678 223.045 114.678 223.295C114.678 223.568 114.812 223.787 115.082 223.951C115.238 224.049 115.469 224.135 115.773 224.209L116.471 224.379C117.229 224.562 117.736 224.74 117.994 224.912C118.404 225.182 118.609 225.605 118.609 226.184C118.609 226.742 118.396 227.225 117.971 227.631C117.549 228.037 116.904 228.24 116.037 228.24C115.104 228.24 114.441 228.029 114.051 227.607C113.664 227.182 113.457 226.656 113.43 226.031H114.443Z" fill="#3C3C3C"/>
<path d="M66.8281 196.781V200H64.7734V196.781H61.5703V194.742H64.7734V191.539H66.8281V194.742H70.0312V196.781H66.8281ZM73.4062 190.93C73.1562 191.263 73.0365 191.708 73.0469 192.266H70.9688C70.9896 191.703 71.0859 191.169 71.2578 190.664C71.4401 190.221 71.7266 189.812 72.1172 189.438C72.4089 189.172 72.7552 188.969 73.1562 188.828C73.5573 188.688 74.0495 188.617 74.6328 188.617C75.7161 188.617 76.5885 188.898 77.25 189.461C77.9167 190.018 78.25 190.768 78.25 191.711C78.25 192.378 78.0521 192.94 77.6562 193.398C77.4062 193.685 77.1458 193.88 76.875 193.984C77.0781 193.984 77.3698 194.159 77.75 194.508C78.3177 195.034 78.6016 195.753 78.6016 196.664C78.6016 197.622 78.2682 198.466 77.6016 199.195C76.9401 199.919 75.9583 200.281 74.6562 200.281C73.0521 200.281 71.9375 199.758 71.3125 198.711C70.9844 198.154 70.8021 197.424 70.7656 196.523H72.9531C72.9531 196.977 73.026 197.352 73.1719 197.648C73.4427 198.195 73.9349 198.469 74.6484 198.469C75.0859 198.469 75.4661 198.32 75.7891 198.023C76.1172 197.721 76.2812 197.289 76.2812 196.727C76.2812 195.982 75.9792 195.484 75.375 195.234C75.0312 195.094 74.4896 195.023 73.75 195.023V193.43C74.474 193.419 74.9792 193.349 75.2656 193.219C75.7604 193 76.0078 192.557 76.0078 191.891C76.0078 191.458 75.8802 191.107 75.625 190.836C75.375 190.565 75.0208 190.43 74.5625 190.43C74.0365 190.43 73.651 190.596 73.4062 190.93ZM83.6562 200.281C82.2135 200.281 81.2005 199.776 80.6172 198.766C80.0391 197.755 79.75 196.315 79.75 194.445C79.75 192.576 80.0391 191.133 80.6172 190.117C81.2005 189.102 82.2135 188.594 83.6562 188.594C85.099 188.594 86.112 189.102 86.6953 190.117C87.2734 191.133 87.5625 192.576 87.5625 194.445C87.5625 196.315 87.2708 197.755 86.6875 198.766C86.1094 199.776 85.099 200.281 83.6562 200.281ZM84.9609 197.43C85.1641 196.742 85.2656 195.747 85.2656 194.445C85.2656 193.081 85.1615 192.07 84.9531 191.414C84.75 190.758 84.3177 190.43 83.6562 190.43C82.9948 190.43 82.5573 190.758 82.3438 191.414C82.1302 192.07 82.0234 193.081 82.0234 194.445C82.0234 195.747 82.1302 196.745 82.3438 197.438C82.5573 198.125 82.9948 198.469 83.6562 198.469C84.3177 198.469 84.7526 198.122 84.9609 197.43ZM100.57 197.32C100.57 196.513 100.854 195.826 101.422 195.258C101.99 194.695 102.674 194.414 103.477 194.414C104.279 194.414 104.964 194.698 105.531 195.266C106.099 195.833 106.383 196.518 106.383 197.32C106.383 198.122 106.099 198.807 105.531 199.375C104.964 199.943 104.279 200.227 103.477 200.227C102.674 200.227 101.99 199.943 101.422 199.375C100.854 198.807 100.57 198.122 100.57 197.32ZM93.8281 193.688C93.2604 193.12 92.9766 192.435 92.9766 191.633C92.9766 190.831 93.2604 190.146 93.8281 189.578C94.3958 189.01 95.0807 188.727 95.8828 188.727C96.6849 188.727 97.3698 189.01 97.9375 189.578C98.5052 190.146 98.7891 190.831 98.7891 191.633C98.7891 192.435 98.5052 193.12 97.9375 193.688C97.375 194.255 96.6901 194.539 95.8828 194.539C95.0807 194.539 94.3958 194.255 93.8281 193.688ZM97.1094 200.297H95.8984L102.234 188.672H103.422L97.1094 200.297ZM102.602 198.195C102.841 198.44 103.133 198.562 103.477 198.562C103.82 198.562 104.112 198.443 104.352 198.203C104.596 197.958 104.719 197.664 104.719 197.32C104.719 196.977 104.596 196.685 104.352 196.445C104.112 196.201 103.82 196.078 103.477 196.078C103.133 196.078 102.839 196.201 102.594 196.445C102.354 196.685 102.234 196.977 102.234 197.32C102.234 197.664 102.357 197.956 102.602 198.195ZM95.0078 192.508C95.2474 192.753 95.5391 192.875 95.8828 192.875C96.2266 192.875 96.5182 192.755 96.7578 192.516C97.0026 192.271 97.125 191.977 97.125 191.633C97.125 191.289 97.0026 190.997 96.7578 190.758C96.5182 190.513 96.2266 190.391 95.8828 190.391C95.5391 190.391 95.2448 190.513 95 190.758C94.7604 190.997 94.6406 191.289 94.6406 191.633C94.6406 191.977 94.763 192.268 95.0078 192.508Z" fill="#3C3C3C"/>
<path d="M131.025 113.393H136.996V114.447H132.191V117.061H136.416V118.086H132.191V122H131.025V113.393ZM138.918 120.33C138.918 120.635 139.029 120.875 139.252 121.051C139.475 121.227 139.738 121.314 140.043 121.314C140.414 121.314 140.773 121.229 141.121 121.057C141.707 120.771 142 120.305 142 119.656V118.807C141.871 118.889 141.705 118.957 141.502 119.012C141.299 119.066 141.1 119.105 140.904 119.129L140.266 119.211C139.883 119.262 139.596 119.342 139.404 119.451C139.08 119.635 138.918 119.928 138.918 120.33ZM141.473 118.197C141.715 118.166 141.877 118.064 141.959 117.893C142.006 117.799 142.029 117.664 142.029 117.488C142.029 117.129 141.9 116.869 141.643 116.709C141.389 116.545 141.023 116.463 140.547 116.463C139.996 116.463 139.605 116.611 139.375 116.908C139.246 117.072 139.162 117.316 139.123 117.641H138.139C138.158 116.867 138.408 116.33 138.889 116.029C139.373 115.725 139.934 115.572 140.57 115.572C141.309 115.572 141.908 115.713 142.369 115.994C142.826 116.275 143.055 116.713 143.055 117.307V120.922C143.055 121.031 143.076 121.119 143.119 121.186C143.166 121.252 143.262 121.285 143.406 121.285C143.453 121.285 143.506 121.283 143.564 121.279C143.623 121.271 143.686 121.262 143.752 121.25V122.029C143.588 122.076 143.463 122.105 143.377 122.117C143.291 122.129 143.174 122.135 143.025 122.135C142.662 122.135 142.398 122.006 142.234 121.748C142.148 121.611 142.088 121.418 142.053 121.168C141.838 121.449 141.529 121.693 141.127 121.9C140.725 122.107 140.281 122.211 139.797 122.211C139.215 122.211 138.738 122.035 138.367 121.684C138 121.328 137.816 120.885 137.816 120.354C137.816 119.771 137.998 119.32 138.361 119C138.725 118.68 139.201 118.482 139.791 118.408L141.473 118.197ZM145.416 120.031C145.447 120.383 145.535 120.652 145.68 120.84C145.945 121.18 146.406 121.35 147.062 121.35C147.453 121.35 147.797 121.266 148.094 121.098C148.391 120.926 148.539 120.662 148.539 120.307C148.539 120.037 148.42 119.832 148.182 119.691C148.029 119.605 147.729 119.506 147.279 119.393L146.441 119.182C145.906 119.049 145.512 118.9 145.258 118.736C144.805 118.451 144.578 118.057 144.578 117.553C144.578 116.959 144.791 116.479 145.217 116.111C145.646 115.744 146.223 115.561 146.945 115.561C147.891 115.561 148.572 115.838 148.99 116.393C149.252 116.744 149.379 117.123 149.371 117.529H148.375C148.355 117.291 148.271 117.074 148.123 116.879C147.881 116.602 147.461 116.463 146.863 116.463C146.465 116.463 146.162 116.539 145.955 116.691C145.752 116.844 145.65 117.045 145.65 117.295C145.65 117.568 145.785 117.787 146.055 117.951C146.211 118.049 146.441 118.135 146.746 118.209L147.443 118.379C148.201 118.562 148.709 118.74 148.967 118.912C149.377 119.182 149.582 119.605 149.582 120.184C149.582 120.742 149.369 121.225 148.943 121.631C148.521 122.037 147.877 122.24 147.01 122.24C146.076 122.24 145.414 122.029 145.023 121.607C144.637 121.182 144.43 120.656 144.402 120.031H145.416ZM151 113.973H152.066V115.725H153.068V116.586H152.066V120.682C152.066 120.9 152.141 121.047 152.289 121.121C152.371 121.164 152.508 121.186 152.699 121.186C152.75 121.186 152.805 121.186 152.863 121.186C152.922 121.182 152.99 121.176 153.068 121.168V122C152.947 122.035 152.82 122.061 152.688 122.076C152.559 122.092 152.418 122.1 152.266 122.1C151.773 122.1 151.439 121.975 151.264 121.725C151.088 121.471 151 121.143 151 120.74V116.586H150.15V115.725H151V113.973ZM156.742 115.584C157.188 115.584 157.619 115.689 158.037 115.9C158.455 116.107 158.773 116.377 158.992 116.709C159.203 117.025 159.344 117.395 159.414 117.816C159.477 118.105 159.508 118.566 159.508 119.199H154.908C154.928 119.836 155.078 120.348 155.359 120.734C155.641 121.117 156.076 121.309 156.666 121.309C157.217 121.309 157.656 121.127 157.984 120.764C158.172 120.553 158.305 120.309 158.383 120.031H159.42C159.393 120.262 159.301 120.52 159.145 120.805C158.992 121.086 158.82 121.316 158.629 121.496C158.309 121.809 157.912 122.02 157.439 122.129C157.186 122.191 156.898 122.223 156.578 122.223C155.797 122.223 155.135 121.939 154.592 121.373C154.049 120.803 153.777 120.006 153.777 118.982C153.777 117.975 154.051 117.156 154.598 116.527C155.145 115.898 155.859 115.584 156.742 115.584ZM158.424 118.361C158.381 117.904 158.281 117.539 158.125 117.266C157.836 116.758 157.354 116.504 156.678 116.504C156.193 116.504 155.787 116.68 155.459 117.031C155.131 117.379 154.957 117.822 154.938 118.361H158.424ZM160.838 115.725H161.84V116.809C161.922 116.598 162.123 116.342 162.443 116.041C162.764 115.736 163.133 115.584 163.551 115.584C163.57 115.584 163.604 115.586 163.65 115.59C163.697 115.594 163.777 115.602 163.891 115.613V116.727C163.828 116.715 163.77 116.707 163.715 116.703C163.664 116.699 163.607 116.697 163.545 116.697C163.014 116.697 162.605 116.869 162.32 117.213C162.035 117.553 161.893 117.945 161.893 118.391V122H160.838V115.725ZM130.803 128.725H131.805V129.809C131.887 129.598 132.088 129.342 132.408 129.041C132.729 128.736 133.098 128.584 133.516 128.584C133.535 128.584 133.568 128.586 133.615 128.59C133.662 128.594 133.742 128.602 133.855 128.613V129.727C133.793 129.715 133.734 129.707 133.68 129.703C133.629 129.699 133.572 129.697 133.51 129.697C132.979 129.697 132.57 129.869 132.285 130.213C132 130.553 131.857 130.945 131.857 131.391V135H130.803V128.725ZM137.383 128.584C137.828 128.584 138.26 128.689 138.678 128.9C139.096 129.107 139.414 129.377 139.633 129.709C139.844 130.025 139.984 130.395 140.055 130.816C140.117 131.105 140.148 131.566 140.148 132.199H135.549C135.568 132.836 135.719 133.348 136 133.734C136.281 134.117 136.717 134.309 137.307 134.309C137.857 134.309 138.297 134.127 138.625 133.764C138.812 133.553 138.945 133.309 139.023 133.031H140.061C140.033 133.262 139.941 133.52 139.785 133.805C139.633 134.086 139.461 134.316 139.27 134.496C138.949 134.809 138.553 135.02 138.08 135.129C137.826 135.191 137.539 135.223 137.219 135.223C136.438 135.223 135.775 134.939 135.232 134.373C134.689 133.803 134.418 133.006 134.418 131.982C134.418 130.975 134.691 130.156 135.238 129.527C135.785 128.898 136.5 128.584 137.383 128.584ZM139.064 131.361C139.021 130.904 138.922 130.539 138.766 130.266C138.477 129.758 137.994 129.504 137.318 129.504C136.834 129.504 136.428 129.68 136.1 130.031C135.771 130.379 135.598 130.822 135.578 131.361H139.064ZM142.076 133.031C142.107 133.383 142.195 133.652 142.34 133.84C142.605 134.18 143.066 134.35 143.723 134.35C144.113 134.35 144.457 134.266 144.754 134.098C145.051 133.926 145.199 133.662 145.199 133.307C145.199 133.037 145.08 132.832 144.842 132.691C144.689 132.605 144.389 132.506 143.939 132.393L143.102 132.182C142.566 132.049 142.172 131.9 141.918 131.736C141.465 131.451 141.238 131.057 141.238 130.553C141.238 129.959 141.451 129.479 141.877 129.111C142.307 128.744 142.883 128.561 143.605 128.561C144.551 128.561 145.232 128.838 145.65 129.393C145.912 129.744 146.039 130.123 146.031 130.529H145.035C145.016 130.291 144.932 130.074 144.783 129.879C144.541 129.602 144.121 129.463 143.523 129.463C143.125 129.463 142.822 129.539 142.615 129.691C142.412 129.844 142.311 130.045 142.311 130.295C142.311 130.568 142.445 130.787 142.715 130.951C142.871 131.049 143.102 131.135 143.406 131.209L144.104 131.379C144.861 131.562 145.369 131.74 145.627 131.912C146.037 132.182 146.242 132.605 146.242 133.184C146.242 133.742 146.029 134.225 145.604 134.631C145.182 135.037 144.537 135.24 143.67 135.24C142.736 135.24 142.074 135.029 141.684 134.607C141.297 134.182 141.09 133.656 141.062 133.031H142.076ZM149.939 134.32C150.639 134.32 151.117 134.057 151.375 133.529C151.637 132.998 151.768 132.408 151.768 131.76C151.768 131.174 151.674 130.697 151.486 130.33C151.189 129.752 150.678 129.463 149.951 129.463C149.307 129.463 148.838 129.709 148.545 130.201C148.252 130.693 148.105 131.287 148.105 131.982C148.105 132.65 148.252 133.207 148.545 133.652C148.838 134.098 149.303 134.32 149.939 134.32ZM149.98 128.543C150.789 128.543 151.473 128.812 152.031 129.352C152.59 129.891 152.869 130.684 152.869 131.73C152.869 132.742 152.623 133.578 152.131 134.238C151.639 134.898 150.875 135.229 149.84 135.229C148.977 135.229 148.291 134.938 147.783 134.355C147.275 133.77 147.021 132.984 147.021 132C147.021 130.945 147.289 130.105 147.824 129.48C148.359 128.855 149.078 128.543 149.98 128.543ZM154.158 126.393H155.213V135H154.158V126.393ZM157.855 128.725V132.891C157.855 133.211 157.906 133.473 158.008 133.676C158.195 134.051 158.545 134.238 159.057 134.238C159.791 134.238 160.291 133.91 160.557 133.254C160.701 132.902 160.773 132.42 160.773 131.807V128.725H161.828V135H160.832L160.844 134.074C160.707 134.312 160.537 134.514 160.334 134.678C159.932 135.006 159.443 135.17 158.869 135.17C157.975 135.17 157.365 134.871 157.041 134.273C156.865 133.953 156.777 133.525 156.777 132.99V128.725H157.855ZM163.691 126.973H164.758V128.725H165.76V129.586H164.758V133.682C164.758 133.9 164.832 134.047 164.98 134.121C165.062 134.164 165.199 134.186 165.391 134.186C165.441 134.186 165.496 134.186 165.555 134.186C165.613 134.182 165.682 134.176 165.76 134.168V135C165.639 135.035 165.512 135.061 165.379 135.076C165.25 135.092 165.109 135.1 164.957 135.1C164.465 135.1 164.131 134.975 163.955 134.725C163.779 134.471 163.691 134.143 163.691 133.74V129.586H162.842V128.725H163.691V126.973ZM166.82 128.754H167.893V135H166.82V128.754ZM166.82 126.393H167.893V127.588H166.82V126.393ZM171.982 134.32C172.682 134.32 173.16 134.057 173.418 133.529C173.68 132.998 173.811 132.408 173.811 131.76C173.811 131.174 173.717 130.697 173.529 130.33C173.232 129.752 172.721 129.463 171.994 129.463C171.35 129.463 170.881 129.709 170.588 130.201C170.295 130.693 170.148 131.287 170.148 131.982C170.148 132.65 170.295 133.207 170.588 133.652C170.881 134.098 171.346 134.32 171.982 134.32ZM172.023 128.543C172.832 128.543 173.516 128.812 174.074 129.352C174.633 129.891 174.912 130.684 174.912 131.73C174.912 132.742 174.666 133.578 174.174 134.238C173.682 134.898 172.918 135.229 171.883 135.229C171.02 135.229 170.334 134.938 169.826 134.355C169.318 133.77 169.064 132.984 169.064 132C169.064 130.945 169.332 130.105 169.867 129.48C170.402 128.855 171.121 128.543 172.023 128.543ZM176.172 128.725H177.174V129.615C177.471 129.248 177.785 128.984 178.117 128.824C178.449 128.664 178.818 128.584 179.225 128.584C180.115 128.584 180.717 128.895 181.029 129.516C181.201 129.855 181.287 130.342 181.287 130.975V135H180.215V131.045C180.215 130.662 180.158 130.354 180.045 130.119C179.857 129.729 179.518 129.533 179.025 129.533C178.775 129.533 178.57 129.559 178.41 129.609C178.121 129.695 177.867 129.867 177.648 130.125C177.473 130.332 177.357 130.547 177.303 130.77C177.252 130.988 177.227 131.303 177.227 131.713V135H176.172V128.725ZM186.402 126.973H187.469V128.725H188.471V129.586H187.469V133.682C187.469 133.9 187.543 134.047 187.691 134.121C187.773 134.164 187.91 134.186 188.102 134.186C188.152 134.186 188.207 134.186 188.266 134.186C188.324 134.182 188.393 134.176 188.471 134.168V135C188.35 135.035 188.223 135.061 188.09 135.076C187.961 135.092 187.82 135.1 187.668 135.1C187.176 135.1 186.842 134.975 186.666 134.725C186.49 134.471 186.402 134.143 186.402 133.74V129.586H185.553V128.725H186.402V126.973ZM189.531 128.754H190.604V135H189.531V128.754ZM189.531 126.393H190.604V127.588H189.531V126.393ZM192.203 128.725H193.246V129.615C193.496 129.307 193.723 129.082 193.926 128.941C194.273 128.703 194.668 128.584 195.109 128.584C195.609 128.584 196.012 128.707 196.316 128.953C196.488 129.094 196.645 129.301 196.785 129.574C197.02 129.238 197.295 128.99 197.611 128.83C197.928 128.666 198.283 128.584 198.678 128.584C199.521 128.584 200.096 128.889 200.4 129.498C200.564 129.826 200.646 130.268 200.646 130.822V135H199.551V130.641C199.551 130.223 199.445 129.936 199.234 129.779C199.027 129.623 198.773 129.545 198.473 129.545C198.059 129.545 197.701 129.684 197.4 129.961C197.104 130.238 196.955 130.701 196.955 131.35V135H195.883V130.904C195.883 130.479 195.832 130.168 195.73 129.973C195.57 129.68 195.271 129.533 194.834 129.533C194.436 129.533 194.072 129.688 193.744 129.996C193.42 130.305 193.258 130.863 193.258 131.672V135H192.203V128.725ZM204.812 128.584C205.258 128.584 205.689 128.689 206.107 128.9C206.525 129.107 206.844 129.377 207.062 129.709C207.273 130.025 207.414 130.395 207.484 130.816C207.547 131.105 207.578 131.566 207.578 132.199H202.979C202.998 132.836 203.148 133.348 203.43 133.734C203.711 134.117 204.146 134.309 204.736 134.309C205.287 134.309 205.727 134.127 206.055 133.764C206.242 133.553 206.375 133.309 206.453 133.031H207.49C207.463 133.262 207.371 133.52 207.215 133.805C207.062 134.086 206.891 134.316 206.699 134.496C206.379 134.809 205.982 135.02 205.51 135.129C205.256 135.191 204.969 135.223 204.648 135.223C203.867 135.223 203.205 134.939 202.662 134.373C202.119 133.803 201.848 133.006 201.848 131.982C201.848 130.975 202.121 130.156 202.668 129.527C203.215 128.898 203.93 128.584 204.812 128.584ZM206.494 131.361C206.451 130.904 206.352 130.539 206.195 130.266C205.906 129.758 205.424 129.504 204.748 129.504C204.264 129.504 203.857 129.68 203.529 130.031C203.201 130.379 203.027 130.822 203.008 131.361H206.494Z" fill="#3C3C3C"/>
<path d="M130.367 102.484H134.852V104.594H130.367V102.484ZM140.891 98.9766C140.625 98.6589 140.245 98.5 139.75 98.5C139.073 98.5 138.612 98.7526 138.367 99.2578C138.227 99.5495 138.143 100.013 138.117 100.648H135.953C135.99 99.6849 136.164 98.9062 136.477 98.3125C137.07 97.1823 138.125 96.6172 139.641 96.6172C140.839 96.6172 141.792 96.9505 142.5 97.6172C143.208 98.2786 143.562 99.1562 143.562 100.25C143.562 101.089 143.312 101.833 142.812 102.484C142.484 102.917 141.945 103.398 141.195 103.93L140.305 104.562C139.747 104.958 139.365 105.245 139.156 105.422C138.953 105.599 138.781 105.805 138.641 106.039H143.586V108H135.828C135.849 107.188 136.023 106.445 136.352 105.773C136.669 105.018 137.419 104.219 138.602 103.375C139.628 102.641 140.292 102.115 140.594 101.797C141.057 101.302 141.289 100.76 141.289 100.172C141.289 99.6927 141.156 99.2943 140.891 98.9766ZM149.125 100.648C150.13 100.648 150.953 100.99 151.594 101.672C152.24 102.354 152.562 103.227 152.562 104.289C152.562 105.346 152.247 106.279 151.617 107.086C150.987 107.893 150.008 108.297 148.68 108.297C147.253 108.297 146.201 107.701 145.523 106.508C144.997 105.576 144.734 104.372 144.734 102.898C144.734 102.034 144.771 101.331 144.844 100.789C144.974 99.8255 145.227 99.0234 145.602 98.3828C145.924 97.8359 146.346 97.3958 146.867 97.0625C147.393 96.7292 148.021 96.5625 148.75 96.5625C149.802 96.5625 150.641 96.8333 151.266 97.375C151.891 97.9115 152.242 98.6276 152.32 99.5234H150.102C150.102 99.3411 150.031 99.1406 149.891 98.9219C149.651 98.5677 149.289 98.3906 148.805 98.3906C148.081 98.3906 147.565 98.7969 147.258 99.6094C147.091 100.057 146.977 100.719 146.914 101.594C147.19 101.266 147.51 101.026 147.875 100.875C148.24 100.724 148.656 100.648 149.125 100.648ZM147.625 102.773C147.188 103.112 146.969 103.659 146.969 104.414C146.969 105.023 147.133 105.521 147.461 105.906C147.789 106.292 148.206 106.484 148.711 106.484C149.206 106.484 149.594 106.299 149.875 105.93C150.161 105.555 150.305 105.07 150.305 104.477C150.305 103.815 150.143 103.31 149.82 102.961C149.497 102.607 149.102 102.43 148.633 102.43C148.253 102.43 147.917 102.544 147.625 102.773ZM165.555 105.32C165.555 104.513 165.839 103.826 166.406 103.258C166.974 102.695 167.659 102.414 168.461 102.414C169.263 102.414 169.948 102.698 170.516 103.266C171.083 103.833 171.367 104.518 171.367 105.32C171.367 106.122 171.083 106.807 170.516 107.375C169.948 107.943 169.263 108.227 168.461 108.227C167.659 108.227 166.974 107.943 166.406 107.375C165.839 106.807 165.555 106.122 165.555 105.32ZM158.812 101.688C158.245 101.12 157.961 100.435 157.961 99.6328C157.961 98.8307 158.245 98.1458 158.812 97.5781C159.38 97.0104 160.065 96.7266 160.867 96.7266C161.669 96.7266 162.354 97.0104 162.922 97.5781C163.49 98.1458 163.773 98.8307 163.773 99.6328C163.773 100.435 163.49 101.12 162.922 101.688C162.359 102.255 161.674 102.539 160.867 102.539C160.065 102.539 159.38 102.255 158.812 101.688ZM162.094 108.297H160.883L167.219 96.6719H168.406L162.094 108.297ZM167.586 106.195C167.826 106.44 168.117 106.562 168.461 106.562C168.805 106.562 169.096 106.443 169.336 106.203C169.581 105.958 169.703 105.664 169.703 105.32C169.703 104.977 169.581 104.685 169.336 104.445C169.096 104.201 168.805 104.078 168.461 104.078C168.117 104.078 167.823 104.201 167.578 104.445C167.339 104.685 167.219 104.977 167.219 105.32C167.219 105.664 167.341 105.956 167.586 106.195ZM159.992 100.508C160.232 100.753 160.523 100.875 160.867 100.875C161.211 100.875 161.503 100.755 161.742 100.516C161.987 100.271 162.109 99.9766 162.109 99.6328C162.109 99.2891 161.987 98.9974 161.742 98.7578C161.503 98.513 161.211 98.3906 160.867 98.3906C160.523 98.3906 160.229 98.513 159.984 98.7578C159.745 98.9974 159.625 99.2891 159.625 99.6328C159.625 99.9766 159.747 100.268 159.992 100.508Z" fill="#3C3C3C"/>
<path d="M31.3457 70.0488H29.1719V74H27.1143V63.9238H32.0566C32.763 63.9375 33.3053 64.0241 33.6836 64.1836C34.0664 64.3431 34.39 64.5778 34.6543 64.8877C34.873 65.1429 35.0462 65.4255 35.1738 65.7354C35.3014 66.0452 35.3652 66.3984 35.3652 66.7949C35.3652 67.2734 35.2445 67.7451 35.0029 68.21C34.7614 68.6702 34.3626 68.9961 33.8066 69.1875C34.2715 69.3743 34.5996 69.641 34.791 69.9873C34.987 70.3291 35.085 70.8532 35.085 71.5596V72.2363C35.085 72.6966 35.1032 73.0088 35.1396 73.1729C35.1943 73.4326 35.3219 73.624 35.5225 73.7471V74H33.2051C33.1413 73.7767 33.0957 73.5967 33.0684 73.46C33.0137 73.1774 32.984 72.888 32.9795 72.5918L32.9658 71.6553C32.9567 71.0127 32.8382 70.5843 32.6104 70.3701C32.387 70.1559 31.9655 70.0488 31.3457 70.0488ZM32.624 68.2168C33.0433 68.0254 33.2529 67.6471 33.2529 67.082C33.2529 66.4714 33.0501 66.0612 32.6445 65.8516C32.4167 65.7331 32.0749 65.6738 31.6191 65.6738H29.1719V68.3809H31.5576C32.0316 68.3809 32.387 68.3262 32.624 68.2168ZM43.4043 71.8125C43.3542 72.2546 43.124 72.7035 42.7139 73.1592C42.0758 73.8838 41.1826 74.2461 40.0342 74.2461C39.0863 74.2461 38.25 73.9408 37.5254 73.3301C36.8008 72.7194 36.4385 71.7259 36.4385 70.3496C36.4385 69.0599 36.7643 68.071 37.416 67.3828C38.0723 66.6947 38.9222 66.3506 39.9658 66.3506C40.5856 66.3506 41.1439 66.4668 41.6406 66.6992C42.1374 66.9316 42.5475 67.2985 42.8711 67.7998C43.1628 68.2419 43.3519 68.7546 43.4385 69.3379C43.4886 69.6797 43.5091 70.1719 43.5 70.8145H38.4004C38.4277 71.5618 38.6624 72.0859 39.1045 72.3867C39.3734 72.5736 39.6969 72.667 40.0752 72.667C40.4762 72.667 40.8021 72.5531 41.0527 72.3252C41.1895 72.2021 41.3102 72.0312 41.415 71.8125H43.4043ZM41.4766 69.5293C41.4447 69.0143 41.2874 68.6247 41.0049 68.3604C40.7269 68.0915 40.3805 67.957 39.9658 67.957C39.5146 67.957 39.1637 68.0983 38.9131 68.3809C38.667 68.6634 38.512 69.0462 38.4482 69.5293H41.4766ZM49.9531 66.8906C50.5365 67.2643 50.8714 67.9069 50.958 68.8184H49.0098C48.9824 68.5677 48.9118 68.3695 48.7979 68.2236C48.5837 67.9593 48.2191 67.8271 47.7041 67.8271C47.2803 67.8271 46.9772 67.8932 46.7949 68.0254C46.6172 68.1576 46.5283 68.3125 46.5283 68.4902C46.5283 68.7135 46.624 68.8753 46.8154 68.9756C47.0068 69.0804 47.6836 69.2604 48.8457 69.5156C49.6204 69.6979 50.2015 69.9736 50.5889 70.3428C50.9717 70.7165 51.1631 71.1836 51.1631 71.7441C51.1631 72.4824 50.8874 73.0863 50.3359 73.5557C49.7891 74.0205 48.9414 74.2529 47.793 74.2529C46.6217 74.2529 45.7559 74.0068 45.1953 73.5146C44.6393 73.0179 44.3613 72.3867 44.3613 71.6211H46.3369C46.3779 71.9674 46.4668 72.2135 46.6035 72.3594C46.8451 72.6191 47.2917 72.749 47.9434 72.749C48.3262 72.749 48.6292 72.6921 48.8525 72.5781C49.0804 72.4642 49.1943 72.2933 49.1943 72.0654C49.1943 71.8467 49.1032 71.6803 48.9209 71.5664C48.7386 71.4525 48.0618 71.2565 46.8906 70.9785C46.0475 70.7689 45.4528 70.5068 45.1064 70.1924C44.7601 69.8825 44.5869 69.4359 44.5869 68.8525C44.5869 68.1644 44.8558 67.5742 45.3936 67.082C45.9359 66.5853 46.6969 66.3369 47.6768 66.3369C48.6064 66.3369 49.3652 66.5215 49.9531 66.8906ZM57.3906 72.9473C57.3724 72.9701 57.3268 73.0384 57.2539 73.1523C57.181 73.2663 57.0944 73.3665 56.9941 73.4531C56.6888 73.7266 56.3926 73.9134 56.1055 74.0137C55.8229 74.1139 55.4902 74.1641 55.1074 74.1641C54.0046 74.1641 53.2617 73.7676 52.8789 72.9746C52.6647 72.5371 52.5576 71.8923 52.5576 71.04V66.5488H54.5537V71.04C54.5537 71.4639 54.6038 71.7829 54.7041 71.9971C54.8818 72.3753 55.2305 72.5645 55.75 72.5645C56.4154 72.5645 56.8711 72.2956 57.1172 71.7578C57.2448 71.4661 57.3086 71.0811 57.3086 70.6025V66.5488H59.2842V74H57.3906V72.9473ZM61.2119 63.9238H63.1602V74H61.2119V63.9238ZM68.4785 72.6123V74.0684L67.5557 74.1025C66.6351 74.1344 66.0062 73.9749 65.6689 73.624C65.4502 73.4007 65.3408 73.0566 65.3408 72.5918V68.0049H64.3018V66.6172H65.3408V64.5391H67.2686V66.6172H68.4785V68.0049H67.2686V71.9424C67.2686 72.2477 67.3073 72.4391 67.3848 72.5166C67.4622 72.5895 67.6992 72.626 68.0957 72.626C68.1549 72.626 68.2165 72.626 68.2803 72.626C68.3486 72.6214 68.4147 72.6169 68.4785 72.6123ZM74.8633 66.8906C75.4466 67.2643 75.7816 67.9069 75.8682 68.8184H73.9199C73.8926 68.5677 73.8219 68.3695 73.708 68.2236C73.4938 67.9593 73.1292 67.8271 72.6143 67.8271C72.1904 67.8271 71.8874 67.8932 71.7051 68.0254C71.5273 68.1576 71.4385 68.3125 71.4385 68.4902C71.4385 68.7135 71.5342 68.8753 71.7256 68.9756C71.917 69.0804 72.5938 69.2604 73.7559 69.5156C74.5306 69.6979 75.1117 69.9736 75.499 70.3428C75.8818 70.7165 76.0732 71.1836 76.0732 71.7441C76.0732 72.4824 75.7975 73.0863 75.2461 73.5557C74.6992 74.0205 73.8516 74.2529 72.7031 74.2529C71.5319 74.2529 70.666 74.0068 70.1055 73.5146C69.5495 73.0179 69.2715 72.3867 69.2715 71.6211H71.2471C71.2881 71.9674 71.377 72.2135 71.5137 72.3594C71.7552 72.6191 72.2018 72.749 72.8535 72.749C73.2363 72.749 73.5394 72.6921 73.7627 72.5781C73.9906 72.4642 74.1045 72.2933 74.1045 72.0654C74.1045 71.8467 74.0133 71.6803 73.8311 71.5664C73.6488 71.4525 72.972 71.2565 71.8008 70.9785C70.9577 70.7689 70.363 70.5068 70.0166 70.1924C69.6702 69.8825 69.4971 69.4359 69.4971 68.8525C69.4971 68.1644 69.766 67.5742 70.3037 67.082C70.846 66.5853 71.6071 66.3369 72.5869 66.3369C73.5166 66.3369 74.2754 66.5215 74.8633 66.8906Z" fill="#3C3C3C"/>
<defs>
<filter id="filter0_d_2001_558" x="0" y="0" width="241" height="247" filterUnits="userSpaceOnUse" color-interpolation-filters="sRGB">
<feFlood flood-opacity="0" result="BackgroundImageFix"/>
<feColorMatrix in="SourceAlpha" type="matrix" values="0 0 0 0 0 0 0 0 0 0 0 0 0 0 0 0 0 0 127 0" result="hardAlpha"/>
<feOffset dy="4"/>
<feGaussianBlur stdDeviation="2"/>
<feComposite in2="hardAlpha" operator="out"/>
<feColorMatrix type="matrix" values="0 0 0 0 0.959326 0 0 0 0 0.959326 0 0 0 0 0.959326 0 0 0 0.25 0"/>
<feBlend mode="normal" in2="BackgroundImageFix" result="effect1_dropShadow_2001_558"/>
<feBlend mode="normal" in="SourceGraphic" in2="effect1_dropShadow_2001_558" result="shape"/>
</filter>
</defs>
</svg>
