<svg
  width="261"
  height="214"
  viewBox="0 0 261 214"
  fill="none"
  xmlns="http://www.w3.org/2000/svg"
>
  <g filter="url(#filter0_d_2001_571)">
    <path
      d="M14 30C14 18.9543 22.9543 10 34 10H227C238.046 10 247 18.9543 247 30V196H14V30Z"
      fill="white"
    />
  </g>
  <rect x="39.5" y="133.5" width="111" height="39" rx="9.5" stroke="#4A4A4A" />
  <path
    d="M49.9375 154.739L51.9062 154.548C52.0247 155.209 52.264 155.694 52.624 156.004C52.9886 156.314 53.4785 156.469 54.0938 156.469C54.7454 156.469 55.2354 156.332 55.5635 156.059C55.8962 155.781 56.0625 155.457 56.0625 155.088C56.0625 154.851 55.9919 154.65 55.8506 154.486C55.7139 154.318 55.4723 154.172 55.126 154.049C54.889 153.967 54.349 153.821 53.5059 153.611C52.4212 153.342 51.6602 153.012 51.2227 152.62C50.6074 152.069 50.2998 151.396 50.2998 150.604C50.2998 150.093 50.4434 149.617 50.7305 149.175C51.0221 148.728 51.4391 148.389 51.9814 148.156C52.5283 147.924 53.1868 147.808 53.957 147.808C55.2148 147.808 56.1605 148.083 56.7939 148.635C57.432 149.186 57.7669 149.922 57.7988 150.843L55.7754 150.932C55.6888 150.417 55.502 150.048 55.2148 149.824C54.9323 149.596 54.5062 149.482 53.9365 149.482C53.3486 149.482 52.8883 149.603 52.5557 149.845C52.3415 150 52.2344 150.207 52.2344 150.467C52.2344 150.704 52.3346 150.907 52.5352 151.075C52.7904 151.289 53.4102 151.513 54.3945 151.745C55.3789 151.978 56.1058 152.219 56.5752 152.47C57.0492 152.716 57.4183 153.055 57.6826 153.488C57.9515 153.917 58.0859 154.448 58.0859 155.081C58.0859 155.655 57.9264 156.193 57.6074 156.694C57.2884 157.196 56.8372 157.569 56.2539 157.815C55.6706 158.057 54.9437 158.178 54.0732 158.178C52.8063 158.178 51.8333 157.886 51.1543 157.303C50.4753 156.715 50.0697 155.86 49.9375 154.739ZM63.9785 155.689L65.8926 156.011C65.6465 156.713 65.2568 157.248 64.7236 157.617C64.195 157.982 63.5319 158.164 62.7344 158.164C61.472 158.164 60.5378 157.752 59.9316 156.927C59.4531 156.266 59.2139 155.432 59.2139 154.425C59.2139 153.222 59.5283 152.281 60.1572 151.602C60.7861 150.918 61.5814 150.576 62.543 150.576C63.623 150.576 64.4753 150.934 65.0996 151.649C65.724 152.36 66.0225 153.452 65.9951 154.924H61.1826C61.1963 155.493 61.3512 155.938 61.6475 156.257C61.9437 156.571 62.3128 156.729 62.7549 156.729C63.0557 156.729 63.3086 156.646 63.5137 156.482C63.7188 156.318 63.8737 156.054 63.9785 155.689ZM64.0879 153.748C64.0742 153.192 63.9307 152.771 63.6572 152.483C63.3838 152.192 63.0511 152.046 62.6592 152.046C62.2399 152.046 61.8936 152.199 61.6201 152.504C61.3467 152.809 61.2122 153.224 61.2168 153.748H64.0879ZM69.4062 158H67.4854V150.74H69.2695V151.772C69.5749 151.285 69.8483 150.964 70.0898 150.809C70.3359 150.654 70.6139 150.576 70.9238 150.576C71.3613 150.576 71.7829 150.697 72.1885 150.938L71.5938 152.613C71.2702 152.404 70.9694 152.299 70.6914 152.299C70.4225 152.299 70.1947 152.374 70.0078 152.524C69.821 152.67 69.6729 152.937 69.5635 153.324C69.4587 153.712 69.4062 154.523 69.4062 155.758V158ZM75.0186 158L72.0928 150.74H74.1094L75.4766 154.445L75.873 155.683C75.9779 155.368 76.0439 155.161 76.0713 155.061C76.1351 154.855 76.2035 154.65 76.2764 154.445L77.6572 150.74H79.6328L76.748 158H75.0186ZM80.8154 149.756V147.979H82.7363V149.756H80.8154ZM80.8154 158V150.74H82.7363V158H80.8154ZM91.042 152.887L89.1484 153.229C89.0846 152.85 88.9388 152.565 88.7109 152.374C88.4876 152.183 88.196 152.087 87.8359 152.087C87.3574 152.087 86.9746 152.253 86.6875 152.586C86.4049 152.914 86.2637 153.465 86.2637 154.24C86.2637 155.102 86.4072 155.71 86.6943 156.065C86.986 156.421 87.3757 156.599 87.8633 156.599C88.2279 156.599 88.5264 156.496 88.7588 156.291C88.9912 156.081 89.1553 155.724 89.251 155.218L91.1377 155.539C90.9417 156.405 90.5658 157.059 90.0098 157.501C89.4538 157.943 88.7087 158.164 87.7744 158.164C86.7126 158.164 85.8649 157.829 85.2314 157.159C84.6025 156.489 84.2881 155.562 84.2881 154.377C84.2881 153.178 84.6048 152.246 85.2383 151.581C85.8717 150.911 86.7285 150.576 87.8086 150.576C88.6927 150.576 89.3945 150.768 89.9141 151.15C90.4382 151.529 90.8141 152.107 91.042 152.887ZM96.709 155.689L98.623 156.011C98.377 156.713 97.9873 157.248 97.4541 157.617C96.9255 157.982 96.2624 158.164 95.4648 158.164C94.2025 158.164 93.2682 157.752 92.6621 156.927C92.1836 156.266 91.9443 155.432 91.9443 154.425C91.9443 153.222 92.2588 152.281 92.8877 151.602C93.5166 150.918 94.3118 150.576 95.2734 150.576C96.3535 150.576 97.2057 150.934 97.8301 151.649C98.4544 152.36 98.7529 153.452 98.7256 154.924H93.9131C93.9268 155.493 94.0817 155.938 94.3779 156.257C94.6742 156.571 95.0433 156.729 95.4854 156.729C95.7861 156.729 96.0391 156.646 96.2441 156.482C96.4492 156.318 96.6042 156.054 96.709 155.689ZM96.8184 153.748C96.8047 153.192 96.6611 152.771 96.3877 152.483C96.1143 152.192 95.7816 152.046 95.3896 152.046C94.9704 152.046 94.624 152.199 94.3506 152.504C94.0771 152.809 93.9427 153.224 93.9473 153.748H96.8184ZM104.208 158V147.979H107.455C108.686 147.979 109.488 148.029 109.861 148.129C110.436 148.279 110.916 148.607 111.304 149.113C111.691 149.615 111.885 150.264 111.885 151.062C111.885 151.677 111.773 152.194 111.55 152.613C111.326 153.033 111.042 153.363 110.695 153.604C110.354 153.841 110.005 153.999 109.649 154.076C109.166 154.172 108.467 154.22 107.551 154.22H106.231V158H104.208ZM106.231 149.674V152.518H107.339C108.136 152.518 108.67 152.465 108.938 152.36C109.207 152.256 109.417 152.091 109.567 151.868C109.722 151.645 109.8 151.385 109.8 151.089C109.8 150.724 109.693 150.424 109.479 150.187C109.264 149.95 108.993 149.801 108.665 149.742C108.424 149.697 107.938 149.674 107.209 149.674H106.231ZM113.532 158V147.979H115.453V158H113.532ZM118.864 152.955L117.121 152.641C117.317 151.939 117.654 151.419 118.133 151.082C118.611 150.745 119.322 150.576 120.266 150.576C121.122 150.576 121.76 150.679 122.18 150.884C122.599 151.084 122.893 151.342 123.062 151.656C123.235 151.966 123.321 152.538 123.321 153.372L123.301 155.614C123.301 156.252 123.33 156.724 123.39 157.029C123.453 157.33 123.57 157.654 123.738 158H121.838C121.788 157.872 121.726 157.683 121.653 157.433C121.621 157.319 121.599 157.243 121.585 157.207C121.257 157.526 120.906 157.765 120.532 157.925C120.159 158.084 119.76 158.164 119.336 158.164C118.589 158.164 117.998 157.961 117.565 157.556C117.137 157.15 116.923 156.637 116.923 156.018C116.923 155.607 117.021 155.243 117.217 154.924C117.413 154.6 117.686 154.354 118.037 154.186C118.393 154.012 118.903 153.862 119.568 153.734C120.466 153.566 121.088 153.409 121.435 153.263V153.071C121.435 152.702 121.343 152.44 121.161 152.285C120.979 152.126 120.635 152.046 120.129 152.046C119.787 152.046 119.521 152.114 119.329 152.251C119.138 152.383 118.983 152.618 118.864 152.955ZM121.435 154.514C121.188 154.596 120.799 154.694 120.266 154.808C119.732 154.922 119.384 155.033 119.22 155.143C118.969 155.32 118.844 155.546 118.844 155.819C118.844 156.088 118.944 156.321 119.145 156.517C119.345 156.713 119.6 156.811 119.91 156.811C120.257 156.811 120.587 156.697 120.901 156.469C121.134 156.296 121.286 156.084 121.359 155.833C121.41 155.669 121.435 155.357 121.435 154.896V154.514ZM131.825 158H129.904V154.295C129.904 153.511 129.863 153.005 129.781 152.777C129.699 152.545 129.565 152.365 129.378 152.237C129.196 152.11 128.975 152.046 128.715 152.046C128.382 152.046 128.084 152.137 127.819 152.319C127.555 152.502 127.373 152.743 127.272 153.044C127.177 153.345 127.129 153.901 127.129 154.712V158H125.208V150.74H126.992V151.807C127.626 150.986 128.423 150.576 129.385 150.576C129.809 150.576 130.196 150.654 130.547 150.809C130.898 150.959 131.162 151.153 131.34 151.39C131.522 151.627 131.647 151.896 131.716 152.196C131.789 152.497 131.825 152.928 131.825 153.488V158ZM133.104 155.929L135.031 155.635C135.113 156.008 135.28 156.293 135.53 156.489C135.781 156.681 136.132 156.776 136.583 156.776C137.08 156.776 137.453 156.685 137.704 156.503C137.873 156.375 137.957 156.204 137.957 155.99C137.957 155.844 137.911 155.724 137.82 155.628C137.725 155.537 137.51 155.452 137.178 155.375C135.628 155.033 134.646 154.721 134.231 154.438C133.657 154.047 133.37 153.502 133.37 152.805C133.37 152.176 133.618 151.647 134.115 151.219C134.612 150.79 135.382 150.576 136.426 150.576C137.419 150.576 138.158 150.738 138.641 151.062C139.124 151.385 139.456 151.864 139.639 152.497L137.827 152.832C137.75 152.549 137.602 152.333 137.383 152.183C137.169 152.032 136.861 151.957 136.46 151.957C135.954 151.957 135.592 152.028 135.373 152.169C135.227 152.269 135.154 152.399 135.154 152.559C135.154 152.695 135.218 152.812 135.346 152.907C135.519 153.035 136.116 153.215 137.137 153.447C138.162 153.68 138.878 153.965 139.283 154.302C139.684 154.644 139.885 155.12 139.885 155.73C139.885 156.396 139.607 156.968 139.051 157.446C138.495 157.925 137.672 158.164 136.583 158.164C135.594 158.164 134.81 157.964 134.231 157.562C133.657 157.161 133.281 156.617 133.104 155.929Z"
    fill="#403F3F"
  />
  <path
    d="M39.3213 36.9238H41.5703L43.7578 44.5732L45.9658 36.9238H48.1533L44.7148 47H42.7256L39.3213 36.9238ZM51.0039 39.5488V47H49.0283V39.5488H51.0039ZM51.0039 36.8623V38.6602H49.0283V36.8623H51.0039ZM59.6787 36.9375V47H57.7852V45.9678C57.5072 46.4098 57.1904 46.7311 56.835 46.9316C56.4795 47.1322 56.0374 47.2324 55.5088 47.2324C54.6383 47.2324 53.9046 46.8815 53.3076 46.1797C52.7152 45.4733 52.4189 44.5687 52.4189 43.4658C52.4189 42.1943 52.7106 41.194 53.2939 40.4648C53.8818 39.7357 54.6657 39.3711 55.6455 39.3711C56.0967 39.3711 56.4977 39.4714 56.8486 39.6719C57.1995 39.8678 57.4844 40.1413 57.7031 40.4922V36.9375H59.6787ZM54.4287 43.3223C54.4287 44.0104 54.5654 44.5596 54.8389 44.9697C55.1077 45.3844 55.5179 45.5918 56.0693 45.5918C56.6208 45.5918 57.04 45.3867 57.3271 44.9766C57.6143 44.5664 57.7578 44.0355 57.7578 43.3838C57.7578 42.4723 57.5277 41.8206 57.0674 41.4287C56.7848 41.1917 56.4567 41.0732 56.083 41.0732C55.5133 41.0732 55.0941 41.2897 54.8252 41.7227C54.5609 42.151 54.4287 42.6842 54.4287 43.3223ZM67.834 44.8125C67.7839 45.2546 67.5537 45.7035 67.1436 46.1592C66.5055 46.8838 65.6123 47.2461 64.4639 47.2461C63.516 47.2461 62.6797 46.9408 61.9551 46.3301C61.2305 45.7194 60.8682 44.7259 60.8682 43.3496C60.8682 42.0599 61.194 41.071 61.8457 40.3828C62.502 39.6947 63.3519 39.3506 64.3955 39.3506C65.0153 39.3506 65.5736 39.4668 66.0703 39.6992C66.5671 39.9316 66.9772 40.2985 67.3008 40.7998C67.5924 41.2419 67.7816 41.7546 67.8682 42.3379C67.9183 42.6797 67.9388 43.1719 67.9297 43.8145H62.8301C62.8574 44.5618 63.0921 45.0859 63.5342 45.3867C63.8031 45.5736 64.1266 45.667 64.5049 45.667C64.9059 45.667 65.2318 45.5531 65.4824 45.3252C65.6191 45.2021 65.7399 45.0312 65.8447 44.8125H67.834ZM65.9062 42.5293C65.8743 42.0143 65.7171 41.6247 65.4346 41.3604C65.1566 41.0915 64.8102 40.957 64.3955 40.957C63.9443 40.957 63.5934 41.0983 63.3428 41.3809C63.0967 41.6634 62.9417 42.0462 62.8779 42.5293H65.9062ZM75.4629 40.4922C76.0918 41.2806 76.4062 42.2126 76.4062 43.2881C76.4062 44.3818 76.0918 45.3184 75.4629 46.0977C74.834 46.8724 73.8792 47.2598 72.5986 47.2598C71.318 47.2598 70.3633 46.8724 69.7344 46.0977C69.1055 45.3184 68.791 44.3818 68.791 43.2881C68.791 42.2126 69.1055 41.2806 69.7344 40.4922C70.3633 39.7038 71.318 39.3096 72.5986 39.3096C73.8792 39.3096 74.834 39.7038 75.4629 40.4922ZM72.5918 40.957C72.0221 40.957 71.5824 41.1598 71.2725 41.5654C70.9671 41.9665 70.8145 42.5407 70.8145 43.2881C70.8145 44.0355 70.9671 44.612 71.2725 45.0176C71.5824 45.4232 72.0221 45.626 72.5918 45.626C73.1615 45.626 73.599 45.4232 73.9043 45.0176C74.2096 44.612 74.3623 44.0355 74.3623 43.2881C74.3623 42.5407 74.2096 41.9665 73.9043 41.5654C73.599 41.1598 73.1615 40.957 72.5918 40.957ZM88.1504 42.2217H86.1543C86.1178 41.9437 86.0244 41.693 85.874 41.4697C85.6553 41.1689 85.3158 41.0186 84.8555 41.0186C84.1992 41.0186 83.7503 41.3444 83.5088 41.9961C83.3812 42.3424 83.3174 42.8027 83.3174 43.377C83.3174 43.9238 83.3812 44.3636 83.5088 44.6963C83.7412 45.3161 84.1787 45.626 84.8213 45.626C85.277 45.626 85.6006 45.5029 85.792 45.2568C85.9834 45.0107 86.0996 44.6917 86.1406 44.2998H88.1299C88.0843 44.8923 87.8701 45.4528 87.4873 45.9814C86.8766 46.8337 85.972 47.2598 84.7734 47.2598C83.5749 47.2598 82.693 46.9043 82.1279 46.1934C81.5628 45.4824 81.2803 44.5596 81.2803 43.4248C81.2803 42.1442 81.5924 41.1484 82.2168 40.4375C82.8411 39.7266 83.7025 39.3711 84.8008 39.3711C85.735 39.3711 86.4984 39.5807 87.0908 40C87.6878 40.4193 88.041 41.1598 88.1504 42.2217ZM89.7773 40.3555C90.2923 39.6992 91.1764 39.3711 92.4297 39.3711C93.2454 39.3711 93.9701 39.5329 94.6035 39.8564C95.237 40.18 95.5537 40.7907 95.5537 41.6885V45.1064C95.5537 45.3434 95.5583 45.6305 95.5674 45.9678C95.5811 46.223 95.6198 46.3962 95.6836 46.4873C95.7474 46.5785 95.8431 46.6536 95.9707 46.7129V47H93.8516C93.7923 46.8496 93.7513 46.7083 93.7285 46.5762C93.7057 46.444 93.6875 46.2936 93.6738 46.125C93.4049 46.4167 93.0951 46.665 92.7441 46.8701C92.3249 47.1117 91.8509 47.2324 91.3223 47.2324C90.6478 47.2324 90.0895 47.041 89.6475 46.6582C89.21 46.2708 88.9912 45.724 88.9912 45.0176C88.9912 44.1016 89.3444 43.4385 90.0508 43.0283C90.4382 42.805 91.0078 42.6455 91.7598 42.5498L92.4229 42.4678C92.7829 42.4222 93.0404 42.3652 93.1953 42.2969C93.4733 42.1784 93.6123 41.9938 93.6123 41.7432C93.6123 41.4378 93.5052 41.2282 93.291 41.1143C93.0814 40.9958 92.7715 40.9365 92.3613 40.9365C91.901 40.9365 91.5752 41.0505 91.3838 41.2783C91.2471 41.4469 91.1559 41.6748 91.1104 41.9619H89.2305C89.2715 41.3102 89.4538 40.7747 89.7773 40.3555ZM91.2266 45.5918C91.4089 45.7422 91.6322 45.8174 91.8965 45.8174C92.3158 45.8174 92.7008 45.6943 93.0518 45.4482C93.4072 45.2021 93.5918 44.7533 93.6055 44.1016V43.377C93.4824 43.4544 93.3571 43.5182 93.2295 43.5684C93.1064 43.6139 92.9355 43.6572 92.7168 43.6982L92.2793 43.7803C91.8691 43.8532 91.5752 43.9421 91.3975 44.0469C91.0967 44.2246 90.9463 44.5003 90.9463 44.874C90.9463 45.2067 91.0397 45.446 91.2266 45.5918ZM97.3311 36.9238H99.2793V47H97.3311V36.9238ZM101.228 36.9238H103.176V47H101.228V36.9238ZM103.408 47L107.312 36.6162H108.932L105.015 47H103.408ZM112.869 36.9238H114.961V47H112.869V36.9238ZM120.279 40.9912C119.618 40.9912 119.165 41.2715 118.919 41.832C118.791 42.1283 118.728 42.5065 118.728 42.9668V47H116.786V39.5625H118.666V40.6494C118.917 40.2666 119.154 39.9909 119.377 39.8223C119.778 39.5215 120.286 39.3711 120.901 39.3711C121.672 39.3711 122.3 39.5739 122.788 39.9795C123.28 40.3805 123.526 41.0482 123.526 41.9824V47H121.53V42.4678C121.53 42.0758 121.478 41.7751 121.373 41.5654C121.182 41.1826 120.817 40.9912 120.279 40.9912ZM124.743 42.1738H128.667V44.0195H124.743V42.1738ZM46.1504 57.3486C46.752 57.9912 47.0527 58.9346 47.0527 60.1787C47.0527 61.4912 46.7565 62.4915 46.1641 63.1797C45.5762 63.8678 44.8174 64.2119 43.8877 64.2119C43.2952 64.2119 42.8031 64.0638 42.4111 63.7676C42.1969 63.6035 41.9873 63.3643 41.7822 63.0498V66.9326H39.8545V56.5488H41.7207V57.6494C41.9303 57.3258 42.1536 57.0706 42.3906 56.8838C42.8236 56.5511 43.3385 56.3848 43.9355 56.3848C44.806 56.3848 45.5443 56.7061 46.1504 57.3486ZM45.043 60.2744C45.043 59.7002 44.9108 59.1921 44.6465 58.75C44.3867 58.3079 43.9629 58.0869 43.375 58.0869C42.6686 58.0869 42.1833 58.4219 41.9189 59.0918C41.7822 59.4473 41.7139 59.8984 41.7139 60.4453C41.7139 61.3112 41.944 61.9196 42.4043 62.2705C42.6777 62.4756 43.0013 62.5781 43.375 62.5781C43.9173 62.5781 44.3298 62.3685 44.6123 61.9492C44.8994 61.5299 45.043 60.9717 45.043 60.2744ZM54.8457 61.8125C54.7956 62.2546 54.5654 62.7035 54.1553 63.1592C53.5173 63.8838 52.624 64.2461 51.4756 64.2461C50.5277 64.2461 49.6914 63.9408 48.9668 63.3301C48.2422 62.7194 47.8799 61.7259 47.8799 60.3496C47.8799 59.0599 48.2057 58.071 48.8574 57.3828C49.5137 56.6947 50.3636 56.3506 51.4072 56.3506C52.027 56.3506 52.5853 56.4668 53.082 56.6992C53.5788 56.9316 53.9889 57.2985 54.3125 57.7998C54.6042 58.2419 54.7933 58.7546 54.8799 59.3379C54.93 59.6797 54.9505 60.1719 54.9414 60.8145H49.8418C49.8691 61.5618 50.1038 62.0859 50.5459 62.3867C50.8148 62.5736 51.1383 62.667 51.5166 62.667C51.9176 62.667 52.2435 62.5531 52.4941 62.3252C52.6309 62.2021 52.7516 62.0312 52.8564 61.8125H54.8457ZM52.918 59.5293C52.8861 59.0143 52.7288 58.6247 52.4463 58.3604C52.1683 58.0915 51.8219 57.957 51.4072 57.957C50.9561 57.957 50.6051 58.0983 50.3545 58.3809C50.1084 58.6634 49.9535 59.0462 49.8896 59.5293H52.918ZM60.0068 58.3467C59.223 58.3467 58.6966 58.6019 58.4277 59.1123C58.2773 59.3994 58.2021 59.8415 58.2021 60.4385V64H56.2402V56.5488H58.0996V57.8477C58.4004 57.3509 58.6624 57.0114 58.8857 56.8291C59.2503 56.5238 59.7243 56.3711 60.3076 56.3711C60.3441 56.3711 60.3737 56.3734 60.3965 56.3779C60.4238 56.3779 60.4808 56.3802 60.5674 56.3848V58.3809C60.4443 58.3672 60.335 58.3581 60.2393 58.3535C60.1436 58.349 60.0661 58.3467 60.0068 58.3467ZM66.8496 56.8906C67.4329 57.2643 67.7679 57.9069 67.8545 58.8184H65.9062C65.8789 58.5677 65.8083 58.3695 65.6943 58.2236C65.4801 57.9593 65.1156 57.8271 64.6006 57.8271C64.1768 57.8271 63.8737 57.8932 63.6914 58.0254C63.5137 58.1576 63.4248 58.3125 63.4248 58.4902C63.4248 58.7135 63.5205 58.8753 63.7119 58.9756C63.9033 59.0804 64.5801 59.2604 65.7422 59.5156C66.5169 59.6979 67.098 59.9736 67.4854 60.3428C67.8682 60.7165 68.0596 61.1836 68.0596 61.7441C68.0596 62.4824 67.7839 63.0863 67.2324 63.5557C66.6855 64.0205 65.8379 64.2529 64.6895 64.2529C63.5182 64.2529 62.6523 64.0068 62.0918 63.5146C61.5358 63.0179 61.2578 62.3867 61.2578 61.6211H63.2334C63.2744 61.9674 63.3633 62.2135 63.5 62.3594C63.7415 62.6191 64.1882 62.749 64.8398 62.749C65.2227 62.749 65.5257 62.6921 65.749 62.5781C65.9769 62.4642 66.0908 62.2933 66.0908 62.0654C66.0908 61.8467 65.9997 61.6803 65.8174 61.5664C65.6351 61.4525 64.9583 61.2565 63.7871 60.9785C62.944 60.7689 62.3493 60.5068 62.0029 60.1924C61.6566 59.8825 61.4834 59.4359 61.4834 58.8525C61.4834 58.1644 61.7523 57.5742 62.29 57.082C62.8324 56.5853 63.5934 56.3369 64.5732 56.3369C65.5029 56.3369 66.2617 56.5215 66.8496 56.8906ZM75.7227 57.4922C76.3516 58.2806 76.666 59.2126 76.666 60.2881C76.666 61.3818 76.3516 62.3184 75.7227 63.0977C75.0938 63.8724 74.139 64.2598 72.8584 64.2598C71.5778 64.2598 70.623 63.8724 69.9941 63.0977C69.3652 62.3184 69.0508 61.3818 69.0508 60.2881C69.0508 59.2126 69.3652 58.2806 69.9941 57.4922C70.623 56.7038 71.5778 56.3096 72.8584 56.3096C74.139 56.3096 75.0938 56.7038 75.7227 57.4922ZM72.8516 57.957C72.2819 57.957 71.8421 58.1598 71.5322 58.5654C71.2269 58.9665 71.0742 59.5407 71.0742 60.2881C71.0742 61.0355 71.2269 61.612 71.5322 62.0176C71.8421 62.4232 72.2819 62.626 72.8516 62.626C73.4212 62.626 73.8587 62.4232 74.1641 62.0176C74.4694 61.612 74.6221 61.0355 74.6221 60.2881C74.6221 59.5407 74.4694 58.9665 74.1641 58.5654C73.8587 58.1598 73.4212 57.957 72.8516 57.957ZM81.5742 57.9912C80.9134 57.9912 80.46 58.2715 80.2139 58.832C80.0863 59.1283 80.0225 59.5065 80.0225 59.9668V64H78.0811V56.5625H79.9609V57.6494C80.2116 57.2666 80.4486 56.9909 80.6719 56.8223C81.0729 56.5215 81.5811 56.3711 82.1963 56.3711C82.9665 56.3711 83.5954 56.5739 84.083 56.9795C84.5752 57.3805 84.8213 58.0482 84.8213 58.9824V64H82.8252V59.4678C82.8252 59.0758 82.7728 58.7751 82.668 58.5654C82.4766 58.1826 82.112 57.9912 81.5742 57.9912ZM95.6562 56.8906C96.2396 57.2643 96.5745 57.9069 96.6611 58.8184H94.7129C94.6855 58.5677 94.6149 58.3695 94.501 58.2236C94.2868 57.9593 93.9222 57.8271 93.4072 57.8271C92.9834 57.8271 92.6803 57.8932 92.498 58.0254C92.3203 58.1576 92.2314 58.3125 92.2314 58.4902C92.2314 58.7135 92.3271 58.8753 92.5186 58.9756C92.71 59.0804 93.3867 59.2604 94.5488 59.5156C95.3236 59.6979 95.9046 59.9736 96.292 60.3428C96.6748 60.7165 96.8662 61.1836 96.8662 61.7441C96.8662 62.4824 96.5905 63.0863 96.0391 63.5557C95.4922 64.0205 94.6445 64.2529 93.4961 64.2529C92.3249 64.2529 91.459 64.0068 90.8984 63.5146C90.3424 63.0179 90.0645 62.3867 90.0645 61.6211H92.04C92.0811 61.9674 92.1699 62.2135 92.3066 62.3594C92.5482 62.6191 92.9948 62.749 93.6465 62.749C94.0293 62.749 94.3324 62.6921 94.5557 62.5781C94.7835 62.4642 94.8975 62.2933 94.8975 62.0654C94.8975 61.8467 94.8063 61.6803 94.624 61.5664C94.4417 61.4525 93.765 61.2565 92.5938 60.9785C91.7507 60.7689 91.1559 60.5068 90.8096 60.1924C90.4632 59.8825 90.29 59.4359 90.29 58.8525C90.29 58.1644 90.5589 57.5742 91.0967 57.082C91.639 56.5853 92.4001 56.3369 93.3799 56.3369C94.3096 56.3369 95.0684 56.5215 95.6562 56.8906ZM103.094 62.9473C103.076 62.9701 103.03 63.0384 102.957 63.1523C102.884 63.2663 102.798 63.3665 102.697 63.4531C102.392 63.7266 102.096 63.9134 101.809 64.0137C101.526 64.1139 101.193 64.1641 100.811 64.1641C99.7077 64.1641 98.9648 63.7676 98.582 62.9746C98.3678 62.5371 98.2607 61.8923 98.2607 61.04V56.5488H100.257V61.04C100.257 61.4639 100.307 61.7829 100.407 61.9971C100.585 62.3753 100.934 62.5645 101.453 62.5645C102.118 62.5645 102.574 62.2956 102.82 61.7578C102.948 61.4661 103.012 61.0811 103.012 60.6025V56.5488H104.987V64H103.094V62.9473ZM113.115 57.3486C113.717 57.9912 114.018 58.9346 114.018 60.1787C114.018 61.4912 113.721 62.4915 113.129 63.1797C112.541 63.8678 111.782 64.2119 110.853 64.2119C110.26 64.2119 109.768 64.0638 109.376 63.7676C109.162 63.6035 108.952 63.3643 108.747 63.0498V66.9326H106.819V56.5488H108.686V57.6494C108.895 57.3258 109.118 57.0706 109.355 56.8838C109.788 56.5511 110.303 56.3848 110.9 56.3848C111.771 56.3848 112.509 56.7061 113.115 57.3486ZM112.008 60.2744C112.008 59.7002 111.876 59.1921 111.611 58.75C111.352 58.3079 110.928 58.0869 110.34 58.0869C109.633 58.0869 109.148 58.4219 108.884 59.0918C108.747 59.4473 108.679 59.8984 108.679 60.4453C108.679 61.3112 108.909 61.9196 109.369 62.2705C109.643 62.4756 109.966 62.5781 110.34 62.5781C110.882 62.5781 111.295 62.3685 111.577 61.9492C111.864 61.5299 112.008 60.9717 112.008 60.2744ZM121.674 57.3486C122.275 57.9912 122.576 58.9346 122.576 60.1787C122.576 61.4912 122.28 62.4915 121.688 63.1797C121.1 63.8678 120.341 64.2119 119.411 64.2119C118.819 64.2119 118.326 64.0638 117.935 63.7676C117.72 63.6035 117.511 63.3643 117.306 63.0498V66.9326H115.378V56.5488H117.244V57.6494C117.454 57.3258 117.677 57.0706 117.914 56.8838C118.347 56.5511 118.862 56.3848 119.459 56.3848C120.329 56.3848 121.068 56.7061 121.674 57.3486ZM120.566 60.2744C120.566 59.7002 120.434 59.1921 120.17 58.75C119.91 58.3079 119.486 58.0869 118.898 58.0869C118.192 58.0869 117.707 58.4219 117.442 59.0918C117.306 59.4473 117.237 59.8984 117.237 60.4453C117.237 61.3112 117.467 61.9196 117.928 62.2705C118.201 62.4756 118.525 62.5781 118.898 62.5781C119.441 62.5781 119.853 62.3685 120.136 61.9492C120.423 61.5299 120.566 60.9717 120.566 60.2744ZM130.205 57.4922C130.834 58.2806 131.148 59.2126 131.148 60.2881C131.148 61.3818 130.834 62.3184 130.205 63.0977C129.576 63.8724 128.621 64.2598 127.341 64.2598C126.06 64.2598 125.105 63.8724 124.477 63.0977C123.848 62.3184 123.533 61.3818 123.533 60.2881C123.533 59.2126 123.848 58.2806 124.477 57.4922C125.105 56.7038 126.06 56.3096 127.341 56.3096C128.621 56.3096 129.576 56.7038 130.205 57.4922ZM127.334 57.957C126.764 57.957 126.325 58.1598 126.015 58.5654C125.709 58.9665 125.557 59.5407 125.557 60.2881C125.557 61.0355 125.709 61.612 126.015 62.0176C126.325 62.4232 126.764 62.626 127.334 62.626C127.904 62.626 128.341 62.4232 128.646 62.0176C128.952 61.612 129.104 61.0355 129.104 60.2881C129.104 59.5407 128.952 58.9665 128.646 58.5654C128.341 58.1598 127.904 57.957 127.334 57.957ZM136.296 58.3467C135.512 58.3467 134.986 58.6019 134.717 59.1123C134.566 59.3994 134.491 59.8415 134.491 60.4385V64H132.529V56.5488H134.389V57.8477C134.689 57.3509 134.951 57.0114 135.175 56.8291C135.539 56.5238 136.013 56.3711 136.597 56.3711C136.633 56.3711 136.663 56.3734 136.686 56.3779C136.713 56.3779 136.77 56.3802 136.856 56.3848V58.3809C136.733 58.3672 136.624 58.3581 136.528 58.3535C136.433 58.349 136.355 58.3467 136.296 58.3467ZM141.416 62.6123V64.0684L140.493 64.1025C139.573 64.1344 138.944 63.9749 138.606 63.624C138.388 63.4007 138.278 63.0566 138.278 62.5918V58.0049H137.239V56.6172H138.278V54.5391H140.206V56.6172H141.416V58.0049H140.206V61.9424C140.206 62.2477 140.245 62.4391 140.322 62.5166C140.4 62.5895 140.637 62.626 141.033 62.626C141.092 62.626 141.154 62.626 141.218 62.626C141.286 62.6214 141.352 62.6169 141.416 62.6123Z"
    fill="#3C3C3C"
  />
  <path
    d="M39.4824 79.3926L41.1055 86.3945L43.0508 79.3926H44.3164L46.2617 86.3945L47.8848 79.3926H49.1621L46.9004 88H45.6758L43.6895 80.8633L41.6914 88H40.4668L38.2168 79.3926H39.4824ZM50.1055 81.7539H51.1777V88H50.1055V81.7539ZM50.1055 79.3926H51.1777V80.5879H50.1055V79.3926ZM52.9883 79.9727H54.0547V81.7246H55.0566V82.5859H54.0547V86.6816C54.0547 86.9004 54.1289 87.0469 54.2773 87.1211C54.3594 87.1641 54.4961 87.1855 54.6875 87.1855C54.7383 87.1855 54.793 87.1855 54.8516 87.1855C54.9102 87.1816 54.9785 87.1758 55.0566 87.168V88C54.9355 88.0352 54.8086 88.0605 54.6758 88.0762C54.5469 88.0918 54.4062 88.0996 54.2539 88.0996C53.7617 88.0996 53.4277 87.9746 53.252 87.7246C53.0762 87.4707 52.9883 87.1426 52.9883 86.7402V82.5859H52.1387V81.7246H52.9883V79.9727ZM56.1172 79.3633H57.1719V82.5742C57.4219 82.2578 57.6465 82.0352 57.8457 81.9062C58.1855 81.6836 58.6094 81.5723 59.1172 81.5723C60.0273 81.5723 60.6445 81.8906 60.9688 82.5273C61.1445 82.875 61.2324 83.3574 61.2324 83.9746V88H60.1484V84.0449C60.1484 83.584 60.0898 83.2461 59.9727 83.0312C59.7812 82.6875 59.4219 82.5156 58.8945 82.5156C58.457 82.5156 58.0605 82.666 57.7051 82.9668C57.3496 83.2676 57.1719 83.8359 57.1719 84.6719V88H56.1172V79.3633ZM66.0547 79.3633H67.0801V82.4863C67.3105 82.1855 67.5859 81.957 67.9062 81.8008C68.2266 81.6406 68.5742 81.5605 68.9492 81.5605C69.7305 81.5605 70.3633 81.8301 70.8477 82.3691C71.3359 82.9043 71.5801 83.6953 71.5801 84.7422C71.5801 85.7344 71.3398 86.5586 70.8594 87.2148C70.3789 87.8711 69.7129 88.1992 68.8613 88.1992C68.3848 88.1992 67.9824 88.084 67.6543 87.8535C67.459 87.7168 67.25 87.498 67.0273 87.1973V88H66.0547V79.3633ZM68.7969 87.2676C69.3672 87.2676 69.793 87.041 70.0742 86.5879C70.3594 86.1348 70.502 85.5371 70.502 84.7949C70.502 84.1348 70.3594 83.5879 70.0742 83.1543C69.793 82.7207 69.377 82.5039 68.8262 82.5039C68.3457 82.5039 67.9238 82.6816 67.5605 83.0371C67.2012 83.3926 67.0215 83.9785 67.0215 84.7949C67.0215 85.3848 67.0957 85.8633 67.2441 86.2305C67.5215 86.9219 68.0391 87.2676 68.7969 87.2676ZM75.4297 81.584C75.875 81.584 76.3066 81.6895 76.7246 81.9004C77.1426 82.1074 77.4609 82.377 77.6797 82.709C77.8906 83.0254 78.0312 83.3945 78.1016 83.8164C78.1641 84.1055 78.1953 84.5664 78.1953 85.1992H73.5957C73.6152 85.8359 73.7656 86.3477 74.0469 86.7344C74.3281 87.1172 74.7637 87.3086 75.3535 87.3086C75.9043 87.3086 76.3438 87.127 76.6719 86.7637C76.8594 86.5527 76.9922 86.3086 77.0703 86.0312H78.1074C78.0801 86.2617 77.9883 86.5195 77.832 86.8047C77.6797 87.0859 77.5078 87.3164 77.3164 87.4961C76.9961 87.8086 76.5996 88.0195 76.127 88.1289C75.873 88.1914 75.5859 88.2227 75.2656 88.2227C74.4844 88.2227 73.8223 87.9395 73.2793 87.373C72.7363 86.8027 72.4648 86.0059 72.4648 84.9824C72.4648 83.9746 72.7383 83.1562 73.2852 82.5273C73.832 81.8984 74.5469 81.584 75.4297 81.584ZM77.1113 84.3613C77.0684 83.9043 76.9688 83.5391 76.8125 83.2656C76.5234 82.7578 76.041 82.5039 75.3652 82.5039C74.8809 82.5039 74.4746 82.6797 74.1465 83.0312C73.8184 83.3789 73.6445 83.8223 73.625 84.3613H77.1113ZM80.123 86.0312C80.1543 86.3828 80.2422 86.6523 80.3867 86.8398C80.6523 87.1797 81.1133 87.3496 81.7695 87.3496C82.1602 87.3496 82.5039 87.2656 82.8008 87.0977C83.0977 86.9258 83.2461 86.6621 83.2461 86.3066C83.2461 86.0371 83.127 85.832 82.8887 85.6914C82.7363 85.6055 82.4355 85.5059 81.9863 85.3926L81.1484 85.1816C80.6133 85.0488 80.2188 84.9004 79.9648 84.7363C79.5117 84.4512 79.2852 84.0566 79.2852 83.5527C79.2852 82.959 79.498 82.4785 79.9238 82.1113C80.3535 81.7441 80.9297 81.5605 81.6523 81.5605C82.5977 81.5605 83.2793 81.8379 83.6973 82.3926C83.959 82.7441 84.0859 83.123 84.0781 83.5293H83.082C83.0625 83.291 82.9785 83.0742 82.8301 82.8789C82.5879 82.6016 82.168 82.4629 81.5703 82.4629C81.1719 82.4629 80.8691 82.5391 80.6621 82.6914C80.459 82.8438 80.3574 83.0449 80.3574 83.2949C80.3574 83.5684 80.4922 83.7871 80.7617 83.9512C80.918 84.0488 81.1484 84.1348 81.4531 84.209L82.1504 84.3789C82.9082 84.5625 83.416 84.7402 83.6738 84.9121C84.084 85.1816 84.2891 85.6055 84.2891 86.1836C84.2891 86.7422 84.0762 87.2246 83.6504 87.6309C83.2285 88.0371 82.584 88.2402 81.7168 88.2402C80.7832 88.2402 80.1211 88.0293 79.7305 87.6074C79.3438 87.1816 79.1367 86.6562 79.1094 86.0312H80.123ZM85.707 79.9727H86.7734V81.7246H87.7754V82.5859H86.7734V86.6816C86.7734 86.9004 86.8477 87.0469 86.9961 87.1211C87.0781 87.1641 87.2148 87.1855 87.4062 87.1855C87.457 87.1855 87.5117 87.1855 87.5703 87.1855C87.6289 87.1816 87.6973 87.1758 87.7754 87.168V88C87.6543 88.0352 87.5273 88.0605 87.3945 88.0762C87.2656 88.0918 87.125 88.0996 86.9727 88.0996C86.4805 88.0996 86.1465 87.9746 85.9707 87.7246C85.7949 87.4707 85.707 87.1426 85.707 86.7402V82.5859H84.8574V81.7246H85.707V79.9727ZM92.8027 86.0312C92.834 86.3828 92.9219 86.6523 93.0664 86.8398C93.332 87.1797 93.793 87.3496 94.4492 87.3496C94.8398 87.3496 95.1836 87.2656 95.4805 87.0977C95.7773 86.9258 95.9258 86.6621 95.9258 86.3066C95.9258 86.0371 95.8066 85.832 95.5684 85.6914C95.416 85.6055 95.1152 85.5059 94.666 85.3926L93.8281 85.1816C93.293 85.0488 92.8984 84.9004 92.6445 84.7363C92.1914 84.4512 91.9648 84.0566 91.9648 83.5527C91.9648 82.959 92.1777 82.4785 92.6035 82.1113C93.0332 81.7441 93.6094 81.5605 94.332 81.5605C95.2773 81.5605 95.959 81.8379 96.377 82.3926C96.6387 82.7441 96.7656 83.123 96.7578 83.5293H95.7617C95.7422 83.291 95.6582 83.0742 95.5098 82.8789C95.2676 82.6016 94.8477 82.4629 94.25 82.4629C93.8516 82.4629 93.5488 82.5391 93.3418 82.6914C93.1387 82.8438 93.0371 83.0449 93.0371 83.2949C93.0371 83.5684 93.1719 83.7871 93.4414 83.9512C93.5977 84.0488 93.8281 84.1348 94.1328 84.209L94.8301 84.3789C95.5879 84.5625 96.0957 84.7402 96.3535 84.9121C96.7637 85.1816 96.9688 85.6055 96.9688 86.1836C96.9688 86.7422 96.7559 87.2246 96.3301 87.6309C95.9082 88.0371 95.2637 88.2402 94.3965 88.2402C93.4629 88.2402 92.8008 88.0293 92.4102 87.6074C92.0234 87.1816 91.8164 86.6562 91.7891 86.0312H92.8027ZM100.789 81.584C101.234 81.584 101.666 81.6895 102.084 81.9004C102.502 82.1074 102.82 82.377 103.039 82.709C103.25 83.0254 103.391 83.3945 103.461 83.8164C103.523 84.1055 103.555 84.5664 103.555 85.1992H98.9551C98.9746 85.8359 99.125 86.3477 99.4062 86.7344C99.6875 87.1172 100.123 87.3086 100.713 87.3086C101.264 87.3086 101.703 87.127 102.031 86.7637C102.219 86.5527 102.352 86.3086 102.43 86.0312H103.467C103.439 86.2617 103.348 86.5195 103.191 86.8047C103.039 87.0859 102.867 87.3164 102.676 87.4961C102.355 87.8086 101.959 88.0195 101.486 88.1289C101.232 88.1914 100.945 88.2227 100.625 88.2227C99.8438 88.2227 99.1816 87.9395 98.6387 87.373C98.0957 86.8027 97.8242 86.0059 97.8242 84.9824C97.8242 83.9746 98.0977 83.1562 98.6445 82.5273C99.1914 81.8984 99.9062 81.584 100.789 81.584ZM102.471 84.3613C102.428 83.9043 102.328 83.5391 102.172 83.2656C101.883 82.7578 101.4 82.5039 100.725 82.5039C100.24 82.5039 99.834 82.6797 99.5059 83.0312C99.1777 83.3789 99.0039 83.8223 98.9844 84.3613H102.471ZM104.885 81.7246H105.887V82.8086C105.969 82.5977 106.17 82.3418 106.49 82.041C106.811 81.7363 107.18 81.584 107.598 81.584C107.617 81.584 107.65 81.5859 107.697 81.5898C107.744 81.5938 107.824 81.6016 107.938 81.6133V82.7266C107.875 82.7148 107.816 82.707 107.762 82.7031C107.711 82.6992 107.654 82.6973 107.592 82.6973C107.061 82.6973 106.652 82.8691 106.367 83.2129C106.082 83.5527 105.939 83.9453 105.939 84.3906V88H104.885V81.7246ZM109.367 81.7246L111.043 86.834L112.795 81.7246H113.949L111.582 88H110.457L108.143 81.7246H109.367ZM114.852 81.7539H115.924V88H114.852V81.7539ZM114.852 79.3926H115.924V80.5879H114.852V79.3926ZM119.943 81.543C120.65 81.543 121.225 81.7148 121.666 82.0586C122.111 82.4023 122.379 82.9941 122.469 83.834H121.443C121.381 83.4473 121.238 83.127 121.016 82.873C120.793 82.6152 120.436 82.4863 119.943 82.4863C119.271 82.4863 118.791 82.8145 118.502 83.4707C118.314 83.8965 118.221 84.4219 118.221 85.0469C118.221 85.6758 118.354 86.2051 118.619 86.6348C118.885 87.0645 119.303 87.2793 119.873 87.2793C120.311 87.2793 120.656 87.1465 120.91 86.8809C121.168 86.6113 121.346 86.2441 121.443 85.7793H122.469C122.352 86.6113 122.059 87.2207 121.59 87.6074C121.121 87.9902 120.521 88.1816 119.791 88.1816C118.971 88.1816 118.316 87.8828 117.828 87.2852C117.34 86.6836 117.096 85.9336 117.096 85.0352C117.096 83.9336 117.363 83.0762 117.898 82.4629C118.434 81.8496 119.115 81.543 119.943 81.543ZM126.137 81.584C126.582 81.584 127.014 81.6895 127.432 81.9004C127.85 82.1074 128.168 82.377 128.387 82.709C128.598 83.0254 128.738 83.3945 128.809 83.8164C128.871 84.1055 128.902 84.5664 128.902 85.1992H124.303C124.322 85.8359 124.473 86.3477 124.754 86.7344C125.035 87.1172 125.471 87.3086 126.061 87.3086C126.611 87.3086 127.051 87.127 127.379 86.7637C127.566 86.5527 127.699 86.3086 127.777 86.0312H128.814C128.787 86.2617 128.695 86.5195 128.539 86.8047C128.387 87.0859 128.215 87.3164 128.023 87.4961C127.703 87.8086 127.307 88.0195 126.834 88.1289C126.58 88.1914 126.293 88.2227 125.973 88.2227C125.191 88.2227 124.529 87.9395 123.986 87.373C123.443 86.8027 123.172 86.0059 123.172 84.9824C123.172 83.9746 123.445 83.1562 123.992 82.5273C124.539 81.8984 125.254 81.584 126.137 81.584ZM127.818 84.3613C127.775 83.9043 127.676 83.5391 127.52 83.2656C127.23 82.7578 126.748 82.5039 126.072 82.5039C125.588 82.5039 125.182 82.6797 124.854 83.0312C124.525 83.3789 124.352 83.8223 124.332 84.3613H127.818ZM136.191 87.291C136.684 87.291 137.092 87.0859 137.416 86.6758C137.744 86.2617 137.908 85.6445 137.908 84.8242C137.908 84.3242 137.836 83.8945 137.691 83.5352C137.418 82.8438 136.918 82.498 136.191 82.498C135.461 82.498 134.961 82.8633 134.691 83.5938C134.547 83.9844 134.475 84.4805 134.475 85.082C134.475 85.5664 134.547 85.9785 134.691 86.3184C134.965 86.9668 135.465 87.291 136.191 87.291ZM133.461 81.7539H134.486V82.5859C134.697 82.3008 134.928 82.0801 135.178 81.9238C135.533 81.6895 135.951 81.5723 136.432 81.5723C137.143 81.5723 137.746 81.8457 138.242 82.3926C138.738 82.9355 138.986 83.7129 138.986 84.7246C138.986 86.0918 138.629 87.0684 137.914 87.6543C137.461 88.0254 136.934 88.2109 136.332 88.2109C135.859 88.2109 135.463 88.1074 135.143 87.9004C134.955 87.7832 134.746 87.582 134.516 87.2969V90.502H133.461V81.7539ZM140.252 79.3926H141.307V88H140.252V79.3926ZM143.703 86.3301C143.703 86.6348 143.814 86.875 144.037 87.0508C144.26 87.2266 144.523 87.3145 144.828 87.3145C145.199 87.3145 145.559 87.2285 145.906 87.0566C146.492 86.7715 146.785 86.3047 146.785 85.6562V84.8066C146.656 84.8887 146.49 84.957 146.287 85.0117C146.084 85.0664 145.885 85.1055 145.689 85.1289L145.051 85.2109C144.668 85.2617 144.381 85.3418 144.189 85.4512C143.865 85.6348 143.703 85.9277 143.703 86.3301ZM146.258 84.1973C146.5 84.166 146.662 84.0645 146.744 83.8926C146.791 83.7988 146.814 83.6641 146.814 83.4883C146.814 83.1289 146.686 82.8691 146.428 82.709C146.174 82.5449 145.809 82.4629 145.332 82.4629C144.781 82.4629 144.391 82.6113 144.16 82.9082C144.031 83.0723 143.947 83.3164 143.908 83.6406H142.924C142.943 82.8672 143.193 82.3301 143.674 82.0293C144.158 81.7246 144.719 81.5723 145.355 81.5723C146.094 81.5723 146.693 81.7129 147.154 81.9941C147.611 82.2754 147.84 82.7129 147.84 83.3066V86.9219C147.84 87.0312 147.861 87.1191 147.904 87.1855C147.951 87.252 148.047 87.2852 148.191 87.2852C148.238 87.2852 148.291 87.2832 148.35 87.2793C148.408 87.2715 148.471 87.2617 148.537 87.25V88.0293C148.373 88.0762 148.248 88.1055 148.162 88.1172C148.076 88.1289 147.959 88.1348 147.811 88.1348C147.447 88.1348 147.184 88.0059 147.02 87.748C146.934 87.6113 146.873 87.418 146.838 87.168C146.623 87.4492 146.314 87.6934 145.912 87.9004C145.51 88.1074 145.066 88.2109 144.582 88.2109C144 88.2109 143.523 88.0352 143.152 87.6836C142.785 87.3281 142.602 86.8848 142.602 86.3535C142.602 85.7715 142.783 85.3203 143.146 85C143.51 84.6797 143.986 84.4824 144.576 84.4082L146.258 84.1973ZM149.574 81.7246H150.576V82.6152C150.873 82.248 151.188 81.9844 151.52 81.8242C151.852 81.6641 152.221 81.584 152.627 81.584C153.518 81.584 154.119 81.8945 154.432 82.5156C154.604 82.8555 154.689 83.3418 154.689 83.9746V88H153.617V84.0449C153.617 83.6621 153.561 83.3535 153.447 83.1191C153.26 82.7285 152.92 82.5332 152.428 82.5332C152.178 82.5332 151.973 82.5586 151.812 82.6094C151.523 82.6953 151.27 82.8672 151.051 83.125C150.875 83.332 150.76 83.5469 150.705 83.7695C150.654 83.9883 150.629 84.3027 150.629 84.7129V88H149.574V81.7246Z"
    fill="#3C3C3C"
  />
  <defs>
    <filter
      id="filter0_d_2001_571"
      x="0"
      y="0"
      width="261"
      height="214"
      filterUnits="userSpaceOnUse"
      color-interpolation-filters="sRGB"
    >
      <feFlood flood-opacity="0" result="BackgroundImageFix" />
      <feColorMatrix
        in="SourceAlpha"
        type="matrix"
        values="0 0 0 0 0 0 0 0 0 0 0 0 0 0 0 0 0 0 127 0"
        result="hardAlpha"
      />
      <feMorphology
        radius="10"
        operator="dilate"
        in="SourceAlpha"
        result="effect1_dropShadow_2001_571"
      />
      <feOffset dy="4" />
      <feGaussianBlur stdDeviation="2" />
      <feComposite in2="hardAlpha" operator="out" />
      <feColorMatrix
        type="matrix"
        values="0 0 0 0 0.959326 0 0 0 0 0.959326 0 0 0 0 0.959326 0 0 0 0.25 0"
      />
      <feBlend
        mode="normal"
        in2="BackgroundImageFix"
        result="effect1_dropShadow_2001_571"
      />
      <feBlend
        mode="normal"
        in="SourceGraphic"
        in2="effect1_dropShadow_2001_571"
        result="shape"
      />
    </filter>
  </defs>
</svg>
