<svg width="277" height="369" viewBox="0 0 277 369" fill="none" xmlns="http://www.w3.org/2000/svg">
<g filter="url(#filter0_d_2001_496)">
<path d="M22 38C22 26.9543 30.9543 18 42 18H235C246.046 18 255 26.9543 255 38V343H22V38Z" fill="white"/>
</g>
<rect x="53.5" y="283.5" width="167" height="39" rx="9.5" stroke="#4A4A4A"/>
<path d="M64.4775 308V298.061H66.501V306.312H71.5322V308H64.4775ZM72.5234 304.268C72.5234 303.63 72.6807 303.012 72.9951 302.415C73.3096 301.818 73.7539 301.362 74.3281 301.048C74.9069 300.733 75.5518 300.576 76.2627 300.576C77.361 300.576 78.2611 300.934 78.9629 301.649C79.6647 302.36 80.0156 303.26 80.0156 304.35C80.0156 305.448 79.6602 306.359 78.9492 307.084C78.2428 307.804 77.3519 308.164 76.2764 308.164C75.611 308.164 74.9753 308.014 74.3691 307.713C73.7676 307.412 73.3096 306.972 72.9951 306.394C72.6807 305.81 72.5234 305.102 72.5234 304.268ZM74.4922 304.37C74.4922 305.09 74.6631 305.642 75.0049 306.024C75.3467 306.407 75.7682 306.599 76.2695 306.599C76.7708 306.599 77.1901 306.407 77.5273 306.024C77.8691 305.642 78.04 305.086 78.04 304.356C78.04 303.646 77.8691 303.099 77.5273 302.716C77.1901 302.333 76.7708 302.142 76.2695 302.142C75.7682 302.142 75.3467 302.333 75.0049 302.716C74.6631 303.099 74.4922 303.65 74.4922 304.37ZM87.8564 302.887L85.9629 303.229C85.8991 302.85 85.7533 302.565 85.5254 302.374C85.3021 302.183 85.0104 302.087 84.6504 302.087C84.1719 302.087 83.7891 302.253 83.502 302.586C83.2194 302.914 83.0781 303.465 83.0781 304.24C83.0781 305.102 83.2217 305.71 83.5088 306.065C83.8005 306.421 84.1901 306.599 84.6777 306.599C85.0423 306.599 85.3408 306.496 85.5732 306.291C85.8057 306.081 85.9697 305.724 86.0654 305.218L87.9521 305.539C87.7562 306.405 87.3802 307.059 86.8242 307.501C86.2682 307.943 85.5231 308.164 84.5889 308.164C83.527 308.164 82.6794 307.829 82.0459 307.159C81.417 306.489 81.1025 305.562 81.1025 304.377C81.1025 303.178 81.4193 302.246 82.0527 301.581C82.6862 300.911 83.543 300.576 84.623 300.576C85.5072 300.576 86.209 300.768 86.7285 301.15C87.2526 301.529 87.6286 302.107 87.8564 302.887ZM90.7549 302.955L89.0117 302.641C89.2077 301.939 89.5449 301.419 90.0234 301.082C90.502 300.745 91.2129 300.576 92.1562 300.576C93.013 300.576 93.651 300.679 94.0703 300.884C94.4896 301.084 94.7835 301.342 94.9521 301.656C95.1253 301.966 95.2119 302.538 95.2119 303.372L95.1914 305.614C95.1914 306.252 95.221 306.724 95.2803 307.029C95.3441 307.33 95.4603 307.654 95.6289 308H93.7285C93.6784 307.872 93.6169 307.683 93.5439 307.433C93.512 307.319 93.4893 307.243 93.4756 307.207C93.1475 307.526 92.7965 307.765 92.4229 307.925C92.0492 308.084 91.6504 308.164 91.2266 308.164C90.4792 308.164 89.889 307.961 89.4561 307.556C89.0277 307.15 88.8135 306.637 88.8135 306.018C88.8135 305.607 88.9115 305.243 89.1074 304.924C89.3034 304.6 89.5768 304.354 89.9277 304.186C90.2832 304.012 90.7936 303.862 91.459 303.734C92.3568 303.566 92.9788 303.409 93.3252 303.263V303.071C93.3252 302.702 93.234 302.44 93.0518 302.285C92.8695 302.126 92.5254 302.046 92.0195 302.046C91.6777 302.046 91.4111 302.114 91.2197 302.251C91.0283 302.383 90.8734 302.618 90.7549 302.955ZM93.3252 304.514C93.0791 304.596 92.6895 304.694 92.1562 304.808C91.623 304.922 91.2744 305.033 91.1104 305.143C90.8597 305.32 90.7344 305.546 90.7344 305.819C90.7344 306.088 90.8346 306.321 91.0352 306.517C91.2357 306.713 91.4909 306.811 91.8008 306.811C92.1471 306.811 92.4775 306.697 92.792 306.469C93.0244 306.296 93.1771 306.084 93.25 305.833C93.3001 305.669 93.3252 305.357 93.3252 304.896V304.514ZM100.441 300.74V302.271H99.1289V305.197C99.1289 305.79 99.1403 306.136 99.1631 306.236C99.1904 306.332 99.2474 306.412 99.334 306.476C99.4251 306.539 99.5345 306.571 99.6621 306.571C99.8398 306.571 100.097 306.51 100.435 306.387L100.599 307.877C100.152 308.068 99.6462 308.164 99.0811 308.164C98.7347 308.164 98.4225 308.107 98.1445 307.993C97.8665 307.875 97.6615 307.724 97.5293 307.542C97.4017 307.355 97.3128 307.104 97.2627 306.79C97.2217 306.567 97.2012 306.116 97.2012 305.437V302.271H96.3193V300.74H97.2012V299.298L99.1289 298.177V300.74H100.441ZM105.979 305.689L107.893 306.011C107.646 306.713 107.257 307.248 106.724 307.617C106.195 307.982 105.532 308.164 104.734 308.164C103.472 308.164 102.538 307.752 101.932 306.927C101.453 306.266 101.214 305.432 101.214 304.425C101.214 303.222 101.528 302.281 102.157 301.602C102.786 300.918 103.581 300.576 104.543 300.576C105.623 300.576 106.475 300.934 107.1 301.649C107.724 302.36 108.022 303.452 107.995 304.924H103.183C103.196 305.493 103.351 305.938 103.647 306.257C103.944 306.571 104.313 306.729 104.755 306.729C105.056 306.729 105.309 306.646 105.514 306.482C105.719 306.318 105.874 306.054 105.979 305.689ZM106.088 303.748C106.074 303.192 105.931 302.771 105.657 302.483C105.384 302.192 105.051 302.046 104.659 302.046C104.24 302.046 103.894 302.199 103.62 302.504C103.347 302.809 103.212 303.224 103.217 303.748H106.088ZM112.965 304.739L114.934 304.548C115.052 305.209 115.291 305.694 115.651 306.004C116.016 306.314 116.506 306.469 117.121 306.469C117.773 306.469 118.263 306.332 118.591 306.059C118.924 305.781 119.09 305.457 119.09 305.088C119.09 304.851 119.019 304.65 118.878 304.486C118.741 304.318 118.5 304.172 118.153 304.049C117.916 303.967 117.376 303.821 116.533 303.611C115.449 303.342 114.688 303.012 114.25 302.62C113.635 302.069 113.327 301.396 113.327 300.604C113.327 300.093 113.471 299.617 113.758 299.175C114.049 298.728 114.466 298.389 115.009 298.156C115.556 297.924 116.214 297.808 116.984 297.808C118.242 297.808 119.188 298.083 119.821 298.635C120.459 299.186 120.794 299.922 120.826 300.843L118.803 300.932C118.716 300.417 118.529 300.048 118.242 299.824C117.96 299.596 117.534 299.482 116.964 299.482C116.376 299.482 115.916 299.603 115.583 299.845C115.369 300 115.262 300.207 115.262 300.467C115.262 300.704 115.362 300.907 115.562 301.075C115.818 301.289 116.438 301.513 117.422 301.745C118.406 301.978 119.133 302.219 119.603 302.47C120.076 302.716 120.446 303.055 120.71 303.488C120.979 303.917 121.113 304.448 121.113 305.081C121.113 305.655 120.954 306.193 120.635 306.694C120.316 307.196 119.865 307.569 119.281 307.815C118.698 308.057 117.971 308.178 117.101 308.178C115.834 308.178 114.861 307.886 114.182 307.303C113.503 306.715 113.097 305.86 112.965 304.739ZM127.006 305.689L128.92 306.011C128.674 306.713 128.284 307.248 127.751 307.617C127.222 307.982 126.559 308.164 125.762 308.164C124.499 308.164 123.565 307.752 122.959 306.927C122.48 306.266 122.241 305.432 122.241 304.425C122.241 303.222 122.556 302.281 123.185 301.602C123.813 300.918 124.609 300.576 125.57 300.576C126.65 300.576 127.503 300.934 128.127 301.649C128.751 302.36 129.05 303.452 129.022 304.924H124.21C124.224 305.493 124.379 305.938 124.675 306.257C124.971 306.571 125.34 306.729 125.782 306.729C126.083 306.729 126.336 306.646 126.541 306.482C126.746 306.318 126.901 306.054 127.006 305.689ZM127.115 303.748C127.102 303.192 126.958 302.771 126.685 302.483C126.411 302.192 126.078 302.046 125.687 302.046C125.267 302.046 124.921 302.199 124.647 302.504C124.374 302.809 124.24 303.224 124.244 303.748H127.115ZM132.434 308H130.513V300.74H132.297V301.772C132.602 301.285 132.876 300.964 133.117 300.809C133.363 300.654 133.641 300.576 133.951 300.576C134.389 300.576 134.81 300.697 135.216 300.938L134.621 302.613C134.298 302.404 133.997 302.299 133.719 302.299C133.45 302.299 133.222 302.374 133.035 302.524C132.848 302.67 132.7 302.937 132.591 303.324C132.486 303.712 132.434 304.523 132.434 305.758V308ZM138.046 308L135.12 300.74H137.137L138.504 304.445L138.9 305.683C139.005 305.368 139.071 305.161 139.099 305.061C139.162 304.855 139.231 304.65 139.304 304.445L140.685 300.74H142.66L139.775 308H138.046ZM143.843 299.756V297.979H145.764V299.756H143.843ZM143.843 308V300.74H145.764V308H143.843ZM154.069 302.887L152.176 303.229C152.112 302.85 151.966 302.565 151.738 302.374C151.515 302.183 151.223 302.087 150.863 302.087C150.385 302.087 150.002 302.253 149.715 302.586C149.432 302.914 149.291 303.465 149.291 304.24C149.291 305.102 149.435 305.71 149.722 306.065C150.013 306.421 150.403 306.599 150.891 306.599C151.255 306.599 151.554 306.496 151.786 306.291C152.019 306.081 152.183 305.724 152.278 305.218L154.165 305.539C153.969 306.405 153.593 307.059 153.037 307.501C152.481 307.943 151.736 308.164 150.802 308.164C149.74 308.164 148.892 307.829 148.259 307.159C147.63 306.489 147.315 305.562 147.315 304.377C147.315 303.178 147.632 302.246 148.266 301.581C148.899 300.911 149.756 300.576 150.836 300.576C151.72 300.576 152.422 300.768 152.941 301.15C153.465 301.529 153.841 302.107 154.069 302.887ZM159.736 305.689L161.65 306.011C161.404 306.713 161.015 307.248 160.481 307.617C159.953 307.982 159.29 308.164 158.492 308.164C157.23 308.164 156.296 307.752 155.689 306.927C155.211 306.266 154.972 305.432 154.972 304.425C154.972 303.222 155.286 302.281 155.915 301.602C156.544 300.918 157.339 300.576 158.301 300.576C159.381 300.576 160.233 300.934 160.857 301.649C161.482 302.36 161.78 303.452 161.753 304.924H156.94C156.954 305.493 157.109 305.938 157.405 306.257C157.701 306.571 158.071 306.729 158.513 306.729C158.813 306.729 159.066 306.646 159.271 306.482C159.477 306.318 159.632 306.054 159.736 305.689ZM159.846 303.748C159.832 303.192 159.688 302.771 159.415 302.483C159.142 302.192 158.809 302.046 158.417 302.046C157.998 302.046 157.651 302.199 157.378 302.504C157.104 302.809 156.97 303.224 156.975 303.748H159.846ZM173.647 304.315L175.609 304.938C175.309 306.031 174.807 306.845 174.105 307.378C173.408 307.907 172.522 308.171 171.446 308.171C170.116 308.171 169.022 307.717 168.165 306.811C167.308 305.899 166.88 304.655 166.88 303.078C166.88 301.41 167.311 300.116 168.172 299.195C169.033 298.27 170.166 297.808 171.569 297.808C172.795 297.808 173.791 298.17 174.557 298.895C175.012 299.323 175.354 299.938 175.582 300.74L173.579 301.219C173.461 300.699 173.212 300.289 172.834 299.988C172.46 299.688 172.005 299.537 171.467 299.537C170.724 299.537 170.12 299.804 169.655 300.337C169.195 300.87 168.965 301.734 168.965 302.928C168.965 304.195 169.193 305.097 169.648 305.635C170.104 306.173 170.697 306.441 171.426 306.441C171.964 306.441 172.426 306.271 172.813 305.929C173.201 305.587 173.479 305.049 173.647 304.315ZM181.543 305.689L183.457 306.011C183.211 306.713 182.821 307.248 182.288 307.617C181.759 307.982 181.096 308.164 180.299 308.164C179.036 308.164 178.102 307.752 177.496 306.927C177.018 306.266 176.778 305.432 176.778 304.425C176.778 303.222 177.093 302.281 177.722 301.602C178.351 300.918 179.146 300.576 180.107 300.576C181.188 300.576 182.04 300.934 182.664 301.649C183.288 302.36 183.587 303.452 183.56 304.924H178.747C178.761 305.493 178.916 305.938 179.212 306.257C179.508 306.571 179.877 306.729 180.319 306.729C180.62 306.729 180.873 306.646 181.078 306.482C181.283 306.318 181.438 306.054 181.543 305.689ZM181.652 303.748C181.639 303.192 181.495 302.771 181.222 302.483C180.948 302.192 180.616 302.046 180.224 302.046C179.804 302.046 179.458 302.199 179.185 302.504C178.911 302.809 178.777 303.224 178.781 303.748H181.652ZM191.735 308H189.814V304.295C189.814 303.511 189.773 303.005 189.691 302.777C189.609 302.545 189.475 302.365 189.288 302.237C189.106 302.11 188.885 302.046 188.625 302.046C188.292 302.046 187.994 302.137 187.729 302.319C187.465 302.502 187.283 302.743 187.183 303.044C187.087 303.345 187.039 303.901 187.039 304.712V308H185.118V300.74H186.902V301.807C187.536 300.986 188.333 300.576 189.295 300.576C189.719 300.576 190.106 300.654 190.457 300.809C190.808 300.959 191.072 301.153 191.25 301.39C191.432 301.627 191.558 301.896 191.626 302.196C191.699 302.497 191.735 302.928 191.735 303.488V308ZM197.02 300.74V302.271H195.707V305.197C195.707 305.79 195.718 306.136 195.741 306.236C195.769 306.332 195.826 306.412 195.912 306.476C196.003 306.539 196.113 306.571 196.24 306.571C196.418 306.571 196.675 306.51 197.013 306.387L197.177 307.877C196.73 308.068 196.224 308.164 195.659 308.164C195.313 308.164 195.001 308.107 194.723 307.993C194.445 307.875 194.24 307.724 194.107 307.542C193.98 307.355 193.891 307.104 193.841 306.79C193.8 306.567 193.779 306.116 193.779 305.437V302.271H192.897V300.74H193.779V299.298L195.707 298.177V300.74H197.02ZM200.191 308H198.271V300.74H200.055V301.772C200.36 301.285 200.633 300.964 200.875 300.809C201.121 300.654 201.399 300.576 201.709 300.576C202.146 300.576 202.568 300.697 202.974 300.938L202.379 302.613C202.055 302.404 201.755 302.299 201.477 302.299C201.208 302.299 200.98 302.374 200.793 302.524C200.606 302.67 200.458 302.937 200.349 303.324C200.244 303.712 200.191 304.523 200.191 305.758V308ZM208.012 305.689L209.926 306.011C209.68 306.713 209.29 307.248 208.757 307.617C208.228 307.982 207.565 308.164 206.768 308.164C205.505 308.164 204.571 307.752 203.965 306.927C203.486 306.266 203.247 305.432 203.247 304.425C203.247 303.222 203.562 302.281 204.19 301.602C204.819 300.918 205.615 300.576 206.576 300.576C207.656 300.576 208.508 300.934 209.133 301.649C209.757 302.36 210.056 303.452 210.028 304.924H205.216C205.229 305.493 205.384 305.938 205.681 306.257C205.977 306.571 206.346 306.729 206.788 306.729C207.089 306.729 207.342 306.646 207.547 306.482C207.752 306.318 207.907 306.054 208.012 305.689ZM208.121 303.748C208.107 303.192 207.964 302.771 207.69 302.483C207.417 302.192 207.084 302.046 206.692 302.046C206.273 302.046 205.927 302.199 205.653 302.504C205.38 302.809 205.245 303.224 205.25 303.748H208.121Z" fill="#403F3F"/>
<path d="M54.21 46.708H49.1582V49.0254H53.5811V50.7754H49.1582V55H47.0664V44.9375H54.21V46.708ZM59.2139 49.3467C58.43 49.3467 57.9036 49.6019 57.6348 50.1123C57.4844 50.3994 57.4092 50.8415 57.4092 51.4385V55H55.4473V47.5488H57.3066V48.8477C57.6074 48.3509 57.8695 48.0114 58.0928 47.8291C58.4574 47.5238 58.9313 47.3711 59.5146 47.3711C59.5511 47.3711 59.5807 47.3734 59.6035 47.3779C59.6309 47.3779 59.6878 47.3802 59.7744 47.3848V49.3809C59.6514 49.3672 59.542 49.3581 59.4463 49.3535C59.3506 49.349 59.2731 49.3467 59.2139 49.3467ZM67.1367 48.4922C67.7656 49.2806 68.0801 50.2126 68.0801 51.2881C68.0801 52.3818 67.7656 53.3184 67.1367 54.0977C66.5078 54.8724 65.5531 55.2598 64.2725 55.2598C62.9919 55.2598 62.0371 54.8724 61.4082 54.0977C60.7793 53.3184 60.4648 52.3818 60.4648 51.2881C60.4648 50.2126 60.7793 49.2806 61.4082 48.4922C62.0371 47.7038 62.9919 47.3096 64.2725 47.3096C65.5531 47.3096 66.5078 47.7038 67.1367 48.4922ZM64.2656 48.957C63.696 48.957 63.2562 49.1598 62.9463 49.5654C62.641 49.9665 62.4883 50.5407 62.4883 51.2881C62.4883 52.0355 62.641 52.612 62.9463 53.0176C63.2562 53.4232 63.696 53.626 64.2656 53.626C64.8353 53.626 65.2728 53.4232 65.5781 53.0176C65.8835 52.612 66.0361 52.0355 66.0361 51.2881C66.0361 50.5407 65.8835 49.9665 65.5781 49.5654C65.2728 49.1598 64.8353 48.957 64.2656 48.957ZM73.665 49.5996C73.501 49.2396 73.1797 49.0596 72.7012 49.0596C72.1452 49.0596 71.7715 49.2396 71.5801 49.5996C71.4753 49.8047 71.4229 50.11 71.4229 50.5156V55H69.4473V47.5625H71.3408V48.6494C71.5824 48.262 71.8102 47.9863 72.0244 47.8223C72.4027 47.5306 72.8926 47.3848 73.4941 47.3848C74.0638 47.3848 74.5241 47.5101 74.875 47.7607C75.1576 47.9932 75.3717 48.2917 75.5176 48.6562C75.7728 48.2188 76.0895 47.8975 76.4678 47.6924C76.8688 47.4873 77.3154 47.3848 77.8076 47.3848C78.1357 47.3848 78.4593 47.4486 78.7783 47.5762C79.0973 47.7038 79.3867 47.9271 79.6465 48.2461C79.8561 48.5059 79.9974 48.8249 80.0703 49.2031C80.1159 49.4538 80.1387 49.8206 80.1387 50.3037L80.125 55H78.1289V50.2559C78.1289 49.9733 78.0833 49.7409 77.9922 49.5586C77.819 49.2122 77.5 49.0391 77.0352 49.0391C76.4974 49.0391 76.126 49.2624 75.9209 49.709C75.8161 49.946 75.7637 50.2308 75.7637 50.5635V55H73.8018V50.5635C73.8018 50.1214 73.7562 49.8001 73.665 49.5996ZM86.1133 48.3555C86.6283 47.6992 87.5124 47.3711 88.7656 47.3711C89.5814 47.3711 90.306 47.5329 90.9395 47.8564C91.5729 48.18 91.8896 48.7907 91.8896 49.6885V53.1064C91.8896 53.3434 91.8942 53.6305 91.9033 53.9678C91.917 54.223 91.9557 54.3962 92.0195 54.4873C92.0833 54.5785 92.179 54.6536 92.3066 54.7129V55H90.1875C90.1283 54.8496 90.0872 54.7083 90.0645 54.5762C90.0417 54.444 90.0234 54.2936 90.0098 54.125C89.7409 54.4167 89.431 54.665 89.0801 54.8701C88.6608 55.1117 88.1868 55.2324 87.6582 55.2324C86.9837 55.2324 86.4255 55.041 85.9834 54.6582C85.5459 54.2708 85.3271 53.724 85.3271 53.0176C85.3271 52.1016 85.6803 51.4385 86.3867 51.0283C86.7741 50.805 87.3438 50.6455 88.0957 50.5498L88.7588 50.4678C89.1188 50.4222 89.3763 50.3652 89.5312 50.2969C89.8092 50.1784 89.9482 49.9938 89.9482 49.7432C89.9482 49.4378 89.8411 49.2282 89.627 49.1143C89.4173 48.9958 89.1074 48.9365 88.6973 48.9365C88.237 48.9365 87.9111 49.0505 87.7197 49.2783C87.583 49.4469 87.4919 49.6748 87.4463 49.9619H85.5664C85.6074 49.3102 85.7897 48.7747 86.1133 48.3555ZM87.5625 53.5918C87.7448 53.7422 87.9681 53.8174 88.2324 53.8174C88.6517 53.8174 89.0368 53.6943 89.3877 53.4482C89.7432 53.2021 89.9277 52.7533 89.9414 52.1016V51.377C89.8184 51.4544 89.693 51.5182 89.5654 51.5684C89.4424 51.6139 89.2715 51.6572 89.0527 51.6982L88.6152 51.7803C88.2051 51.8532 87.9111 51.9421 87.7334 52.0469C87.4326 52.2246 87.2822 52.5003 87.2822 52.874C87.2822 53.2067 87.3757 53.446 87.5625 53.5918ZM97.1328 48.9912C96.472 48.9912 96.0186 49.2715 95.7725 49.832C95.6449 50.1283 95.5811 50.5065 95.5811 50.9668V55H93.6396V47.5625H95.5195V48.6494C95.7702 48.2666 96.0072 47.9909 96.2305 47.8223C96.6315 47.5215 97.1396 47.3711 97.7549 47.3711C98.5251 47.3711 99.154 47.5739 99.6416 47.9795C100.134 48.3805 100.38 49.0482 100.38 49.9824V55H98.3838V50.4678C98.3838 50.0758 98.3314 49.7751 98.2266 49.5654C98.0352 49.1826 97.6706 48.9912 97.1328 48.9912ZM105.213 53.0449L106.751 47.5488H108.822L106.266 54.877C105.773 56.2897 105.384 57.1647 105.097 57.502C104.81 57.8438 104.235 58.0146 103.374 58.0146C103.201 58.0146 103.062 58.0124 102.957 58.0078C102.852 58.0078 102.695 58.001 102.485 57.9873V56.4287L102.731 56.4424C102.923 56.4515 103.105 56.4447 103.278 56.4219C103.451 56.3991 103.597 56.3467 103.716 56.2646C103.83 56.1872 103.935 56.0254 104.03 55.7793C104.131 55.5332 104.172 55.3828 104.153 55.3281L101.419 47.5488H103.586L105.213 53.0449ZM46.9502 61.9238H48.8984V72H46.9502V61.9238ZM57.0195 65.4922C57.6484 66.2806 57.9629 67.2126 57.9629 68.2881C57.9629 69.3818 57.6484 70.3184 57.0195 71.0977C56.3906 71.8724 55.4359 72.2598 54.1553 72.2598C52.8747 72.2598 51.9199 71.8724 51.291 71.0977C50.6621 70.3184 50.3477 69.3818 50.3477 68.2881C50.3477 67.2126 50.6621 66.2806 51.291 65.4922C51.9199 64.7038 52.8747 64.3096 54.1553 64.3096C55.4359 64.3096 56.3906 64.7038 57.0195 65.4922ZM54.1484 65.957C53.5788 65.957 53.139 66.1598 52.8291 66.5654C52.5238 66.9665 52.3711 67.5407 52.3711 68.2881C52.3711 69.0355 52.5238 69.612 52.8291 70.0176C53.139 70.4232 53.5788 70.626 54.1484 70.626C54.7181 70.626 55.1556 70.4232 55.4609 70.0176C55.7663 69.612 55.9189 69.0355 55.9189 68.2881C55.9189 67.5407 55.7663 66.9665 55.4609 66.5654C55.1556 66.1598 54.7181 65.957 54.1484 65.957ZM65.8105 67.2217H63.8145C63.778 66.9437 63.6846 66.693 63.5342 66.4697C63.3154 66.1689 62.9759 66.0186 62.5156 66.0186C61.8594 66.0186 61.4105 66.3444 61.1689 66.9961C61.0413 67.3424 60.9775 67.8027 60.9775 68.377C60.9775 68.9238 61.0413 69.3636 61.1689 69.6963C61.4014 70.3161 61.8389 70.626 62.4814 70.626C62.9372 70.626 63.2607 70.5029 63.4521 70.2568C63.6436 70.0107 63.7598 69.6917 63.8008 69.2998H65.79C65.7445 69.8923 65.5303 70.4528 65.1475 70.9814C64.5368 71.8337 63.6322 72.2598 62.4336 72.2598C61.235 72.2598 60.3532 71.9043 59.7881 71.1934C59.223 70.4824 58.9404 69.5596 58.9404 68.4248C58.9404 67.1442 59.2526 66.1484 59.877 65.4375C60.5013 64.7266 61.3626 64.3711 62.4609 64.3711C63.3952 64.3711 64.1585 64.5807 64.751 65C65.348 65.4193 65.7012 66.1598 65.8105 67.2217ZM67.4375 65.3555C67.9525 64.6992 68.8366 64.3711 70.0898 64.3711C70.9056 64.3711 71.6302 64.5329 72.2637 64.8564C72.8971 65.18 73.2139 65.7907 73.2139 66.6885V70.1064C73.2139 70.3434 73.2184 70.6305 73.2275 70.9678C73.2412 71.223 73.2799 71.3962 73.3438 71.4873C73.4076 71.5785 73.5033 71.6536 73.6309 71.7129V72H71.5117C71.4525 71.8496 71.4115 71.7083 71.3887 71.5762C71.3659 71.444 71.3477 71.2936 71.334 71.125C71.0651 71.4167 70.7552 71.665 70.4043 71.8701C69.985 72.1117 69.5111 72.2324 68.9824 72.2324C68.3079 72.2324 67.7497 72.041 67.3076 71.6582C66.8701 71.2708 66.6514 70.724 66.6514 70.0176C66.6514 69.1016 67.0046 68.4385 67.7109 68.0283C68.0983 67.805 68.668 67.6455 69.4199 67.5498L70.083 67.4678C70.443 67.4222 70.7005 67.3652 70.8555 67.2969C71.1335 67.1784 71.2725 66.9938 71.2725 66.7432C71.2725 66.4378 71.1654 66.2282 70.9512 66.1143C70.7415 65.9958 70.4316 65.9365 70.0215 65.9365C69.5612 65.9365 69.2354 66.0505 69.0439 66.2783C68.9072 66.4469 68.8161 66.6748 68.7705 66.9619H66.8906C66.9316 66.3102 67.1139 65.7747 67.4375 65.3555ZM68.8867 70.5918C69.069 70.7422 69.2923 70.8174 69.5566 70.8174C69.9759 70.8174 70.361 70.6943 70.7119 70.4482C71.0674 70.2021 71.252 69.7533 71.2656 69.1016V68.377C71.1426 68.4544 71.0173 68.5182 70.8896 68.5684C70.7666 68.6139 70.5957 68.6572 70.377 68.6982L69.9395 68.7803C69.5293 68.8532 69.2354 68.9421 69.0576 69.0469C68.7568 69.2246 68.6064 69.5003 68.6064 69.874C68.6064 70.2067 68.6999 70.446 68.8867 70.5918ZM78.3613 70.6123V72.0684L77.4385 72.1025C76.5179 72.1344 75.889 71.9749 75.5518 71.624C75.333 71.4007 75.2236 71.0566 75.2236 70.5918V66.0049H74.1846V64.6172H75.2236V62.5391H77.1514V64.6172H78.3613V66.0049H77.1514V69.9424C77.1514 70.2477 77.1901 70.4391 77.2676 70.5166C77.3451 70.5895 77.582 70.626 77.9785 70.626C78.0378 70.626 78.0993 70.626 78.1631 70.626C78.2314 70.6214 78.2975 70.6169 78.3613 70.6123ZM81.6152 64.5488V72H79.6396V64.5488H81.6152ZM81.6152 61.8623V63.6602H79.6396V61.8623H81.6152ZM89.7227 65.4922C90.3516 66.2806 90.666 67.2126 90.666 68.2881C90.666 69.3818 90.3516 70.3184 89.7227 71.0977C89.0938 71.8724 88.139 72.2598 86.8584 72.2598C85.5778 72.2598 84.623 71.8724 83.9941 71.0977C83.3652 70.3184 83.0508 69.3818 83.0508 68.2881C83.0508 67.2126 83.3652 66.2806 83.9941 65.4922C84.623 64.7038 85.5778 64.3096 86.8584 64.3096C88.139 64.3096 89.0938 64.7038 89.7227 65.4922ZM86.8516 65.957C86.2819 65.957 85.8421 66.1598 85.5322 66.5654C85.2269 66.9665 85.0742 67.5407 85.0742 68.2881C85.0742 69.0355 85.2269 69.612 85.5322 70.0176C85.8421 70.4232 86.2819 70.626 86.8516 70.626C87.4212 70.626 87.8587 70.4232 88.1641 70.0176C88.4694 69.612 88.6221 69.0355 88.6221 68.2881C88.6221 67.5407 88.4694 66.9665 88.1641 66.5654C87.8587 66.1598 87.4212 65.957 86.8516 65.957ZM95.5742 65.9912C94.9134 65.9912 94.46 66.2715 94.2139 66.832C94.0863 67.1283 94.0225 67.5065 94.0225 67.9668V72H92.0811V64.5625H93.9609V65.6494C94.2116 65.2666 94.4486 64.9909 94.6719 64.8223C95.0729 64.5215 95.5811 64.3711 96.1963 64.3711C96.9665 64.3711 97.5954 64.5739 98.083 64.9795C98.5752 65.3805 98.8213 66.0482 98.8213 66.9824V72H96.8252V67.4678C96.8252 67.0758 96.7728 66.7751 96.668 66.5654C96.4766 66.1826 96.112 65.9912 95.5742 65.9912Z" fill="#3C3C3C"/>
<path d="M72.3575 204.03C72.5493 204.225 72.8477 204.225 73.0395 204.03C74.6914 202.288 81.504 194.597 81.504 186.252C81.5013 183.661 80.5182 181.181 78.781 179.391C77.0412 177.597 74.6993 176.647 72.2961 176.762C67.3032 176.989 63.5786 181.801 63.893 187.174C64.3913 195.163 70.7669 202.357 72.3575 204.03ZM72.7118 180.309C74.9445 180.309 76.9561 181.758 77.8087 183.979C78.6639 186.198 78.1924 188.755 76.6124 190.456C75.0351 192.155 72.6612 192.663 70.5991 191.742C68.5396 190.824 67.194 188.657 67.194 186.252C67.194 182.969 69.6639 180.309 72.7118 180.309Z" fill="#676766"/>
<path d="M72.6912 206.135C64.611 206.135 58 207.014 58 208.089C58 209.168 64.611 210.053 72.6912 210.053C80.7714 210.053 87.3824 209.174 87.3824 208.058C87.3824 206.943 80.8087 206.135 72.6912 206.135Z" fill="#676766"/>
<path d="M137.014 237.075C137.206 237.27 137.504 237.27 137.696 237.075C139.348 235.333 146.16 227.642 146.16 219.297C146.158 216.706 145.174 214.226 143.437 212.435C141.697 210.642 139.356 209.692 136.952 209.807C131.959 210.034 128.235 214.846 128.549 220.218C129.048 228.208 135.423 235.402 137.014 237.075ZM137.368 213.354C139.601 213.354 141.612 214.803 142.465 217.024C143.32 219.242 142.849 221.799 141.269 223.501C139.691 225.2 137.317 225.708 135.255 224.787C133.196 223.868 131.85 221.702 131.85 219.297C131.85 216.014 134.32 213.354 137.368 213.354Z" fill="#676766"/>
<path d="M137.347 239.18C129.267 239.18 122.656 240.059 122.656 241.134C122.656 242.212 129.267 243.097 137.347 243.097C145.428 243.097 152.039 242.219 152.039 241.103C152.039 239.987 145.465 239.18 137.347 239.18Z" fill="#676766"/>
<path d="M192.614 140.921C192.751 141.064 192.963 141.064 193.1 140.921C194.275 139.646 199.124 134.015 199.124 127.906C199.122 126.009 198.423 124.194 197.186 122.883C195.948 121.57 194.281 120.875 192.571 120.959C189.017 121.125 186.366 124.648 186.59 128.581C186.944 134.43 191.482 139.697 192.614 140.921ZM192.866 123.555C194.456 123.555 195.887 124.616 196.494 126.242C197.103 127.866 196.767 129.738 195.643 130.984C194.52 132.228 192.83 132.6 191.363 131.925C189.897 131.253 188.939 129.667 188.939 127.906C188.939 125.503 190.697 123.555 192.866 123.555Z" fill="#676766"/>
<path d="M192.851 143.538C186.64 143.538 181.558 144.101 181.558 144.79C181.558 145.481 186.64 146.048 192.851 146.048C199.062 146.048 204.144 145.485 204.144 144.77C204.144 144.055 199.091 143.538 192.851 143.538Z" fill="#676766"/>
<path d="M111.056 156.969C111.193 157.112 111.405 157.112 111.542 156.969C112.717 155.694 117.566 150.064 117.566 143.954C117.564 142.057 116.865 140.242 115.628 138.931C114.39 137.618 112.723 136.923 111.012 137.007C107.459 137.173 104.808 140.696 105.031 144.629C105.386 150.478 109.924 155.745 111.056 156.969ZM111.308 139.603C112.897 139.603 114.329 140.664 114.936 142.29C115.545 143.914 115.209 145.786 114.085 147.032C112.962 148.276 111.272 148.648 109.805 147.973C108.339 147.301 107.381 145.715 107.381 143.954C107.381 141.551 109.139 139.603 111.308 139.603Z" fill="#676766"/>
<path d="M111.293 159.586C105.082 159.586 100 160.149 100 160.838C100 161.529 105.082 162.096 111.293 162.096C117.504 162.096 122.586 161.533 122.586 160.818C122.586 160.103 117.533 159.586 111.293 159.586Z" fill="#676766"/>
<path d="M193.184 211.588C193.377 211.789 193.676 211.789 193.869 211.588C195.529 209.787 202.375 201.838 202.375 193.214C202.372 190.535 201.384 187.973 199.638 186.122C197.89 184.268 195.537 183.287 193.122 183.405C188.105 183.64 184.363 188.614 184.679 194.166C185.179 202.423 191.586 209.859 193.184 211.588ZM193.54 187.071C195.783 187.071 197.805 188.569 198.661 190.865C199.521 193.157 199.047 195.8 197.459 197.559C195.874 199.315 193.489 199.84 191.417 198.887C189.347 197.938 187.995 195.699 187.995 193.214C187.995 189.82 190.477 187.071 193.54 187.071Z" fill="#676766"/>
<path d="M193.519 215.282C184.75 215.282 177.576 216.077 177.576 217.049C177.576 218.024 184.75 218.825 193.519 218.825C202.288 218.825 209.462 218.03 209.462 217.021C209.462 216.012 202.328 215.282 193.519 215.282Z" fill="#676766"/>
<path d="M143.925 204.405C143.788 204.645 143.872 204.951 144.111 205.088C144.351 205.224 144.657 205.141 144.794 204.901L144.359 204.653L143.925 204.405ZM188.18 182C188.078 181.743 187.788 181.617 187.531 181.718C187.274 181.82 187.148 182.11 187.25 182.367L187.715 182.183L188.18 182ZM185.519 179.074C185.678 179.3 185.99 179.355 186.216 179.196C186.442 179.038 186.496 178.726 186.338 178.5L185.929 178.787L185.519 179.074ZM183.484 175.668C183.254 175.517 182.944 175.581 182.792 175.812C182.64 176.042 182.705 176.352 182.935 176.504L183.21 176.086L183.484 175.668ZM179.571 175.255C179.844 175.293 180.097 175.101 180.134 174.828C180.172 174.554 179.98 174.302 179.707 174.265L179.639 174.76L179.571 175.255ZM175.713 174.434C175.442 174.488 175.266 174.751 175.32 175.022C175.374 175.293 175.638 175.469 175.909 175.415L175.811 174.924L175.713 174.434ZM172.351 176.55C172.605 176.441 172.722 176.148 172.614 175.894C172.505 175.64 172.211 175.522 171.958 175.63L172.154 176.09L172.351 176.55ZM168.476 177.422C168.239 177.564 168.162 177.871 168.303 178.108C168.445 178.345 168.752 178.423 168.989 178.281L168.733 177.852L168.476 177.422ZM165.827 180.389C166.049 180.226 166.098 179.913 165.934 179.69C165.771 179.468 165.458 179.42 165.235 179.583L165.531 179.986L165.827 180.389ZM162.191 181.996C161.981 182.175 161.956 182.491 162.135 182.701C162.314 182.911 162.629 182.937 162.839 182.758L162.515 182.377L162.191 181.996ZM160.005 185.321C160.204 185.13 160.211 184.814 160.02 184.614C159.829 184.415 159.513 184.408 159.313 184.599L159.659 184.96L160.005 185.321ZM156.583 187.351C156.393 187.551 156.402 187.868 156.603 188.057C156.804 188.247 157.12 188.238 157.31 188.037L156.946 187.694L156.583 187.351ZM154.748 190.877C154.928 190.668 154.905 190.352 154.696 190.172C154.487 189.991 154.171 190.014 153.991 190.224L154.369 190.55L154.748 190.877ZM151.525 193.208C151.353 193.424 151.39 193.739 151.606 193.91C151.823 194.082 152.137 194.045 152.309 193.829L151.917 193.518L151.525 193.208ZM149.994 196.878C150.157 196.655 150.107 196.342 149.884 196.18C149.661 196.018 149.348 196.067 149.186 196.29L149.59 196.584L149.994 196.878ZM146.975 199.469C146.822 199.699 146.884 200.009 147.114 200.162C147.344 200.315 147.655 200.252 147.808 200.023L147.391 199.746L146.975 199.469ZM145.76 203.254C145.902 203.017 145.826 202.71 145.59 202.568C145.353 202.425 145.046 202.501 144.903 202.738L145.332 202.996L145.76 203.254ZM188.348 184.008L188.826 183.863C188.627 183.206 188.411 182.585 188.18 182L187.715 182.183L187.25 182.367C187.47 182.925 187.677 183.521 187.869 184.154L188.348 184.008ZM185.929 178.787L186.338 178.5C185.495 177.299 184.539 176.361 183.484 175.668L183.21 176.086L182.935 176.504C183.873 177.12 184.741 177.965 185.519 179.074L185.929 178.787ZM179.639 174.76L179.707 174.265C178.431 174.09 177.092 174.158 175.713 174.434L175.811 174.924L175.909 175.415C177.199 175.157 178.424 175.098 179.571 175.255L179.639 174.76ZM172.154 176.09L171.958 175.63C170.813 176.12 169.649 176.722 168.476 177.422L168.733 177.852L168.989 178.281C170.129 177.601 171.253 177.019 172.351 176.55L172.154 176.09ZM165.531 179.986L165.235 179.583C164.22 180.327 163.204 181.135 162.191 181.996L162.515 182.377L162.839 182.758C163.835 181.91 164.833 181.118 165.827 180.389L165.531 179.986ZM159.659 184.96L159.313 184.599C158.393 185.479 157.482 186.399 156.583 187.351L156.946 187.694L157.31 188.037C158.198 187.097 159.098 186.19 160.005 185.321L159.659 184.96ZM154.369 190.55L153.991 190.224C153.151 191.196 152.328 192.193 151.525 193.208L151.917 193.518L152.309 193.829C153.103 192.825 153.918 191.839 154.748 190.877L154.369 190.55ZM149.59 196.584L149.186 196.29C148.423 197.34 147.684 198.401 146.975 199.469L147.391 199.746L147.808 200.023C148.509 198.967 149.24 197.917 149.994 196.878L149.59 196.584ZM145.332 202.996L144.903 202.738C144.568 203.294 144.242 203.85 143.925 204.405L144.359 204.653L144.794 204.901C145.106 204.353 145.429 203.804 145.76 203.254L145.332 202.996Z" fill="#FCC900"/>
<path d="M139.21 204.586C139.174 204.86 139.366 205.112 139.639 205.148C139.913 205.185 140.165 204.993 140.201 204.72L139.706 204.653L139.21 204.586ZM190.52 118.45C190.327 118.253 190.01 118.249 189.813 118.442C189.615 118.635 189.612 118.952 189.805 119.149L190.162 118.8L190.52 118.45ZM186.935 116.637C187.159 116.8 187.471 116.751 187.634 116.527C187.796 116.304 187.747 115.991 187.524 115.829L187.23 116.233L186.935 116.637ZM183.981 113.849C183.724 113.749 183.434 113.876 183.334 114.133C183.233 114.39 183.36 114.68 183.617 114.781L183.799 114.315L183.981 113.849ZM179.974 114.028C180.25 114.034 180.479 113.816 180.485 113.539C180.492 113.263 180.273 113.035 179.997 113.028L179.985 113.528L179.974 114.028ZM175.96 113.681C175.699 113.772 175.56 114.056 175.651 114.317C175.741 114.578 176.026 114.717 176.287 114.626L176.123 114.154L175.96 113.681ZM172.928 116.347C173.156 116.192 173.216 115.881 173.061 115.652C172.906 115.424 172.595 115.364 172.367 115.519L172.647 115.933L172.928 116.347ZM169.258 118.077C169.06 118.269 169.055 118.586 169.247 118.784C169.439 118.982 169.756 118.987 169.954 118.795L169.606 118.436L169.258 118.077ZM167.358 121.644C167.532 121.43 167.5 121.115 167.286 120.941C167.072 120.766 166.758 120.798 166.583 121.012L166.97 121.328L167.358 121.644ZM164.208 124.201C164.052 124.429 164.11 124.74 164.338 124.896C164.566 125.052 164.877 124.994 165.033 124.766L164.621 124.483L164.208 124.201ZM162.932 128.06C163.073 127.823 162.996 127.516 162.759 127.374C162.521 127.233 162.214 127.311 162.073 127.548L162.502 127.804L162.932 128.06ZM160.131 131C160.001 131.243 160.093 131.546 160.337 131.676C160.581 131.806 160.884 131.713 161.014 131.469L160.572 131.235L160.131 131ZM159.247 134.961C159.367 134.712 159.262 134.413 159.013 134.293C158.765 134.173 158.466 134.277 158.346 134.526L158.796 134.743L159.247 134.961ZM156.692 138.109C156.58 138.362 156.695 138.657 156.947 138.769C157.2 138.88 157.495 138.766 157.607 138.514L157.149 138.311L156.692 138.109ZM156.075 142.116C156.179 141.86 156.057 141.568 155.801 141.464C155.546 141.359 155.254 141.482 155.149 141.737L155.612 141.926L156.075 142.116ZM153.702 145.403C153.604 145.661 153.734 145.95 153.992 146.048C154.25 146.147 154.539 146.017 154.637 145.759L154.17 145.581L153.702 145.403ZM153.282 149.437C153.375 149.177 153.239 148.891 152.979 148.798C152.719 148.705 152.433 148.841 152.34 149.101L152.811 149.269L153.282 149.437ZM151.053 152.827C150.966 153.089 151.107 153.372 151.369 153.46C151.631 153.548 151.914 153.406 152.002 153.145L151.528 152.986L151.053 152.827ZM150.789 156.878C150.872 156.614 150.726 156.333 150.463 156.25C150.199 156.167 149.919 156.314 149.836 156.577L150.312 156.727L150.789 156.878ZM148.681 160.347C148.603 160.612 148.753 160.89 149.018 160.969C149.283 161.048 149.561 160.897 149.64 160.632L149.161 160.49L148.681 160.347ZM148.549 164.404C148.624 164.138 148.469 163.862 148.203 163.788C147.937 163.713 147.661 163.868 147.587 164.134L148.068 164.269L148.549 164.404ZM146.549 167.931C146.478 168.198 146.637 168.472 146.904 168.543C147.171 168.614 147.445 168.455 147.516 168.188L147.032 168.06L146.549 167.931ZM146.534 171.988C146.602 171.72 146.439 171.449 146.171 171.381C145.903 171.314 145.632 171.477 145.564 171.745L146.049 171.866L146.534 171.988ZM144.63 175.572C144.567 175.841 144.733 176.11 145.001 176.174C145.27 176.237 145.54 176.071 145.603 175.803L145.117 175.687L144.63 175.572ZM144.722 179.629C144.782 179.359 144.613 179.092 144.343 179.032C144.074 178.971 143.806 179.141 143.746 179.41L144.234 179.52L144.722 179.629ZM142.911 183.258C142.854 183.528 143.027 183.794 143.297 183.85C143.567 183.907 143.833 183.734 143.89 183.464L143.4 183.361L142.911 183.258ZM143.106 187.306C143.16 187.035 142.983 186.772 142.712 186.719C142.441 186.666 142.178 186.842 142.125 187.113L142.615 187.21L143.106 187.306ZM141.387 190.983C141.337 191.255 141.516 191.515 141.788 191.565C142.059 191.615 142.32 191.436 142.37 191.164L141.878 191.074L141.387 190.983ZM141.683 195.033C141.73 194.761 141.547 194.503 141.275 194.456C141.002 194.41 140.744 194.593 140.698 194.865L141.19 194.949L141.683 195.033ZM140.06 198.755C140.018 199.028 140.204 199.284 140.477 199.326C140.75 199.369 141.006 199.183 141.048 198.91L140.554 198.832L140.06 198.755ZM140.468 202.794C140.507 202.52 140.316 202.267 140.043 202.228C139.77 202.189 139.516 202.38 139.478 202.653L139.973 202.723L140.468 202.794ZM191.524 120.287L191.903 119.961C191.441 119.424 190.98 118.921 190.52 118.45L190.162 118.8L189.805 119.149C190.25 119.604 190.696 120.092 191.145 120.613L191.524 120.287ZM187.23 116.233L187.524 115.829C186.341 114.967 185.16 114.31 183.981 113.849L183.799 114.315L183.617 114.781C184.706 115.206 185.813 115.819 186.935 116.637L187.23 116.233ZM179.985 113.528L179.997 113.028C178.628 112.997 177.281 113.224 175.96 113.681L176.123 114.154L176.287 114.626C177.504 114.205 178.733 114 179.974 114.028L179.985 113.528ZM172.647 115.933L172.367 115.519C171.311 116.234 170.274 117.092 169.258 118.077L169.606 118.436L169.954 118.795C170.935 117.844 171.927 117.025 172.928 116.347L172.647 115.933ZM166.97 121.328L166.583 121.012C165.778 121.999 164.987 123.064 164.208 124.201L164.621 124.483L165.033 124.766C165.798 123.65 166.573 122.607 167.358 121.644L166.97 121.328ZM162.502 127.804L162.073 127.548C161.415 128.65 160.768 129.802 160.131 131L160.572 131.235L161.014 131.469C161.644 130.285 162.283 129.147 162.932 128.06L162.502 127.804ZM158.796 134.743L158.346 134.526C157.786 135.688 157.234 136.883 156.692 138.109L157.149 138.311L157.607 138.514C158.145 137.297 158.692 136.112 159.247 134.961L158.796 134.743ZM155.612 141.926L155.149 141.737C154.659 142.936 154.176 144.159 153.702 145.403L154.17 145.581L154.637 145.759C155.108 144.522 155.588 143.307 156.075 142.116L155.612 141.926ZM152.811 149.269L152.34 149.101C151.903 150.327 151.474 151.57 151.053 152.827L151.528 152.986L152.002 153.145C152.42 151.893 152.847 150.657 153.282 149.437L152.811 149.269ZM150.312 156.727L149.836 156.577C149.443 157.823 149.058 159.081 148.681 160.347L149.161 160.49L149.64 160.632C150.015 159.371 150.398 158.118 150.789 156.878L150.312 156.727ZM148.068 164.269L147.587 164.134C147.233 165.394 146.887 166.66 146.549 167.931L147.032 168.06L147.516 168.188C147.852 166.921 148.197 165.659 148.549 164.404L148.068 164.269ZM146.049 171.866L145.564 171.745C145.245 173.019 144.933 174.295 144.63 175.572L145.117 175.687L145.603 175.803C145.905 174.53 146.216 173.258 146.534 171.988L146.049 171.866ZM144.234 179.52L143.746 179.41C143.459 180.696 143.18 181.979 142.911 183.258L143.4 183.361L143.89 183.464C144.158 182.189 144.435 180.91 144.722 179.629L144.234 179.52ZM142.615 187.21L142.125 187.113C141.869 188.41 141.623 189.701 141.387 190.983L141.878 191.074L142.37 191.164C142.605 189.886 142.851 188.599 143.106 187.306L142.615 187.21ZM141.19 194.949L140.698 194.865C140.474 196.174 140.262 197.472 140.06 198.755L140.554 198.832L141.048 198.91C141.249 197.631 141.461 196.338 141.683 195.033L141.19 194.949ZM139.973 202.723L139.478 202.653C139.385 203.302 139.296 203.947 139.21 204.586L139.706 204.653L140.201 204.72C140.287 204.082 140.376 203.44 140.468 202.794L139.973 202.723Z" fill="#FCC900"/>
<path d="M76.8558 173.144C76.697 173.37 76.7514 173.682 76.9774 173.841C77.2033 173.999 77.5152 173.945 77.674 173.719L77.2649 173.431L76.8558 173.144ZM78.9056 172.122C79.0842 171.912 79.0583 171.596 78.8477 171.418C78.6371 171.239 78.3216 171.265 78.143 171.475L78.5243 171.799L78.9056 172.122ZM81.1611 168.579C80.9422 168.748 80.9013 169.062 81.0696 169.281C81.238 169.499 81.5519 169.54 81.7708 169.372L81.466 168.976L81.1611 168.579ZM85.1648 167.351C85.4174 167.24 85.5317 166.945 85.4202 166.692C85.3086 166.439 85.0134 166.325 84.7608 166.437L84.9628 166.894L85.1648 167.351ZM88.7751 165.212C88.5034 165.262 88.3231 165.522 88.3724 165.794C88.4217 166.065 88.6819 166.246 88.9536 166.196L88.8643 165.704L88.7751 165.212ZM92.9178 165.902C93.1939 165.908 93.4231 165.69 93.4298 165.414C93.4365 165.138 93.2181 164.909 92.9421 164.902L92.9299 165.402L92.9178 165.902ZM97.0818 165.356C96.8105 165.305 96.5487 165.483 96.4971 165.754C96.4455 166.025 96.6236 166.287 96.8949 166.339L96.9883 165.847L97.0818 165.356ZM100.791 167.356C101.054 167.442 101.336 167.299 101.422 167.037C101.509 166.774 101.366 166.492 101.103 166.406L100.947 166.881L100.791 167.356ZM104.954 167.904C104.702 167.791 104.406 167.904 104.293 168.156C104.18 168.408 104.293 168.704 104.545 168.817L104.749 168.36L104.954 167.904ZM108.165 170.635C108.406 170.769 108.711 170.682 108.845 170.441C108.979 170.2 108.892 169.895 108.651 169.761L108.408 170.198L108.165 170.635ZM112.174 171.897C111.943 171.745 111.633 171.81 111.482 172.04C111.33 172.271 111.394 172.581 111.625 172.733L111.899 172.315L112.174 171.897ZM114.94 175.071C115.161 175.238 115.474 175.194 115.641 174.973C115.807 174.753 115.763 174.439 115.543 174.273L115.242 174.672L114.94 175.071ZM118.753 176.854C118.543 176.674 118.228 176.699 118.048 176.909C117.869 177.119 117.894 177.435 118.104 177.614L118.428 177.234L118.753 176.854ZM121.112 180.34C121.312 180.531 121.628 180.524 121.819 180.325C122.011 180.126 122.004 179.81 121.805 179.618L121.459 179.979L121.112 180.34ZM124.69 182.552C124.502 182.35 124.186 182.338 123.984 182.526C123.781 182.714 123.769 183.03 123.957 183.232L124.324 182.892L124.69 182.552ZM126.631 186.292C126.807 186.505 127.122 186.536 127.335 186.361C127.548 186.185 127.579 185.87 127.404 185.657L127.018 185.974L126.631 186.292ZM129.912 188.918C129.751 188.694 129.439 188.642 129.214 188.803C128.99 188.964 128.938 189.277 129.099 189.501L129.506 189.21L129.912 188.918ZM131.341 192.885C131.484 193.121 131.792 193.196 132.028 193.053C132.264 192.909 132.339 192.602 132.196 192.366L131.768 192.625L131.341 192.885ZM134.177 195.988C134.057 195.739 133.758 195.636 133.509 195.756C133.261 195.877 133.157 196.176 133.277 196.424L133.727 196.206L134.177 195.988ZM134.812 200.139C134.9 200.401 135.184 200.541 135.446 200.453C135.707 200.365 135.848 200.082 135.76 199.82L135.286 199.979L134.812 200.139ZM136.74 203.882C136.703 203.608 136.451 203.416 136.177 203.453C135.904 203.491 135.712 203.743 135.749 204.016L136.245 203.949L136.74 203.882ZM77.2649 173.431L77.674 173.719C78.072 173.152 78.4829 172.621 78.9056 172.122L78.5243 171.799L78.143 171.475C77.7 171.998 77.2707 172.554 76.8558 173.144L77.2649 173.431ZM81.466 168.976L81.7708 169.372C82.8507 168.541 83.9853 167.872 85.1648 167.351L84.9628 166.894L84.7608 166.437C83.5079 166.99 82.3042 167.7 81.1611 168.579L81.466 168.976ZM88.8643 165.704L88.9536 166.196C90.239 165.963 91.5637 165.869 92.9178 165.902L92.9299 165.402L92.9421 164.902C91.5258 164.868 90.1328 164.966 88.7751 165.212L88.8643 165.704ZM96.9883 165.847L96.8949 166.339C98.181 166.583 99.4825 166.925 100.791 167.356L100.947 166.881L101.103 166.406C99.7576 165.963 98.4141 165.61 97.0818 165.356L96.9883 165.847ZM104.749 168.36L104.545 168.817C105.756 169.359 106.964 169.968 108.165 170.635L108.408 170.198L108.651 169.761C107.427 169.081 106.193 168.459 104.954 167.904L104.749 168.36ZM111.899 172.315L111.625 172.733C112.746 173.469 113.853 174.251 114.94 175.071L115.242 174.672L115.543 174.273C114.439 173.44 113.314 172.645 112.174 171.897L111.899 172.315ZM118.428 177.234L118.104 177.614C119.134 178.494 120.138 179.405 121.112 180.34L121.459 179.979L121.805 179.618C120.817 178.67 119.798 177.746 118.753 176.854L118.428 177.234ZM124.324 182.892L123.957 183.232C124.889 184.236 125.782 185.259 126.631 186.292L127.018 185.974L127.404 185.657C126.542 184.608 125.635 183.571 124.69 182.552L124.324 182.892ZM129.506 189.21L129.099 189.501C129.908 190.629 130.658 191.76 131.341 192.885L131.768 192.625L132.196 192.366C131.498 191.218 130.735 190.065 129.912 188.918L129.506 189.21ZM133.727 196.206L133.277 196.424C133.891 197.69 134.406 198.932 134.812 200.139L135.286 199.979L135.76 199.82C135.339 198.568 134.807 197.286 134.177 195.988L133.727 196.206ZM136.245 203.949L135.749 204.016C135.841 204.693 135.888 205.349 135.888 205.982L136.388 205.982L136.888 205.982C136.888 205.3 136.838 204.599 136.74 203.882L136.245 203.949Z" fill="#FCC900"/>
<path d="M72.118 172.07C72.0992 172.345 72.3074 172.584 72.5829 172.602C72.8584 172.621 73.0969 172.413 73.1157 172.138L72.6168 172.104L72.118 172.07ZM111.06 133.03C110.887 132.814 110.572 132.779 110.357 132.952C110.141 133.125 110.107 133.439 110.279 133.655L110.669 133.342L111.06 133.03ZM107.65 131.022C107.868 131.192 108.182 131.152 108.352 130.935C108.521 130.717 108.482 130.403 108.264 130.233L107.957 130.627L107.65 131.022ZM104.773 128.297C104.512 128.206 104.227 128.343 104.135 128.603C104.044 128.864 104.181 129.149 104.442 129.241L104.607 128.769L104.773 128.297ZM100.842 128.676C101.118 128.67 101.336 128.441 101.33 128.165C101.323 127.889 101.094 127.67 100.818 127.677L100.83 128.176L100.842 128.676ZM96.8998 128.396C96.6382 128.484 96.4976 128.768 96.5859 129.03C96.6742 129.291 96.9578 129.432 97.2195 129.344L97.0597 128.87L96.8998 128.396ZM93.8471 130.931C94.0837 130.789 94.1602 130.482 94.0178 130.245C93.8754 130.008 93.5682 129.932 93.3316 130.074L93.5894 130.503L93.8471 130.931ZM90.1473 132.362C89.9354 132.539 89.9073 132.854 90.0844 133.066C90.2615 133.278 90.5768 133.306 90.7887 133.129L90.468 132.745L90.1473 132.362ZM88.0341 135.732C88.224 135.531 88.2152 135.215 88.0147 135.025C87.8141 134.835 87.4976 134.844 87.3078 135.045L87.671 135.388L88.0341 135.732ZM84.7682 138.001C84.5979 138.218 84.636 138.532 84.8533 138.703C85.0707 138.873 85.385 138.835 85.5553 138.618L85.1617 138.309L84.7682 138.001ZM83.3326 141.701C83.4854 141.471 83.4228 141.161 83.1928 141.008C82.9628 140.855 82.6525 140.918 82.4997 141.148L82.9161 141.424L83.3326 141.701ZM80.4649 144.457C80.3283 144.697 80.4121 145.002 80.6521 145.139C80.8921 145.275 81.1974 145.191 81.334 144.951L80.8994 144.704L80.4649 144.457ZM79.5543 148.325C79.6755 148.077 79.5725 147.777 79.3244 147.656C79.0763 147.535 78.7769 147.638 78.6557 147.886L79.105 148.105L79.5543 148.325ZM77.0588 151.42C76.9526 151.675 77.0731 151.968 77.328 152.074C77.5829 152.18 77.8757 152.06 77.9819 151.805L77.5204 151.613L77.0588 151.42ZM76.6162 155.369C76.7075 155.109 76.5703 154.824 76.3097 154.732C76.0492 154.641 75.7638 154.778 75.6725 155.039L76.1443 155.204L76.6162 155.369ZM74.4949 158.733C74.4186 158.999 74.5719 159.276 74.8373 159.352C75.1027 159.428 75.3797 159.275 75.4559 159.01L74.9754 158.872L74.4949 158.733ZM74.5076 162.707C74.5684 162.437 74.3994 162.17 74.13 162.109C73.8607 162.048 73.593 162.217 73.5322 162.486L74.0199 162.597L74.5076 162.707ZM72.7904 166.292C72.7457 166.565 72.9304 166.822 73.2029 166.867C73.4754 166.911 73.7326 166.727 73.7772 166.454L73.2838 166.373L72.7904 166.292ZM73.2762 170.237C73.3039 169.962 73.1036 169.717 72.8288 169.689C72.5541 169.662 72.3089 169.862 72.2812 170.137L72.7787 170.187L73.2762 170.237ZM111.808 134.903L112.224 134.626C111.845 134.057 111.457 133.525 111.06 133.03L110.669 133.342L110.279 133.655C110.657 134.126 111.028 134.634 111.392 135.18L111.808 134.903ZM107.957 130.627L108.264 130.233C107.144 129.36 105.976 128.72 104.773 128.297L104.607 128.769L104.442 129.241C105.536 129.625 106.609 130.211 107.65 131.022L107.957 130.627ZM100.83 128.176L100.818 127.677C99.5166 127.707 98.2053 127.956 96.8998 128.396L97.0597 128.87L97.2195 129.344C98.4407 128.932 99.6521 128.704 100.842 128.676L100.83 128.176ZM93.5894 130.503L93.3316 130.074C92.2563 130.721 91.1922 131.488 90.1473 132.362L90.468 132.745L90.7887 133.129C91.7986 132.285 92.8208 131.549 93.8471 130.931L93.5894 130.503ZM87.671 135.388L87.3078 135.045C86.4409 135.961 85.5926 136.949 84.7682 138.001L85.1617 138.309L85.5553 138.618C86.3619 137.588 87.19 136.624 88.0341 135.732L87.671 135.388ZM82.9161 141.424L82.4997 141.148C81.7968 142.205 81.1173 143.31 80.4649 144.457L80.8994 144.704L81.334 144.951C81.9754 143.824 82.6429 142.739 83.3326 141.701L82.9161 141.424ZM79.105 148.105L78.6557 147.886C78.0952 149.034 77.5618 150.213 77.0588 151.42L77.5204 151.613L77.9819 151.805C78.4773 150.616 79.0025 149.454 79.5543 148.325L79.105 148.105ZM76.1443 155.204L75.6725 155.039C75.2478 156.25 74.8542 157.483 74.4949 158.733L74.9754 158.872L75.4559 159.01C75.81 157.778 76.1977 156.563 76.6162 155.369L76.1443 155.204ZM74.0199 162.597L73.5322 162.486C73.2483 163.744 73.0001 165.014 72.7904 166.292L73.2838 166.373L73.7772 166.454C73.9836 165.195 74.228 163.945 74.5076 162.707L74.0199 162.597ZM72.7787 170.187L72.2812 170.137C72.2165 170.78 72.1619 171.424 72.118 172.07L72.6168 172.104L73.1157 172.138C73.1589 171.503 73.2125 170.87 73.2762 170.237L72.7787 170.187Z" fill="#FCC900"/>
<path d="M118.081 137.22C117.894 137.423 117.907 137.74 118.11 137.927C118.312 138.114 118.629 138.102 118.816 137.899L118.449 137.56L118.081 137.22ZM120.211 136.575C120.426 136.401 120.459 136.086 120.285 135.872C120.111 135.657 119.796 135.624 119.582 135.798L119.896 136.186L120.211 136.575ZM123.525 134.174C123.249 134.171 123.022 134.392 123.018 134.668C123.015 134.944 123.236 135.171 123.512 135.174L123.518 134.674L123.525 134.174ZM126.59 136.778C126.778 136.98 127.095 136.991 127.297 136.803C127.499 136.615 127.51 136.298 127.321 136.096L126.956 136.437L126.59 136.778ZM129.603 139.541C129.479 139.294 129.179 139.194 128.932 139.318C128.685 139.442 128.585 139.742 128.709 139.989L129.156 139.765L129.603 139.541ZM130.217 143.604C130.309 143.864 130.595 144 130.855 143.908C131.116 143.816 131.252 143.531 131.16 143.27L130.689 143.437L130.217 143.604ZM132.352 147.103C132.278 146.837 132.003 146.68 131.737 146.754C131.471 146.827 131.314 147.102 131.387 147.368L131.869 147.236L132.352 147.103ZM132.344 151.228C132.405 151.498 132.672 151.667 132.942 151.607C133.211 151.546 133.381 151.279 133.32 151.009L132.832 151.119L132.344 151.228ZM134.126 154.93C134.074 154.659 133.813 154.48 133.542 154.532C133.27 154.583 133.092 154.844 133.143 155.115L133.634 155.023L134.126 154.93ZM133.824 159.03C133.868 159.302 134.124 159.488 134.397 159.444C134.67 159.4 134.855 159.143 134.811 158.871L134.318 158.95L133.824 159.03ZM135.403 162.83C135.365 162.556 135.113 162.365 134.839 162.403C134.566 162.441 134.375 162.694 134.413 162.967L134.908 162.898L135.403 162.83ZM134.925 166.918C134.958 167.192 135.207 167.388 135.481 167.354C135.755 167.321 135.95 167.072 135.917 166.798L135.421 166.858L134.925 166.918ZM136.365 170.77C136.336 170.495 136.09 170.296 135.816 170.325C135.541 170.353 135.342 170.599 135.371 170.874L135.868 170.822L136.365 170.77ZM135.76 174.839C135.785 175.114 136.028 175.316 136.303 175.291C136.578 175.266 136.781 175.022 136.756 174.747L136.258 174.793L135.76 174.839ZM137.095 178.73C137.074 178.455 136.833 178.249 136.557 178.271C136.282 178.293 136.077 178.534 136.098 178.809L136.597 178.77L137.095 178.73ZM136.391 182.782C136.409 183.057 136.648 183.265 136.923 183.247C137.199 183.228 137.407 182.989 137.388 182.714L136.889 182.748L136.391 182.782ZM137.637 186.693C137.622 186.417 137.385 186.206 137.11 186.222C136.834 186.238 136.623 186.474 136.639 186.75L137.138 186.721L137.637 186.693ZM136.847 190.741C136.86 191.016 137.094 191.23 137.37 191.217C137.646 191.204 137.859 190.97 137.846 190.694L137.347 190.717L136.847 190.741ZM138.012 194.686C138.002 194.41 137.77 194.195 137.494 194.205C137.218 194.215 137.003 194.446 137.013 194.722L137.513 194.704L138.012 194.686ZM137.135 198.703C137.141 198.979 137.371 199.197 137.647 199.191C137.923 199.184 138.141 198.954 138.134 198.678L137.634 198.691L137.135 198.703ZM138.205 202.658C138.202 202.381 137.976 202.16 137.7 202.163C137.424 202.165 137.202 202.392 137.205 202.668L137.705 202.663L138.205 202.658ZM118.449 137.56L118.816 137.899C119.297 137.378 119.762 136.939 120.211 136.575L119.896 136.186L119.582 135.798C119.089 136.196 118.59 136.67 118.081 137.22L118.449 137.56ZM123.518 134.674L123.512 135.174C124.58 135.188 125.602 135.719 126.59 136.778L126.956 136.437L127.321 136.096C126.215 134.91 124.951 134.193 123.525 134.174L123.518 134.674ZM129.156 139.765L128.709 139.989C129.24 141.049 129.743 142.261 130.217 143.604L130.689 143.437L131.16 143.27C130.675 141.898 130.157 140.647 129.603 139.541L129.156 139.765ZM131.869 147.236L131.387 147.368C131.724 148.592 132.043 149.882 132.344 151.228L132.832 151.119L133.32 151.009C133.015 149.65 132.693 148.344 132.352 147.103L131.869 147.236ZM133.634 155.023L133.143 155.115C133.383 156.389 133.609 157.696 133.824 159.03L134.318 158.95L134.811 158.871C134.595 157.529 134.367 156.213 134.126 154.93L133.634 155.023ZM134.908 162.898L134.413 162.967C134.594 164.27 134.764 165.589 134.925 166.918L135.421 166.858L135.917 166.798C135.756 165.464 135.585 164.139 135.403 162.83L134.908 162.898ZM135.868 170.822L135.371 170.874C135.51 172.195 135.639 173.519 135.76 174.839L136.258 174.793L136.756 174.747C136.635 173.424 136.505 172.095 136.365 170.77L135.868 170.822ZM136.597 178.77L136.098 178.809C136.204 180.147 136.302 181.473 136.391 182.782L136.889 182.748L137.388 182.714C137.299 181.402 137.202 180.072 137.095 178.73L136.597 178.77ZM137.138 186.721L136.639 186.75C136.717 188.113 136.786 189.446 136.847 190.741L137.347 190.717L137.846 190.694C137.785 189.396 137.716 188.059 137.637 186.693L137.138 186.721ZM137.513 194.704L137.013 194.722C137.064 196.119 137.104 197.451 137.135 198.703L137.634 198.691L138.134 198.678C138.103 197.422 138.063 196.087 138.012 194.686L137.513 194.704ZM137.705 202.663L137.205 202.668C137.212 203.374 137.215 204.037 137.215 204.653L137.715 204.653L138.215 204.653C138.215 204.034 138.212 203.367 138.205 202.658L137.705 202.663Z" fill="#FCC900"/>
<path d="M113.44 134.555C113.249 134.755 113.256 135.072 113.456 135.262C113.656 135.453 113.972 135.446 114.163 135.246L113.801 134.901L113.44 134.555ZM115.631 133.756C115.828 133.562 115.83 133.246 115.637 133.049C115.443 132.852 115.127 132.849 114.93 133.043L115.28 133.399L115.631 133.756ZM117.946 130.272C117.736 130.452 117.711 130.767 117.89 130.977C118.07 131.187 118.385 131.212 118.595 131.032L118.271 130.652L117.946 130.272ZM121.761 128.541C121.985 128.38 122.036 128.067 121.874 127.843C121.713 127.619 121.4 127.568 121.176 127.73L121.468 128.135L121.761 128.541ZM124.664 125.467C124.425 125.605 124.343 125.911 124.481 126.15C124.619 126.389 124.925 126.471 125.164 126.333L124.914 125.9L124.664 125.467ZM128.766 124.517C129.019 124.408 129.136 124.114 129.027 123.86C128.918 123.607 128.624 123.49 128.37 123.599L128.568 124.058L128.766 124.517ZM132.284 122.214C132.018 122.288 131.862 122.563 131.936 122.829C132.01 123.095 132.286 123.251 132.552 123.177L132.418 122.695L132.284 122.214ZM136.481 122.393C136.755 122.359 136.95 122.11 136.916 121.836C136.883 121.562 136.634 121.367 136.36 121.4L136.42 121.897L136.481 122.393ZM140.527 121.221C140.251 121.211 140.019 121.427 140.01 121.703C140 121.979 140.216 122.21 140.492 122.22L140.509 121.72L140.527 121.221ZM144.478 122.67C144.749 122.721 145.011 122.543 145.063 122.272C145.114 122 144.936 121.739 144.665 121.687L144.571 122.178L144.478 122.67ZM148.683 122.751C148.421 122.662 148.137 122.802 148.049 123.063C147.96 123.325 148.1 123.609 148.361 123.697L148.522 123.224L148.683 122.751ZM152.087 125.228C152.336 125.348 152.635 125.244 152.755 124.995C152.875 124.747 152.77 124.448 152.522 124.328L152.304 124.778L152.087 125.228ZM156.153 126.326C155.918 126.181 155.61 126.254 155.464 126.489C155.319 126.723 155.392 127.031 155.627 127.177L155.89 126.752L156.153 126.326ZM158.97 129.462C159.191 129.628 159.505 129.583 159.67 129.361C159.836 129.14 159.791 128.827 159.57 128.662L159.27 129.062L158.97 129.462ZM162.78 131.263C162.572 131.082 162.256 131.103 162.075 131.311C161.893 131.519 161.914 131.835 162.123 132.017L162.451 131.64L162.78 131.263ZM165.094 134.787C165.29 134.981 165.606 134.98 165.801 134.784C165.995 134.588 165.994 134.271 165.798 134.077L165.446 134.432L165.094 134.787ZM168.639 137.06C168.454 136.855 168.138 136.839 167.933 137.024C167.728 137.209 167.712 137.525 167.897 137.73L168.268 137.395L168.639 137.06ZM170.546 140.817C170.721 141.031 171.036 141.062 171.25 140.888C171.464 140.713 171.495 140.398 171.32 140.184L170.933 140.501L170.546 140.817ZM173.855 143.425C173.69 143.204 173.376 143.159 173.155 143.324C172.934 143.49 172.889 143.803 173.055 144.024L173.455 143.724L173.855 143.425ZM175.432 147.333C175.589 147.56 175.9 147.617 176.128 147.46C176.355 147.303 176.412 146.992 176.255 146.765L175.844 147.049L175.432 147.333ZM178.53 150.19C178.381 149.957 178.072 149.889 177.839 150.038C177.607 150.187 177.539 150.496 177.687 150.729L178.109 150.459L178.53 150.19ZM179.827 154.201C179.968 154.439 180.274 154.517 180.512 154.376C180.749 154.235 180.827 153.928 180.686 153.691L180.256 153.946L179.827 154.201ZM182.73 157.26C182.596 157.018 182.292 156.93 182.051 157.064C181.809 157.197 181.721 157.501 181.854 157.743L182.292 157.501L182.73 157.26ZM183.773 161.347C183.899 161.593 184.2 161.69 184.446 161.564C184.691 161.438 184.789 161.137 184.663 160.891L184.218 161.119L183.773 161.347ZM186.483 164.58C186.364 164.331 186.066 164.224 185.817 164.342C185.567 164.461 185.461 164.759 185.579 165.008L186.031 164.794L186.483 164.58ZM187.265 168.717C187.375 168.97 187.67 169.086 187.923 168.976C188.176 168.866 188.292 168.572 188.182 168.318L187.724 168.518L187.265 168.717ZM189.748 172.109C189.648 171.852 189.358 171.725 189.1 171.825C188.843 171.926 188.716 172.216 188.817 172.473L189.282 172.291L189.748 172.109ZM190.215 176.317C190.303 176.579 190.586 176.721 190.848 176.633C191.11 176.546 191.251 176.263 191.164 176.001L190.69 176.159L190.215 176.317ZM192.32 179.982C192.257 179.713 191.988 179.546 191.719 179.609C191.45 179.671 191.283 179.94 191.346 180.209L191.833 180.095L192.32 179.982ZM113.801 134.901L114.163 135.246C114.653 134.732 115.143 134.236 115.631 133.756L115.28 133.399L114.93 133.043C114.434 133.53 113.937 134.034 113.44 134.555L113.801 134.901ZM118.271 130.652L118.595 131.032C119.657 130.125 120.712 129.296 121.761 128.541L121.468 128.135L121.176 127.73C120.104 128.502 119.027 129.348 117.946 130.272L118.271 130.652ZM124.914 125.9L125.164 126.333C126.375 125.633 127.575 125.03 128.766 124.517L128.568 124.058L128.37 123.599C127.142 124.127 125.907 124.748 124.664 125.467L124.914 125.9ZM132.418 122.695L132.552 123.177C133.875 122.81 135.185 122.551 136.481 122.393L136.42 121.897L136.36 121.4C135.014 121.564 133.655 121.833 132.284 122.214L132.418 122.695ZM140.509 121.72L140.492 122.22C141.837 122.268 143.166 122.42 144.478 122.67L144.571 122.178L144.665 121.687C143.304 121.429 141.925 121.27 140.527 121.221L140.509 121.72ZM148.522 123.224L148.361 123.697C149.621 124.125 150.863 124.638 152.087 125.228L152.304 124.778L152.522 124.328C151.264 123.721 149.984 123.192 148.683 122.751L148.522 123.224ZM155.89 126.752L155.627 127.177C156.76 127.878 157.875 128.642 158.97 129.462L159.27 129.062L159.57 128.662C158.452 127.825 157.313 127.044 156.153 126.326L155.89 126.752ZM162.451 131.64L162.123 132.017C163.133 132.898 164.123 133.824 165.094 134.787L165.446 134.432L165.798 134.077C164.814 133.1 163.807 132.16 162.78 131.263L162.451 131.64ZM168.268 137.395L167.897 137.73C168.801 138.732 169.684 139.763 170.546 140.817L170.933 140.501L171.32 140.184C170.448 139.118 169.554 138.075 168.639 137.06L168.268 137.395ZM173.455 143.724L173.055 144.024C173.87 145.112 174.662 146.217 175.432 147.333L175.844 147.049L176.255 146.765C175.479 145.639 174.678 144.524 173.855 143.425L173.455 143.724ZM178.109 150.459L177.687 150.729C178.426 151.884 179.139 153.044 179.827 154.201L180.256 153.946L180.686 153.691C179.994 152.524 179.275 151.355 178.53 150.19L178.109 150.459ZM182.292 157.501L181.854 157.743C182.525 158.957 183.164 160.161 183.773 161.347L184.218 161.119L184.663 160.891C184.05 159.696 183.405 158.483 182.73 157.26L182.292 157.501ZM186.031 164.794L185.579 165.008C186.182 166.281 186.745 167.52 187.265 168.717L187.724 168.518L188.182 168.318C187.658 167.112 187.091 165.862 186.483 164.58L186.031 164.794ZM189.282 172.291L188.817 172.473C189.355 173.85 189.822 175.139 190.215 176.317L190.69 176.159L191.164 176.001C190.765 174.805 190.292 173.5 189.748 172.109L189.282 172.291ZM191.833 180.095L191.346 180.209C191.523 180.965 191.637 181.605 191.691 182.118L192.189 182.066L192.686 182.014C192.626 181.445 192.502 180.762 192.32 179.982L191.833 180.095Z" fill="#FCC900"/>
<defs>
<filter id="filter0_d_2001_496" x="0" y="0" width="277" height="369" filterUnits="userSpaceOnUse" color-interpolation-filters="sRGB">
<feFlood flood-opacity="0" result="BackgroundImageFix"/>
<feColorMatrix in="SourceAlpha" type="matrix" values="0 0 0 0 0 0 0 0 0 0 0 0 0 0 0 0 0 0 127 0" result="hardAlpha"/>
<feMorphology radius="7" operator="dilate" in="SourceAlpha" result="effect1_dropShadow_2001_496"/>
<feOffset dy="4"/>
<feGaussianBlur stdDeviation="7.5"/>
<feComposite in2="hardAlpha" operator="out"/>
<feColorMatrix type="matrix" values="0 0 0 0 0.865104 0 0 0 0 0.865104 0 0 0 0 0.865104 0 0 0 0.25 0"/>
<feBlend mode="normal" in2="BackgroundImageFix" result="effect1_dropShadow_2001_496"/>
<feBlend mode="normal" in="SourceGraphic" in2="effect1_dropShadow_2001_496" result="shape"/>
</filter>
</defs>
</svg>
