<svg width="151" height="53" viewBox="0 0 151 53" fill="none" xmlns="http://www.w3.org/2000/svg">
<path d="M0.296078 43C50.0284 43 99.7607 43 151 43C151 46.3 151 49.6 151 53C101.17 53 51.34 53 0 53C0 43.9677 0 43.9677 0.296078 43Z" fill="white"/>
<path d="M40.5 0C40.9785 0.736108 41.2241 1.23274 41.4883 2.04913C41.5617 2.2751 41.635 2.50108 41.7106 2.7339C41.8229 3.08654 41.8229 3.08654 41.9375 3.44631C42.0124 3.67571 42.0872 3.9051 42.1644 4.14145C42.6364 5.60747 43.0074 7.04308 43.375 8.55128C47.6444 8.69724 47.6444 8.69724 52 8.84615C51.0679 9.80215 50.3292 10.544 49.2901 11.303C49.0612 11.4712 48.8324 11.6394 48.5966 11.8127C48.3618 11.9832 48.127 12.1537 47.8852 12.3293C47.6448 12.5055 47.4045 12.6817 47.1569 12.8632C46.5679 13.2947 45.9781 13.7248 45.3875 14.1538C45.4408 14.3359 45.4941 14.518 45.549 14.7056C45.7828 15.5045 46.0164 16.3035 46.25 17.1026C46.318 17.3348 46.3859 17.5671 46.4559 17.8063C46.6457 18.4561 46.8343 19.1062 47.0227 19.7564C47.0873 19.9773 47.152 20.1981 47.2186 20.4256C47.6875 22.0481 47.6875 22.0481 47.6875 22.7051C46.4034 22.2686 45.4415 21.5356 44.3992 20.6779C43.7741 20.1689 43.1448 19.6662 42.5125 19.1667C42.2186 18.9287 41.9247 18.6908 41.6219 18.4456C40.8363 17.8998 40.8363 17.8998 40.0744 18.1196C39.178 18.6855 38.3534 19.3198 37.5352 19.996C36.1745 21.0973 34.8092 22.097 33.3125 23C33.7009 22.1262 34.1425 21.4644 34.768 20.7516C34.947 20.546 35.126 20.3403 35.3104 20.1285C35.712 19.6742 36.1141 19.2204 36.5166 18.767C38.419 16.6176 40.2388 14.4127 41.9375 12.0897C40.9887 11.3113 40.04 10.5328 39.0625 9.73077C37.84 10.9466 36.7233 12.241 35.6125 13.5641C34.5985 13.1842 33.7757 12.7379 32.9026 12.0886C32.6737 11.9189 32.4449 11.7492 32.2091 11.5743C31.8569 11.3095 31.8569 11.3095 31.4977 11.0393C31.2573 10.8616 31.017 10.6839 30.7694 10.5008C29.466 9.52847 29.466 9.52847 29 9.14103C29 9.04372 29 8.94641 29 8.84615C31.9411 8.84615 34.8822 8.84615 37.9125 8.84615C38.0074 8.26231 38.1023 7.67846 38.2 7.07692C38.3433 6.52559 38.4963 5.97682 38.6582 5.43094C38.7468 5.13198 38.8354 4.83303 38.9266 4.52502C39.0189 4.2177 39.1112 3.91038 39.2063 3.59375C39.2985 3.28073 39.3908 2.96771 39.4859 2.64521C40.1753 0.332986 40.1753 0.332986 40.5 0Z" fill="#383838"/>
<path d="M132 13C132.727 13 133.455 13 134.204 13C134.204 16.9742 134.204 20.9484 134.204 25.043C135.139 24.7449 136.074 24.4469 137.038 24.1398C139.03 23.8706 140.639 24.1056 142.39 25.043C143.362 25.801 143.735 26.2897 143.964 27.4516C143.99 27.902 144.001 28.3533 144 28.8044C144 29.0695 144 29.3347 144 29.6078C143.998 29.8914 143.997 30.1749 143.995 30.4671C143.994 30.7594 143.994 31.0517 143.994 31.3529C143.992 32.2855 143.988 33.218 143.984 34.1505C143.982 34.7833 143.981 35.416 143.98 36.0487C143.976 37.5988 143.971 39.1489 143.964 40.6989C143.341 40.6989 142.717 40.6989 142.075 40.6989C142.075 40.3055 142.076 39.9121 142.076 39.5068C142.075 38.045 142.062 36.5835 142.044 35.1218C142.039 34.4895 142.036 33.8573 142.037 33.225C142.038 32.3152 142.027 31.4062 142.014 30.4965C142.016 30.2145 142.019 29.9325 142.022 29.6419C142.01 28.193 142.01 28.193 141.351 26.9345C140.374 26.1252 139.606 25.7526 138.317 25.8145C138.067 25.8211 137.817 25.8277 137.56 25.8345C136.512 25.9743 135.533 26.2641 134.519 26.5484C134.495 28.193 134.478 29.8376 134.467 31.4824C134.462 32.0416 134.456 32.6009 134.448 33.1601C134.436 33.965 134.431 34.7698 134.427 35.5748C134.422 35.8238 134.417 36.0729 134.412 36.3295C134.411 37.7345 134.501 38.6597 135.463 39.7957C135.775 39.9944 136.087 40.1931 136.408 40.3979C136.408 40.5966 136.408 40.7953 136.408 41C134.226 40.851 134.226 40.851 132 40.6989C132 31.5583 132 22.4176 132 13Z" fill="#FFD016"/>
<path d="M48.7815 24.4231C49.7624 25.086 50.3872 25.7297 50.8557 26.789C51.0244 27.854 51.0078 28.9019 50.9878 29.9774C50.9868 30.2809 50.9858 30.5844 50.9847 30.8971C50.9815 31.5356 50.9753 32.1742 50.9664 32.8127C50.9526 33.7944 50.9473 34.7759 50.9436 35.7576C50.9394 36.3783 50.9348 36.9989 50.9296 37.6195C50.9274 37.9145 50.9251 38.2096 50.9227 38.5136C50.9187 38.7845 50.9147 39.0553 50.9106 39.3343C50.9076 39.5737 50.9045 39.8131 50.9014 40.0598C50.8557 40.6084 50.8557 40.6084 50.5456 40.9089C50.0288 40.9211 49.5115 40.9217 48.9948 40.9089C48.8924 40.7106 48.79 40.5123 48.6846 40.308C48.5311 40.4071 48.3775 40.5063 48.2193 40.6084C47.125 41.0324 46.1141 41.0768 44.9626 40.9089C43.4427 40.2294 42.7363 39.3729 42.0754 37.9293C41.6217 36.6057 41.7251 35.5802 42.1905 34.2808C43.125 32.9085 44.2675 31.8202 45.8931 31.2953C46.4291 31.2749 46.9658 31.2698 47.5021 31.2765C47.7816 31.2792 48.061 31.2819 48.349 31.2847C48.5621 31.2882 48.7752 31.2917 48.9948 31.2953C48.9761 30.6692 48.9485 30.0433 48.9172 29.4177C48.9028 29.0691 48.8884 28.7206 48.8736 28.3615C48.6509 27.2166 48.4279 26.8479 47.4439 26.1881C45.3177 25.7584 43.4652 26.007 41.609 27.0894C41.17 27.3814 40.7345 27.6789 40.3102 27.9906C40.2078 27.5941 40.1055 27.1975 40 26.789C42.4188 24.4612 45.4337 23.3218 48.7815 24.4231Z" fill="#3E3E3E"/>
<path d="M83 17C86.63 17 90.26 17 94 17C94 18.8555 94 20.7111 94 22.6229C93.1267 22.153 93.0001 21.2387 92.6519 20.2935C92.3656 19.5709 92.3656 19.5709 91.525 19.0716C90.8065 18.9628 90.8065 18.9628 90.0007 18.949C89.7347 18.9385 89.4688 18.928 89.1948 18.9171C88.8578 18.907 88.5207 18.897 88.1734 18.8866C87.1015 18.85 86.0295 18.8134 84.925 18.7756C84.8343 21.9008 84.7435 25.0259 84.65 28.2457C85.5121 28.2213 86.3743 28.1969 87.2625 28.1717C87.6632 28.1647 87.6632 28.1647 88.0719 28.1576C89.6551 28.0917 91.0735 27.8461 92.35 26.766C92.6867 26.1586 92.6867 26.1586 92.9 25.5822C93.0815 25.5822 93.263 25.5822 93.45 25.5822C93.45 28.0237 93.45 30.4652 93.45 32.9807C92.9 32.3889 92.9 32.3889 92.5391 31.501C91.989 30.4486 91.7433 30.3667 90.7 30.0213C89.9844 29.9151 89.9844 29.9151 89.2423 29.8988C88.9738 29.8874 88.7052 29.8759 88.4286 29.8641C88.1515 29.855 87.8745 29.8458 87.5891 29.8364C87.3067 29.8249 87.0244 29.8135 86.7334 29.8017C86.039 29.7739 85.3446 29.7485 84.65 29.7254C84.6644 30.9095 84.6905 32.0929 84.7188 33.2767C84.7226 33.6097 84.7265 33.9427 84.7306 34.2859C84.7863 36.3388 84.9854 37.7515 86.025 39.4914C86.7401 40.0428 86.7401 40.0428 87.4 40.3792C87.4 40.5745 87.4 40.7699 87.4 40.9711C86.9245 40.9792 86.449 40.9849 85.9734 40.9896C85.7086 40.993 85.4438 40.9965 85.171 41C84.375 40.9711 84.375 40.9711 83 40.6752C83 32.8624 83 25.0496 83 17Z" fill="#FFCC04"/>
<path d="M9.77102 17.0024C10.0577 17.0016 10.3443 17.0008 10.6397 17C10.9364 17.0024 11.2331 17.0047 11.5388 17.0071C11.8313 17.0048 12.1237 17.0024 12.4249 17C14.1951 17.0048 15.763 17.2002 17.4752 17.692C17.7858 19.0429 17.7868 20.3615 17.772 21.7444C17.7708 21.9698 17.7695 22.1952 17.7682 22.4275C17.7649 22.9798 17.7599 23.5321 17.7546 24.0844C17.5702 24.0844 17.3858 24.0844 17.1959 24.0844C17.0806 23.7077 16.9654 23.331 16.8467 22.9429C16.2782 21.3291 15.5514 20.5566 14.1578 19.7467C12.429 18.9652 10.6526 18.932 8.81509 19.214C7.8372 19.6554 7.04826 20.226 6.30086 21.0404C6.14573 22.6778 6.14573 22.6778 6.68498 24.1415C8.39975 25.4316 10.232 26.2342 12.1918 26.9734C14.8565 27.9852 16.9569 28.8853 18.453 31.6373C19.1049 33.2769 19.1793 34.976 18.6483 36.6694C18.1688 37.7829 17.878 38.3016 16.9165 39C16.9819 38.6775 16.9819 38.6775 17.0485 38.3484C17.3993 36.276 17.5642 34.2207 16.5673 32.3413C14.721 29.7594 11.2606 28.8272 8.54432 27.7038C5.38631 26.3771 5.38631 26.3771 4.38027 24.7693C3.88111 23.1981 3.87139 21.9685 4.36281 20.3936C5.68403 18.2573 7.36822 17.0088 9.77102 17.0024Z" fill="#3C3C3C"/>
<path d="M1.70142 22C1.80358 22 1.90575 22 2.01101 22C2.04493 22.1639 2.07886 22.3278 2.11381 22.4967C2.58831 24.6306 3.15719 26.2104 5.16014 27.5104C6.54291 28.1799 8.01425 28.5673 9.5038 28.994C12.3142 29.8091 14.8545 30.7352 16.5618 33.0209C17.3043 34.3763 16.9779 36.0998 16.5038 37.4893C15.4818 39.1299 14.2852 39.9324 12.4658 40.7357C10.0912 41.283 7.60064 40.8663 5.22303 40.5094C4.94167 40.469 4.66032 40.4286 4.37044 40.3869C3.68679 40.2884 3.00357 40.1879 2.3206 40.0856C2.0289 38.5237 1.9735 37.023 1.99166 35.4405C1.99306 35.2069 1.99445 34.9732 1.99589 34.7324C1.99951 34.1619 2.00506 33.5914 2.01101 33.0209C2.21534 33.0209 2.41967 33.0209 2.63019 33.0209C2.6721 33.1783 2.714 33.3356 2.75718 33.4978C3.38485 35.5287 4.42063 37.0529 6.38883 38.2167C8.22355 39.0512 10.0178 39.3368 11.9917 38.7488C13.0032 38.3353 13.6659 37.9405 14.3947 37.1714C14.9015 35.9281 14.9015 34.9177 14.3947 33.6744C13.0115 32.2146 10.753 31.6959 8.79996 31.1021C3.06338 29.3484 3.06338 29.3484 1.33378 26.8349C1.01941 26.0899 1.00004 25.4816 1.00484 24.6846C1.00324 24.4194 1.00164 24.1542 1 23.881C1.08349 23.1189 1.27628 22.6529 1.70142 22Z" fill="#3B3B3B"/>
<path d="M65.7368 24.0044C65.8324 24.8042 65.9279 25.6041 66.0263 26.4281C66.17 26.2497 66.3136 26.0712 66.4617 25.8873C67.0595 25.1951 67.6365 24.5758 68.3421 24.0044C69.4519 23.965 70.0986 24.1903 71.1102 24.6293C71.983 24.9806 72.6249 25.0188 73.5526 24.9133C74.0595 24.4841 74.0595 24.4841 74.4211 24.0044C74.6121 24.0044 74.8032 24.0044 75 24.0044C74.9029 24.9188 74.7494 25.4613 74.2401 26.2198C73.2838 26.931 72.6796 26.856 71.5263 26.7311C70.9451 26.5364 70.3659 26.335 69.7895 26.1252C68.6781 26.017 68.4343 26.0609 67.4737 26.7311C69.1001 27.3221 70.719 27.8314 72.3947 28.2459C71.754 29.0713 71.4264 29.4276 70.4046 29.5903C69.3772 29.4398 68.682 29.0399 67.7632 28.5489C66.9786 28.4471 66.9786 28.4471 66.3158 28.5489C65.5241 29.3775 65.9582 31.8647 65.9539 32.9797C65.948 33.3652 65.942 33.7507 65.9359 34.1478C65.9099 36.9342 65.9099 36.9342 66.8947 39.4556C67.777 40.1727 67.777 40.1727 68.6316 40.6674C68.6316 40.7674 68.6316 40.8674 68.6316 40.9704C68.0768 40.9786 67.5219 40.9845 66.9671 40.9893C66.5037 40.9946 66.5037 40.9946 66.0308 41C65.1579 40.9704 65.1579 40.9704 64 40.6674C64 35.2686 64 29.8698 64 24.3074C65.4474 24.0044 65.4474 24.0044 65.7368 24.0044Z" fill="#3D3D3D"/>
<path d="M29.0352 21C29.0352 22.4991 29.0352 23.9983 29.0352 25.5428C29.9291 25.5181 30.8221 25.4878 31.7156 25.4541C32.0947 25.4445 32.0947 25.4445 32.4815 25.4347C33.8697 25.3776 34.7217 25.3263 35.7746 24.4071C35.9768 24.4071 36.179 24.4071 36.3873 24.4071C35.9815 25.5355 35.5907 26.2506 34.5493 26.9624C33.6004 27.102 32.6733 27.0695 31.7156 27.0334C31.4582 27.0283 31.2007 27.0232 30.9354 27.0179C30.3018 27.0046 29.6685 26.9842 29.0352 26.9624C29.0411 28.4732 29.057 29.9835 29.0819 31.4941C29.089 32.0077 29.0934 32.5213 29.0951 33.0349C29.0979 33.7745 29.1105 34.5134 29.1249 35.2529C29.1237 35.4815 29.1225 35.7102 29.1212 35.9458C29.1548 37.1494 29.2349 37.6242 30.0575 38.6076C30.8435 39.24 30.8435 39.24 31.8879 39.331C33.4386 39.1117 34.8443 38.6238 35.9613 37.5709C36.3873 37.1838 36.3873 37.1838 37 37.1838C36.8516 38.3758 36.0743 39.2223 35.162 40.023C33.5007 41.1314 31.9363 41.0989 29.9542 40.8748C28.5388 40.2535 27.898 39.5964 27.1971 38.3195C27.0763 37.5674 27.0763 37.5674 27.0685 36.7519C27.0612 36.2913 27.0612 36.2913 27.0537 35.8215C27.0536 35.4925 27.0536 35.1636 27.0535 34.8248C27.0512 34.4842 27.0488 34.1436 27.0464 33.7928C27.0431 33.0732 27.0423 32.3537 27.0436 31.6341C27.0439 30.5342 27.0312 29.4348 27.0176 28.3349C27.016 27.6353 27.0152 26.9356 27.0152 26.236C27.0102 25.9077 27.0052 25.5793 27 25.241C27.0236 22.6968 27.0236 22.6968 27.9552 21.631C28.7288 21 28.7288 21 29.0352 21Z" fill="#383838"/>
<path d="M127.2 13C128.124 13 129.048 13 130 13C130 22.1287 130 31.2574 130 40.6628C129.423 41.0964 128.917 40.9917 128.275 40.9822C128.037 40.9795 127.8 40.9768 127.555 40.974C127.28 40.9688 127.28 40.9688 127 40.9634C127 40.765 127 40.5665 127 40.3621C127.285 40.1853 127.285 40.1853 127.575 40.005C128.307 39.3671 128.371 39.1452 128.6 37.9566C128.662 36.9159 128.662 36.9159 128.655 35.7673C128.656 35.5524 128.657 35.3376 128.658 35.1163C128.661 34.4093 128.661 33.7024 128.66 32.9954C128.661 32.5022 128.662 32.0091 128.663 31.516C128.664 30.4838 128.664 29.4516 128.663 28.4194C128.662 27.0979 128.665 25.7765 128.67 24.455C128.673 23.4371 128.673 22.4193 128.673 21.4014C128.673 20.9142 128.674 20.427 128.676 19.9398C128.678 19.2583 128.677 18.577 128.674 17.8955C128.675 17.5081 128.675 17.1207 128.675 16.7215C128.595 15.6329 128.437 15.0689 128 14.2027C127.587 13.8034 127.587 13.8034 127.2 13.6014C127.2 13.4029 127.2 13.2045 127.2 13Z" fill="#FFCC03"/>
<path d="M149.255 13.5564C150.156 14.3726 150.578 14.8424 150.944 16.0678C151.125 18.1412 150.906 19.3588 149.712 20.9924C148.724 21.8819 148.012 22.0381 146.738 21.993C145.578 21.7807 144.806 21.3263 143.905 20.4627C143.084 19.0886 142.88 18.0189 143.061 16.3817C143.574 14.8885 144.271 13.9065 145.595 13.2425C146.891 12.7737 147.994 13.0426 149.255 13.5564Z" fill="#F0F0F0"/>
<path d="M110.667 28C110.766 28 110.864 28 110.966 28C110.988 28.1863 111.011 28.3726 111.034 28.5646C111.073 28.8124 111.112 29.0603 111.153 29.3156C111.188 29.5598 111.222 29.804 111.258 30.0557C111.682 31.095 112.366 31.6506 113.358 32.21C114.176 32.5227 115.006 32.7296 115.863 32.9292C120.395 34.0826 120.395 34.0826 121.731 35.578C122.047 36.8707 122.156 37.5092 121.656 38.753C120.921 39.8125 120.306 40.4532 119.04 40.9106C118.173 41.0015 117.313 41.0037 116.442 40.9983C116.202 40.998 115.961 40.9976 115.713 40.9972C113.973 40.9707 112.57 40.7376 110.966 40.0686C110.68 38.9465 110.636 37.9052 110.648 36.7533C110.651 36.4273 110.654 36.1013 110.656 35.7654C110.662 35.3948 110.662 35.3948 110.667 35.0166C110.864 35.0166 111.062 35.0166 111.265 35.0166C111.551 35.4449 111.815 35.8861 112.069 36.3323C112.886 37.6357 113.612 38.6652 115.152 39.2266C116.553 39.4368 117.727 39.3701 119.059 38.9109C119.709 38.4014 119.709 38.4014 119.937 37.5426C120.028 36.7181 120.028 36.7181 119.572 36.2527C118.955 35.7959 118.464 35.638 117.707 35.4475C117.448 35.3793 117.189 35.3111 116.923 35.2408C116.382 35.104 115.84 34.9673 115.299 34.8308C113.368 34.3216 111.686 33.7079 110.368 32.21C110.09 31.428 110.02 30.9159 110.013 30.105C110.009 29.8879 110.004 29.6708 110 29.4472C110.069 28.842 110.069 28.842 110.667 28Z" fill="#FFCE0E"/>
<path d="M76 17C77.65 17.0965 79.3 17.193 81 17.2924C81 25.0121 81 32.7319 81 40.6855C79.9305 41.0191 79.0979 41.0066 77.9727 40.9962C77.6041 40.9936 77.2355 40.9909 76.8557 40.9882C76.4321 40.9831 76.4321 40.9831 76 40.9779C76 40.7849 76 40.5919 76 40.3931C76.2385 40.2725 76.477 40.1519 76.7227 40.0276C77.9377 39.2873 78.3428 38.3714 78.6775 37.0725C78.8171 36.2727 78.8565 35.5217 78.8629 34.7117C78.8659 34.4013 78.8689 34.0909 78.872 33.7712C78.8733 33.4388 78.8746 33.1065 78.876 32.7641C78.8778 32.4198 78.8795 32.0756 78.8814 31.7209C78.8843 30.9936 78.8864 30.2663 78.8876 29.539C78.8906 28.4275 78.9003 27.3162 78.9102 26.2048C78.9122 25.4975 78.9138 24.7903 78.915 24.083C78.9208 23.5854 78.9208 23.5854 78.9267 23.0777C78.9239 20.7904 78.9239 20.7904 77.875 18.7545C77.2613 18.3491 76.6378 17.9562 76 17.5848C76 17.3918 76 17.1988 76 17Z" fill="#FFCD05"/>
<path d="M117.444 24.0002C117.653 24.0002 117.862 24.0002 118.076 24.0002C119.9 24.0217 121.328 24.3861 123.044 25.0134C123.044 26.5869 123.044 28.1604 123.044 29.7816C122.422 29.0993 121.804 28.4118 121.214 27.6955C119.556 26.0475 118.121 25.8605 115.955 25.8404C115.086 25.9891 114.681 26.2507 114.055 26.9207C113.958 27.7555 113.958 27.7555 114.055 28.51C115.666 29.488 117.289 29.9337 119.066 30.395C120.933 30.921 122.341 31.7222 123.606 33.3775C124.198 35.0192 124.095 36.4579 123.479 38.0464C123.336 38.3611 123.192 38.6758 123.044 39C122.949 39 122.853 39 122.755 39C122.747 38.7927 122.74 38.5853 122.732 38.3717C122.624 36.5566 122.476 35.2969 121.305 33.914C119.665 32.7735 117.859 32.2209 116.005 31.6372C114.594 31.1834 113.448 30.6452 112.351 29.563C111.948 28.6545 111.94 27.9238 112.089 26.9318C112.506 25.7406 113.382 25.0438 114.345 24.3776C115.391 23.9954 116.355 23.9989 117.444 24.0002Z" fill="#FFCE0B"/>
<path d="M75.757 47.0012C76.1798 47.0006 76.1798 47.0006 76.6111 47C76.9077 47.0011 77.2042 47.0023 77.5098 47.0035C77.9546 47.0017 77.9546 47.0017 78.4084 47C78.6902 47.0004 78.9721 47.0008 79.2625 47.0012C79.5229 47.0015 79.7833 47.0018 80.0516 47.0022C80.6591 47.0403 80.6591 47.0403 80.959 47.3347C80.9885 47.7264 80.9982 48.1195 80.9988 48.5123C80.9994 48.8675 80.9994 48.8675 81 49.2299C80.9988 49.4789 80.9977 49.7279 80.9965 49.9844C80.9982 50.3578 80.9982 50.3578 81 50.7388C80.9996 50.9756 80.9992 51.2124 80.9988 51.4564C80.9985 51.675 80.9982 51.8936 80.9978 52.1189C80.959 52.6341 80.959 52.6341 80.6591 52.9285C79.6677 53.0022 78.6723 52.983 77.6785 52.9837C77.3987 52.9873 77.119 52.9909 76.8308 52.9946C76.5634 52.9952 76.2961 52.9957 76.0206 52.9963C75.7744 52.9975 75.5281 52.9988 75.2744 53C74.6604 52.9285 74.6604 52.9285 74.0605 52.3397C74.009 51.4884 73.9908 50.669 74.0043 49.8188C74.0045 49.5852 74.0047 49.3516 74.0049 49.1109C74.0214 47.0034 74.0214 47.0034 75.757 47.0012Z" fill="#93ABAB"/>
<path d="M24 47.0339C24.9981 47.0277 25.9961 47.0216 27.0245 47.0152C27.3395 47.0125 27.6545 47.0098 27.979 47.007C28.3486 47.0059 28.3486 47.0059 28.7257 47.0047C29.1058 47.0024 29.1058 47.0024 29.4936 47C30.087 47.0339 30.087 47.0339 30.3913 47.3322C30.4212 47.8286 30.4308 48.3264 30.4293 48.8237C30.4305 49.2298 30.4305 49.2298 30.4317 49.644C30.3913 50.3152 30.3913 50.3152 30.087 50.6135C29.5799 50.6257 29.0723 50.6263 28.5652 50.6135C28.5652 50.8104 28.5652 51.0073 28.5652 51.2102C28.741 51.284 28.9167 51.3578 29.0978 51.4339C29.7826 51.8068 29.7826 51.8068 31 53C28.69 53 26.38 53 24 53C24 51.0312 24 49.0624 24 47.0339Z" fill="#98AFAF"/>
<path d="M58 24C59.32 24.1 60.64 24.2001 62 24.3032C62 29.7058 62 35.1084 62 40.6747C61.1239 41.0067 60.4702 41.0081 59.55 40.9969C59.1153 40.9928 59.1153 40.9928 58.6719 40.9886C58.4502 40.9851 58.2284 40.9815 58 40.9779C58 40.7778 58 40.5777 58 40.3716C58.4774 40.0854 58.9549 39.7992 59.4323 39.513C59.9527 39.1618 59.9527 39.1618 60.1333 38.2493C60.1657 37.3693 60.1835 36.4969 60.1875 35.6167C60.189 35.3584 60.1905 35.1001 60.1921 34.834C60.1946 34.2879 60.1964 33.7417 60.1974 33.1956C60.2 32.3605 60.2083 31.5257 60.2167 30.6906C60.2184 30.1599 60.2198 29.6291 60.2208 29.0983C60.2241 28.8488 60.2274 28.5993 60.2308 28.3422C60.2272 27.2903 60.2224 26.6105 59.7727 25.6757C59.2289 25.1026 58.7007 24.8647 58 24.6064C58 24.4063 58 24.2062 58 24Z" fill="#3C3C3C"/>
<path d="M103.06 25C103.62 25 104.18 25 104.757 25C104.761 25.3675 104.766 25.7349 104.77 26.1135C104.786 27.4808 104.808 28.8481 104.832 30.2153C104.841 30.8063 104.849 31.3973 104.855 31.9884C104.865 32.8395 104.88 33.6904 104.895 34.5414C104.897 34.8043 104.899 35.0673 104.901 35.3382C104.934 36.8199 105.072 37.8862 105.889 39.1642C106.569 39.5118 107.006 39.4824 107.763 39.4713C108.109 39.4674 108.109 39.4674 108.463 39.4634C108.64 39.4601 108.817 39.4567 109 39.4532C109 39.7394 109 40.0256 109 40.3204C107.807 40.93 106.637 41.1483 105.323 40.8986C104.16 40.194 103.718 39.7431 103.3 38.4229C102.994 37.0331 102.989 35.6778 103.005 34.2591C103.006 33.9929 103.007 33.7267 103.007 33.4524C103.011 32.6102 103.018 31.768 103.025 30.9258C103.028 30.3515 103.03 29.7771 103.033 29.2027C103.039 27.8018 103.049 26.4009 103.06 25Z" fill="#FFCF12"/>
<path d="M134 47C135.712 47.3375 135.712 47.3375 136.536 48.1168C136.796 48.359 136.796 48.359 137.062 48.6061C137.238 48.7752 137.414 48.9444 137.595 49.1188C137.777 49.2891 137.959 49.4594 138.146 49.635C138.593 50.054 139.036 50.4767 139.478 50.9C139.579 49.613 139.679 48.326 139.783 47C140.184 47 140.586 47 141 47C141 48.98 141 50.96 141 53C138.69 53 136.38 53 134 53C134 51.02 134 49.04 134 47Z" fill="#9BB2B2"/>
<path d="M43 47C44.9479 47.336 44.9479 47.336 45.9348 48.275C46.9834 49.2369 48.0689 50.0725 49.2609 50.9C49.3757 49.613 49.4904 48.326 49.6087 47C50.0678 47 50.527 47 51 47C51 48.98 51 50.96 51 53C48.36 53 45.72 53 43 53C43 51.02 43 49.04 43 47Z" fill="#9DB3B3"/>
<path d="M144 25C145.122 25.0812 145.636 25.2299 146.518 25.9812C147.557 27.3049 147.472 28.5619 147.489 30.2185C147.497 30.6655 147.505 31.1126 147.513 31.5596C147.525 32.2603 147.536 32.9609 147.543 33.6616C147.551 34.3407 147.564 35.0195 147.578 35.6985C147.579 35.9059 147.58 36.1134 147.581 36.327C147.614 37.6966 147.871 38.6492 148.571 39.8109C149.305 40.3464 149.305 40.3464 150 40.6995C150 40.7973 150 40.895 150 40.9957C148.527 41.0225 147.176 40.9231 145.714 40.6995C145.712 40.5321 145.71 40.3647 145.707 40.1922C145.683 38.4478 145.654 36.7035 145.624 34.9592C145.613 34.3085 145.603 33.6577 145.594 33.0069C145.581 32.0708 145.564 31.1349 145.547 30.1988C145.544 29.9084 145.54 29.618 145.537 29.3188C145.527 27.3754 145.527 27.3754 144.857 25.5924C144.574 25.4947 144.291 25.3969 144 25.2962C144 25.1985 144 25.1007 144 25Z" fill="#FFCE0A"/>
<path d="M26.4375 23C26.4393 23.1948 26.4412 23.3897 26.4431 23.5904C26.463 25.6194 26.4894 27.6482 26.5195 29.677C26.5299 30.4341 26.5387 31.1912 26.5458 31.9482C26.5562 33.0369 26.5726 34.1252 26.5901 35.2138C26.5921 35.552 26.5941 35.8902 26.5961 36.2386C26.6222 38.4627 26.6222 38.4627 27.6875 40.3793C27.7906 40.5841 27.8938 40.789 28 41C26.9143 40.902 26.2706 40.803 25.4023 40.1272C24.6197 39.1196 24.5229 38.2039 24.527 36.9549C24.527 36.7127 24.5271 36.4705 24.5271 36.2209C24.5287 35.9625 24.5303 35.7042 24.532 35.438C24.5324 35.1711 24.5329 34.9043 24.5333 34.6293C24.5351 33.7787 24.539 32.9282 24.543 32.0776C24.5445 31.5001 24.546 30.9227 24.5472 30.3452C24.5507 28.9313 24.5561 27.5174 24.5625 26.1034C24.0469 26.1034 23.5312 26.1034 23 26.1034C23.2925 25.7604 23.5856 25.4178 23.8789 25.0754C24.0421 24.8846 24.2052 24.6938 24.3733 24.4972C25.7001 23 25.7001 23 26.4375 23Z" fill="#464646"/>
<path d="M51 25C52.3038 25.3663 52.8912 25.8067 53.6316 27.0703C53.9686 28.2067 53.9407 29.2869 53.9502 30.4716C53.9576 30.9768 53.9652 31.4821 53.9729 31.9874C53.9837 32.7838 53.9934 33.5801 54.0004 34.3766C54.0076 35.1453 54.0197 35.9139 54.0325 36.6826C54.0333 36.9211 54.0342 37.1595 54.0351 37.4052C54.0258 38.6389 54.0258 38.6389 54.5235 39.6881C54.9878 40.1215 55.4506 40.3986 56 40.6754C56 40.773 56 40.8706 56 40.9711C55.4353 40.9791 54.8706 40.9848 54.3059 40.9896C53.9915 40.993 53.677 40.9965 53.353 41C52.5789 40.9711 52.5789 40.9711 52.3158 40.6754C52.2891 40.2597 52.2801 39.8425 52.2785 39.4257C52.2766 39.1601 52.2748 38.8944 52.2729 38.6207C52.2718 38.3311 52.2707 38.0415 52.2695 37.7432C52.2634 37.1335 52.2571 36.5239 52.2505 35.9143C52.2413 34.9505 52.2336 33.9868 52.23 33.023C52.2259 32.0946 52.2153 31.1665 52.2037 30.2382C52.2042 29.9522 52.2047 29.6663 52.2053 29.3716C52.1764 27.5648 51.9203 26.4906 51 25Z" fill="#3D3D3D"/>
<path d="M98 47C99.4019 47.3305 99.8317 47.6959 100.864 48.6125C101.798 49.4371 102.7 50.1733 103.727 50.9C103.832 49.613 103.937 48.326 104.045 47C104.36 47 104.675 47 105 47C105 48.98 105 50.96 105 53C102.69 53 100.38 53 98 53C98 51.02 98 49.04 98 47Z" fill="#97AEAE"/>
<path d="M121 47C121.315 47 121.63 47 121.955 47C121.955 47.792 121.955 48.584 121.955 49.4C123.53 49.4 125.105 49.4 126.727 49.4C126.727 48.608 126.727 47.816 126.727 47C127.147 47 127.567 47 128 47C128 48.98 128 50.96 128 53C125.69 53 123.38 53 121 53C121 51.02 121 49.04 121 47Z" fill="#91AAAA"/>
<path d="M100.031 25C100.565 25 101.1 25 101.65 25C101.651 25.1704 101.652 25.3408 101.653 25.5164C101.665 27.2957 101.683 29.0749 101.706 30.854C101.714 31.5174 101.72 32.1807 101.723 32.8441C101.729 33.7996 101.742 34.7548 101.756 35.7102C101.756 36.0052 101.756 36.3001 101.757 36.6039C101.791 38.415 102.031 39.5091 103 41C102.054 40.8363 101.663 40.5195 101.06 39.7273C100.854 39.4629 100.854 39.4629 100.643 39.1932C100.068 38.3189 99.9973 37.564 100 36.5259C100 36.2697 100 36.0135 100 35.7496C100.002 35.4741 100.003 35.1986 100.004 34.9148C100.005 34.6319 100.005 34.349 100.006 34.0576C100.007 33.1535 100.01 32.2495 100.014 31.3455C100.015 30.7328 100.016 30.1201 100.018 29.5074C100.021 28.0049 100.025 26.5025 100.031 25Z" fill="#FFCE0B"/>
<path d="M47.8977 34.0045C47.9238 34.8918 47.9399 35.779 47.954 36.6665C47.9616 36.9191 47.9691 37.1718 47.9769 37.4321C47.9798 37.6736 47.9827 37.9151 47.9857 38.1639C47.9904 38.3869 47.9951 38.61 48 38.8398C47.9663 39.0233 47.9325 39.2068 47.8977 39.3959C46.7756 40.0676 46.2243 40.0585 44.8952 39.935C44.0685 39.451 43.5361 39.1122 43.0936 38.3176C42.9314 37.1026 42.9125 36.1746 43.6003 35.0997C44.9868 33.9894 46.084 33.9835 47.8977 34.0045Z" fill="#FCFCFC"/>
<path d="M18.8 47C19.262 47 19.724 47 20.2 47C20.6686 47.8863 21.1345 48.7743 21.6 49.6625C21.7335 49.915 21.8671 50.1676 22.0047 50.4277C22.131 50.6694 22.2573 50.9111 22.3875 51.1602C22.5635 51.4948 22.5635 51.4948 22.743 51.8362C23 52.4 23 52.4 23 53C20.69 53 18.38 53 16 53C16.9333 51 17.8667 49 18.8 47Z" fill="#95ADAD"/>
<path d="M145.959 47.0023C146.211 47.0015 146.462 47.0008 146.722 47C147.116 47.0034 147.116 47.0034 147.519 47.0068C147.782 47.0046 148.045 47.0023 148.316 47C148.568 47.0008 148.82 47.0015 149.079 47.0023C149.425 47.0033 149.425 47.0033 149.779 47.0043C150.358 47.0798 150.358 47.0798 150.956 47.6639C150.956 47.953 150.956 48.2421 150.956 48.5399C150.562 48.6363 150.167 48.7327 149.761 48.8319C149.761 48.5428 149.761 48.2537 149.761 47.9559C148.281 47.9559 146.802 47.9559 145.277 47.9559C145.277 49.305 145.277 50.6541 145.277 52.0441C146.757 52.0441 148.236 52.0441 149.761 52.0441C149.761 51.5623 149.761 51.0805 149.761 50.584C148.972 50.584 148.183 50.584 147.37 50.584C147.37 50.1986 147.37 49.8131 147.37 49.416C148.553 49.416 149.737 49.416 150.956 49.416C151.015 51.6403 151.015 51.6403 150.956 52.3361C150.236 53.0394 150.062 52.9949 149.079 52.9977C148.827 52.9985 148.576 52.9992 148.316 53C148.053 52.9977 147.79 52.9955 147.519 52.9932C147.124 52.9965 147.124 52.9965 146.722 53C146.47 52.9992 146.218 52.9985 145.959 52.9977C145.728 52.9971 145.497 52.9964 145.259 52.9957C144.68 52.9202 144.68 52.9202 144.082 52.3361C144.022 51.545 143.999 50.7905 144.007 50C144.005 49.7847 144.002 49.5694 144 49.3475C144.006 47.6694 144.175 47.0074 145.959 47.0023Z" fill="#97AFAF"/>
<path d="M54.9521 47.0023C55.2028 47.0015 55.4535 47.0008 55.7118 47C56.1051 47.0034 56.1051 47.0034 56.5064 47.0068C56.7686 47.0046 57.0308 47.0023 57.301 47C57.5517 47.0008 57.8024 47.0015 58.0607 47.0023C58.4059 47.0033 58.4059 47.0033 58.7581 47.0043C59.3357 47.0798 59.3357 47.0798 59.9314 47.6639C59.9314 47.953 59.9314 48.2421 59.9314 48.5399C59.5382 48.6363 59.1451 48.7327 58.7401 48.8319C58.7401 48.5428 58.7401 48.2537 58.7401 47.9559C57.2658 47.9559 55.7916 47.9559 54.2727 47.9559C54.2727 49.305 54.2727 50.6541 54.2727 52.0441C55.747 52.0441 57.2212 52.0441 58.7401 52.0441C58.7401 51.5623 58.7401 51.0805 58.7401 50.584C57.9538 50.584 57.1676 50.584 56.3575 50.584C56.3575 50.1986 56.3575 49.8131 56.3575 49.416C56.8973 49.4081 57.4371 49.4024 57.9769 49.3977C58.2775 49.3943 58.5781 49.3909 58.8878 49.3875C59.6335 49.416 59.6335 49.416 59.9314 49.708C59.9814 50.2909 59.9814 50.2909 59.9872 51.0038C59.9914 51.2383 59.9956 51.4728 60 51.7144C59.9314 52.3361 59.9314 52.3361 59.3357 52.9202C58.7581 52.9957 58.7581 52.9957 58.0607 52.9977C57.81 52.9985 57.5593 52.9992 57.301 53C57.0388 52.9977 56.7766 52.9955 56.5064 52.9932C56.1131 52.9965 56.1131 52.9965 55.7118 53C55.4611 52.9992 55.2104 52.9985 54.9521 52.9977C54.722 52.9971 54.4918 52.9964 54.2547 52.9957C53.6771 52.9202 53.6771 52.9202 53.0814 52.3361C53.0223 51.545 52.9985 50.7905 53.007 50C53.0047 49.7847 53.0024 49.5694 53 49.3475C53.0062 47.6694 53.1746 47.0074 54.9521 47.0023Z" fill="#99B0B0"/>
<path d="M3.00545 47C3.51638 47.0039 4.02729 47.0109 4.53813 47.0206C4.79899 47.0233 5.05985 47.0259 5.32861 47.0287C5.97341 47.0356 6.61816 47.0461 7.26289 47.0574C7.37025 47.5419 7.47762 48.0265 7.58824 48.5258C7.26614 48.6227 6.94405 48.7196 6.6122 48.8195C6.6122 48.5287 6.6122 48.238 6.6122 47.9384C5.21647 47.9384 3.82074 47.9384 2.38272 47.9384C2.38272 48.423 2.38272 48.9076 2.38272 49.4069C2.72745 49.4 3.07219 49.3932 3.42738 49.3862C3.87896 49.3807 4.33055 49.3753 4.78214 49.3701C5.1231 49.3628 5.1231 49.3628 5.47095 49.3552C6.06854 49.35 6.66621 49.3766 7.26289 49.4069C7.91358 49.9942 7.91358 49.9942 8 50.5449C7.99832 50.7508 7.99664 50.9568 7.99492 51.169C7.99659 51.3749 7.99827 51.5809 8 51.7931C7.91358 52.3437 7.91358 52.3437 7.26289 52.9311C6.6566 53.0024 6.6566 53.0024 5.92974 52.9988C5.66909 52.9982 5.40844 52.9976 5.13989 52.9971C4.7313 52.9917 4.7313 52.9917 4.31445 52.9862C4.0408 52.986 3.76715 52.9858 3.4852 52.9856C1.4523 52.9723 1.4523 52.9723 1.08134 52.6374C1.06811 52.1481 1.06744 51.6583 1.08134 51.169C1.40343 51.169 1.72552 51.169 2.05737 51.169C2.05737 51.4597 2.05737 51.7505 2.05737 52.05C3.66783 52.05 5.27829 52.05 6.93755 52.05C6.93755 51.4685 6.93755 50.887 6.93755 50.2879C6.56932 50.2947 6.2011 50.3015 5.82171 50.3086C5.33963 50.3141 4.85754 50.3194 4.37545 50.3246C4.13263 50.3295 3.8898 50.3345 3.63962 50.3395C3.00349 50.3447 2.36729 50.3182 1.73203 50.2879C1.08134 49.7005 1.08134 49.7005 1 48.6726C1.11729 47.1904 1.36613 47.0738 3.00545 47Z" fill="#95ADAD"/>
<path d="M75 47C76.65 47 78.3 47 80 47C80 48.65 80 50.3 80 52C78.35 52 76.7 52 75 52C75 50.35 75 48.7 75 47Z" fill="#FDFDFD"/>
<path d="M114.436 47.0816C114.696 47.078 114.956 47.0745 115.223 47.0708C115.901 47.0693 116.578 47.1006 117.254 47.136C117.471 47.3275 117.689 47.519 117.913 47.7163C117.789 48.3329 117.789 48.3329 117.583 48.8769C117.258 48.8769 116.932 48.8769 116.596 48.8769C116.596 48.5896 116.596 48.3024 116.596 48.0064C115.184 48.0064 113.772 48.0064 112.317 48.0064C112.317 48.4852 112.317 48.9639 112.317 49.4572C112.665 49.4505 113.014 49.4437 113.374 49.4368C113.831 49.4313 114.287 49.4261 114.744 49.4209C115.089 49.4136 115.089 49.4136 115.441 49.4062C116.046 49.4011 116.651 49.4273 117.254 49.4572C117.913 50.0375 117.913 50.0375 118 50.5815C117.998 50.785 117.997 50.9885 117.995 51.1981C117.997 51.4016 117.998 51.605 118 51.8147C117.913 52.3587 117.913 52.3587 117.254 52.939C116.636 53.0049 116.636 53.0049 115.894 52.9957C115.629 52.9938 115.363 52.9919 115.09 52.99C114.813 52.9851 114.536 52.9803 114.251 52.9753C113.831 52.9713 113.831 52.9713 113.403 52.9673C112.712 52.9605 112.02 52.9501 111.329 52.939C111.221 52.3645 111.112 51.79 111 51.1981C111.326 51.1981 111.652 51.1981 111.988 51.1981C111.988 51.4853 111.988 51.7726 111.988 52.0685C113.617 52.0685 115.246 52.0685 116.925 52.0685C116.925 51.494 116.925 50.9195 116.925 50.3276C116.549 50.331 116.172 50.3344 115.785 50.3378C115.294 50.3406 114.803 50.3432 114.312 50.3458C113.94 50.3494 113.94 50.3494 113.559 50.3531C112.926 50.3556 112.292 50.3428 111.658 50.3276C111.329 50.0375 111.329 50.0375 111.285 49.4481C111.286 49.2117 111.287 48.9754 111.288 48.7318C111.287 48.4954 111.286 48.259 111.285 48.0155C111.391 46.5898 113.19 47.0825 114.436 47.0816Z" fill="#93ABAB"/>
<path d="M150.7 47C150.799 47 150.898 47 151 47C151 48.98 151 50.96 151 53C150.703 52.89 150.406 52.78 150.1 52.6667C150.199 52.5567 150.298 52.4467 150.4 52.3333C150.47 51.7727 150.524 51.2096 150.569 50.6458C150.612 50.1027 150.655 49.5596 150.7 49C149.512 49 148.324 49 147.1 49C147.1 49.44 147.1 49.88 147.1 50.3333C147.892 50.3333 148.684 50.3333 149.5 50.3333C149.5 50.8833 149.5 51.4333 149.5 52C148.015 52 146.53 52 145 52C145 50.46 145 48.92 145 47.3333C146.485 47.3333 147.97 47.3333 149.5 47.3333C149.5 47.6633 149.5 47.9933 149.5 48.3333C149.896 48.2233 150.292 48.1133 150.7 48C150.7 47.67 150.7 47.34 150.7 47Z" fill="#FEFEFE"/>
<path d="M149.255 13.5564C150.156 14.3726 150.578 14.8424 150.944 16.0678C151.125 18.1412 150.906 19.3588 149.712 20.9924C148.724 21.8819 148.012 22.0381 146.738 21.993C145.578 21.7807 144.806 21.3263 143.905 20.4627C143.084 19.0886 142.88 18.0189 143.061 16.3817C143.574 14.8885 144.271 13.9065 145.595 13.2425C146.891 12.7737 147.994 13.0426 149.255 13.5564ZM144.081 15.6754C143.811 16.7596 143.746 17.7875 143.905 18.8931C144.562 20.1401 145.186 20.7245 146.439 21.0905C147.749 21.2426 148.495 21.0584 149.536 20.1488C150.181 19.2569 150.37 18.6528 150.539 17.5197C150.356 16.2006 150.046 15.5755 149.229 14.6221C147.407 13.1387 145.426 13.7673 144.081 15.6754Z" fill="#434343"/>
<path d="M87 47C88.98 47 90.96 47 93 47C93 47.297 93 47.594 93 47.9C91.4368 47.9 89.8737 47.9 88.2632 47.9C88.2632 48.494 88.2632 49.088 88.2632 49.7C89.2011 49.7 90.1389 49.7 91.1053 49.7C91.1053 49.997 91.1053 50.294 91.1053 50.6C90.1674 50.6 89.2295 50.6 88.2632 50.6C88.2632 51.392 88.2632 52.184 88.2632 53C87.8463 53 87.4295 53 87 53C87 51.02 87 49.04 87 47Z" fill="#96AEAE"/>
<path d="M40.8213 33C40.8213 33.7778 40.8213 33.7778 40.646 34.2315C40.3923 35.0435 40.4099 35.7418 40.4079 36.6296C40.4049 36.9451 40.4019 37.2606 40.3988 37.5856C40.4679 38.499 40.5925 38.8077 41 39.4815C41 39.6526 41 39.8237 41 40C40.2067 39.6383 39.7589 39.0877 39.2126 38.1852C38.946 37.0252 38.9011 36.0284 39.2461 34.8958C39.6887 34.0768 40.1784 33.4662 40.8213 33Z" fill="#444444"/>
<path d="M145 16.0643C145.268 16.0507 145.536 16.0371 145.812 16.0231C145.963 16.0155 146.114 16.0079 146.27 16C146.667 16.0643 146.667 16.0643 147 16.7224C146.938 17.7506 146.938 17.7506 146.833 18.6967C146.723 18.6967 146.613 18.6967 146.5 18.6967C146.624 19.0835 146.624 19.0835 146.75 19.4781C147 20.3419 147 20.3419 147 21C146.835 21 146.67 21 146.5 21C146.33 20.4553 146.164 19.9067 146 19.3548C145.835 19.2462 145.67 19.1376 145.5 19.0257C145.5 19.6772 145.5 20.3287 145.5 21C145.335 21 145.17 21 145 21C145 19.3712 145 17.7424 145 16.0643Z" fill="#3C3C3C"/>
<path d="M122 51C123.65 51 125.3 51 127 51C127 51.66 127 52.32 127 53C125.35 53 123.7 53 122 53C122 52.34 122 51.68 122 51Z" fill="#FCFDFD"/>
<path d="M65 47C66.98 47 68.96 47 71 47C71 47.297 71 47.594 71 47.9C70.19 47.9 69.38 47.9 68.5455 47.9C68.5455 49.583 68.5455 51.266 68.5455 53C68.1855 53 67.8255 53 67.4545 53C67.4545 51.317 67.4545 49.634 67.4545 47.9C66.6445 47.9 65.8345 47.9 65 47.9C65 47.603 65 47.306 65 47Z" fill="#98AFAF"/>
<path d="M31 47C33.64 47 36.28 47 39 47C39 47.297 39 47.594 39 47.9C37.92 47.9 36.84 47.9 35.7273 47.9C35.7273 49.583 35.7273 51.266 35.7273 53C35.2473 53 34.7673 53 34.2727 53C34.2727 51.317 34.2727 49.634 34.2727 47.9C33.1927 47.9 32.1127 47.9 31 47.9C31 47.603 31 47.306 31 47Z" fill="#94ADAD"/>
<path d="M144.743 16C144.743 17.3015 144.743 18.603 144.743 19.9439C145.067 19.9439 145.392 19.9439 145.726 19.9439C145.726 19.4233 145.726 18.9027 145.726 18.3663C146.319 18.4156 146.319 18.4156 147.035 18.6293C147.379 19.0595 147.706 19.4982 148.018 19.9439C148.342 20.1174 148.666 20.2909 149 20.4697C147.773 21.1265 147.211 21.0454 145.8 20.896C144.694 20.6482 144.136 20.123 143.433 19.418C143.325 19.3313 143.217 19.2445 143.106 19.1551C142.912 17.2529 142.912 17.2529 143.74 16.3944C144.416 16 144.416 16 144.743 16Z" fill="#F6F6F6"/>
<path d="M135 48C136.271 48.7264 137.179 49.6072 138.203 50.7009C138.376 50.8821 138.55 51.0632 138.728 51.2499C139.159 51.7055 139.58 52.1732 140 52.6429C140 52.7607 140 52.8786 140 53C138.35 53 136.7 53 135 53C135 51.35 135 49.7 135 48Z" fill="#FCFDFD"/>
<path d="M45 48C46.2712 48.7264 47.1787 49.6072 48.2031 50.7009C48.3763 50.8821 48.5496 51.0632 48.728 51.2499C49.1591 51.7055 49.5805 52.1732 50 52.6429C50 52.7607 50 52.8786 50 53C48.35 53 46.7 53 45 53C45 51.35 45 49.7 45 48Z" fill="#FCFDFD"/>
<path d="M100 48C101.262 49.0989 102.231 50.4088 103.25 51.9286C103.497 52.2821 103.745 52.6357 104 53C102.68 53 101.36 53 100 53C100 51.35 100 49.7 100 48Z" fill="#FCFDFD"/>
<path d="M10 47C11.98 47 13.96 47 16 47C16 47.297 16 47.594 16 47.9C15.1514 47.9 14.3029 47.9 13.4286 47.9C13.4286 49.583 13.4286 51.266 13.4286 53C13.1457 53 12.8629 53 12.5714 53C12.5714 51.317 12.5714 49.634 12.5714 47.9C11.7229 47.9 10.8743 47.9 10 47.9C10 47.603 10 47.306 10 47Z" fill="#91AAAA"/>
<path d="M101.857 14C102.046 14 102.234 14 102.429 14C102.429 14.2357 102.429 14.4714 102.429 14.7143C102.667 14.8358 102.667 14.8358 102.911 14.9598C103.752 15.5568 104.338 16.3403 105 17.2143C104.811 17.8036 104.623 18.3929 104.429 19C103.518 18.4873 102.822 17.8562 102.071 17.0357C101.87 16.8184 101.668 16.6011 101.46 16.3772C101 15.7857 101 15.7857 101 15.0714C101.189 15.0714 101.377 15.0714 101.571 15.0714C101.666 14.7179 101.76 14.3643 101.857 14Z" fill="#FFCF13"/>
<path d="M100.615 17C101.605 17.5417 102.253 18.1936 103 19.1635C103.283 19.5279 103.283 19.5279 103.572 19.8996C103.784 20.1778 103.784 20.1778 104 20.4615C103.797 20.9692 103.594 21.4769 103.385 22C101.984 21.485 100.791 20.476 100 18.9231C100.084 18.106 100.144 17.5898 100.615 17Z" fill="#FFCE0B"/>
<path d="M130 47C130.66 47 131.32 47 132 47C132 48.98 132 50.96 132 53C131.34 53 130.68 53 130 53C130 51.02 130 49.04 130 47Z" fill="#99B0B0"/>
<path d="M108 47C108.33 47 108.66 47 109 47C109 48.98 109 50.96 109 53C108.67 53 108.34 53 108 53C108 51.02 108 49.04 108 47Z" fill="#9BB2B2"/>
<path d="M40 47C40.33 47 40.66 47 41 47C41 48.98 41 50.96 41 53C40.67 53 40.34 53 40 53C40 51.02 40 49.04 40 47Z" fill="#99B0B0"/>
<path d="M25 47C26.65 47 28.3 47 30 47C30 47.99 30 48.98 30 50C28.35 50 26.7 50 25 50C25 49.01 25 48.02 25 47Z" fill="#FCFDFD"/>
<path d="M17.5882 51C18.85 51 20.1118 51 21.4118 51C21.6059 51.66 21.8 52.32 22 53C20.35 53 18.7 53 17 53C17.1941 52.34 17.3882 51.68 17.5882 51Z" fill="#FDFEFE"/>
<path d="M25 51.0788C25.9856 50.9737 25.9856 50.9737 27.3077 51.0788C28.326 51.5737 29.1879 52.1343 30 52.7598C30 52.8391 30 52.9183 30 53C28.35 53 26.7 53 25 53C25 52.366 25 51.732 25 51.0788Z" fill="#F8F9F9"/>
<path d="M143.018 17C143.477 17.5232 143.618 17.8461 143.802 18.6493C144.045 19.6278 144.199 20.0212 144.81 20.6111C145.275 20.7384 145.726 20.8017 146.199 20.8401C146.602 20.8889 146.602 20.8889 147 21.1667C146.801 21.6007 146.801 21.6007 146.403 22C145.242 21.9735 144.517 21.6931 143.616 20.6111C143.031 19.3867 142.956 18.4556 143.018 17Z" fill="#4E4E4E"/>
<path d="M94 47C94.33 47 94.66 47 95 47C95 48.98 95 50.96 95 53C94.67 53 94.34 53 94 53C94 51.02 94 49.04 94 47Z" fill="#8DA7A7"/>
<path d="M145 16.0477C145.271 16.0345 145.542 16.025 145.812 16.0172C145.963 16.0115 146.114 16.0058 146.27 16C146.667 16.0477 146.667 16.0477 147 16.5357C146.938 17.2984 146.938 17.2984 146.833 18C146.393 17.9195 145.953 17.8389 145.5 17.756C145.51 17.5647 145.521 17.3734 145.531 17.1764C145.521 16.965 145.511 16.7536 145.5 16.5357C145.335 16.3747 145.17 16.2136 145 16.0477Z" fill="#595959"/>
<path d="M149.588 16C150.015 16.11 150.442 16.22 150.882 16.3333C151.124 19.5057 151.124 19.5057 149.588 21C148.86 21.6042 148.86 21.6042 148.294 22C147.867 21.89 147.44 21.78 147 21.6667C147.427 21.1717 147.427 21.1717 147.863 20.6667C148.147 20.6667 148.432 20.6667 148.725 20.6667C149.76 19.1172 149.674 17.6964 149.588 16Z" fill="#424242"/>
<path d="M19.3333 47C20.2387 48.4018 20.6562 49.1662 21 51C20.01 51 19.02 51 18 51C18.3997 49.6297 18.8257 48.3054 19.3333 47Z" fill="#FAFBFB"/>
<path d="M148.55 13.0418C149.658 13.5017 150.238 14.1568 151 15.1315C151 15.4181 151 15.7047 151 16C149.67 15.7511 149.104 15.3299 148.2 14.2631C147.804 13.9765 147.408 13.6899 147 13.3946C147.8 12.9604 147.8 12.9604 148.55 13.0418Z" fill="#4A4A4A"/>
<path d="M59.3333 40C59.5533 40.0825 59.7733 40.165 60 40.25C59.89 40.3325 59.78 40.415 59.6667 40.5C60.4367 40.5825 61.2067 40.665 62 40.75C62 40.8325 62 40.915 62 41C60.68 41 59.36 41 58 41C58 40.835 58 40.67 58 40.5C58.625 40.2344 58.625 40.2344 59.3333 40Z" fill="#656565"/>
<path d="M150 16C150.33 16.0733 150.66 16.1467 151 16.2222C151 16.8089 151 17.3956 151 18C150.78 18 150.56 18 150.333 18C150.223 17.34 150.113 16.68 150 16Z" fill="#353535"/>
</svg>
